<svg width="33" height="32" viewBox="0 0 33 32" fill="none" xmlns="http://www.w3.org/2000/svg">
<circle cx="16.5" cy="16" r="16" fill="#D83E31"/>
<g clip-path="url(#clip0_3202_7134)">
<g clip-path="url(#clip1_3202_7134)">
<path d="M20.1502 11.31V18.36M18.2602 11.31V18.36M12.8502 13.675V18.36M21.9102 18.36C21.4438 18.3587 20.9969 18.1728 20.6671 17.843C20.3374 17.5133 20.1515 17.0664 20.1502 16.6V15.435C20.1502 14.9682 20.3356 14.5206 20.6657 14.1905C20.9958 13.8604 21.4434 13.675 21.9102 13.675C22.1417 13.6743 22.3711 13.7194 22.5853 13.8075C22.7994 13.8957 22.994 14.0252 23.1579 14.1887C23.3219 14.3522 23.452 14.5465 23.5407 14.7603C23.6295 14.9742 23.6752 15.2035 23.6752 15.435V16.6C23.6739 17.0672 23.4873 17.5149 23.1565 17.8448C22.8256 18.1747 22.3774 18.36 21.9102 18.36ZM16.5002 18.36C16.2691 18.36 16.0402 18.3145 15.8267 18.226C15.6131 18.1376 15.4191 18.0079 15.2557 17.8445C15.0923 17.6811 14.9626 17.4871 14.8742 17.2735C14.7857 17.06 14.7402 16.8311 14.7402 16.6V15.435C14.7395 15.2037 14.7846 14.9745 14.8728 14.7607C14.961 14.5469 15.0907 14.3526 15.2542 14.189C15.4178 14.0255 15.6121 13.8958 15.8259 13.8076C16.0397 13.7194 16.2689 13.6743 16.5002 13.675C16.7315 13.6743 16.9607 13.7194 17.1745 13.8076C17.3883 13.8958 17.5826 14.0255 17.7462 14.189C17.9097 14.3526 18.0394 14.5469 18.1276 14.7607C18.2158 14.9745 18.2609 15.2037 18.2602 15.435V16.6C18.2602 16.8311 18.2147 17.06 18.1262 17.2735C18.0378 17.4871 17.9081 17.6811 17.7447 17.8445C17.5813 18.0079 17.3873 18.1376 17.1737 18.226C16.9602 18.3145 16.7313 18.36 16.5002 18.36ZM11.0902 18.36C10.623 18.36 10.1748 18.1747 9.84392 17.8448C9.51306 17.5149 9.32652 17.0672 9.3252 16.6V15.435C9.32519 15.2035 9.37088 14.9742 9.45964 14.7603C9.54841 14.5465 9.67849 14.3522 9.84245 14.1887C10.0064 14.0252 10.201 13.8957 10.4151 13.8075C10.6292 13.7194 10.8586 13.6743 11.0902 13.675C11.557 13.675 12.0046 13.8604 12.3347 14.1905C12.6648 14.5206 12.8502 14.9682 12.8502 15.435V16.6C12.8489 17.0664 12.663 17.5133 12.3332 17.843C12.0035 18.1728 11.5566 18.3587 11.0902 18.36Z" stroke="#F9F9F9" stroke-width="0.5" stroke-linecap="round" stroke-linejoin="round"/>
<path d="M24.75 6.75H8.25C7.98478 6.75 7.73043 6.85536 7.54289 7.04289C7.35536 7.23043 7.25 7.48478 7.25 7.75V24.25C7.25 24.5152 7.35536 24.7696 7.54289 24.9571C7.73043 25.1446 7.98478 25.25 8.25 25.25H24.75C25.0152 25.25 25.2696 25.1446 25.4571 24.9571C25.6446 24.7696 25.75 24.5152 25.75 24.25V7.75C25.75 7.48478 25.6446 7.23043 25.4571 7.04289C25.2696 6.85536 25.0152 6.75 24.75 6.75Z" stroke="#F9F9F9" stroke-width="0.5" stroke-linecap="round" stroke-linejoin="round"/>
</g>
</g>
<defs>
<clipPath id="clip0_3202_7134">
<rect width="24" height="24" fill="white" transform="translate(4.5 4)"/>
</clipPath>
<clipPath id="clip1_3202_7134">
<rect width="24" height="24" fill="white" transform="translate(4.5 4)"/>
</clipPath>
</defs>
</svg>
