<svg width="33" height="32" viewBox="0 0 33 32" fill="none" xmlns="http://www.w3.org/2000/svg">
<circle cx="16.5" cy="16" r="16" fill="#D83E31"/>
<g clip-path="url(#clip0_13_144)">
<path d="M21 26.125L10.5 20.875L18 5.875L28.125 11.125L21 26.125Z" stroke="#F9F9F9" stroke-width="0.7" stroke-miterlimit="10"/>
<path d="M16.4621 9.2515L15 6.25L4.875 11.5L11.625 26.125L16.5 23.8615" stroke="#F9F9F9" stroke-width="0.7" stroke-miterlimit="10"/>
<path d="M18.75 7.375L18.375 8.125" stroke="#F9F9F9" stroke-miterlimit="10"/>
<path d="M7.125 12.625L6.75 11.875" stroke="#F9F9F9" stroke-miterlimit="10"/>
<path d="M20.625 23.875L20.25 24.625" stroke="#F9F9F9" stroke-miterlimit="10"/>
<path d="M16.8748 13.375C15.8068 15.3554 17.9998 19 17.9998 19C17.9998 19 22.1814 19.105 23.2498 17.125C23.6923 16.3045 23.7661 14.9807 22.8748 14.5C22.0543 14.0575 20.6923 14.0545 20.2498 14.875C20.6923 14.0545 20.3203 13.0675 19.4998 12.625C18.6088 12.1442 17.3176 12.5549 16.8748 13.375Z" stroke="#F9F9F9" stroke-width="0.7" stroke-miterlimit="10"/>
</g>
<defs>
<clipPath id="clip0_13_144">
<rect width="24" height="24" fill="white" transform="translate(4.5 4)"/>
</clipPath>
</defs>
</svg>
