<svg width="32" height="32" viewBox="0 0 32 32" fill="none" xmlns="http://www.w3.org/2000/svg">
<circle cx="16" cy="16" r="16" fill="#D83E31"/>
<path d="M9.18598 14.2521H22.8142C22.9277 14.2521 23.0199 14.3443 23.0199 14.4579V23.1343C23.0199 24.0384 22.2811 24.7771 21.377 24.7771H10.6231C9.71905 24.7771 8.98022 24.0383 8.98022 23.1343V14.4579C8.98022 14.3443 9.07239 14.2521 9.18598 14.2521ZM22.6084 14.6636H9.3917V23.1343C9.3917 23.8111 9.94627 24.3657 10.6231 24.3657H21.3771C22.054 24.3657 22.6085 23.8112 22.6085 23.1343L22.6084 14.6636Z" fill="#F9F9F9"/>
<path d="M9.1859 14.2521H22.8142C23.1746 14.2521 23.4692 13.9572 23.4692 13.5971V12.611C23.4692 12.0045 22.9722 11.5075 22.3657 11.5075H9.6344C9.02791 11.5075 8.53092 12.0045 8.53092 12.611V13.5971C8.53092 13.9569 8.82554 14.2521 9.1859 14.2521ZM22.8142 14.6636H9.1859C8.59933 14.6636 8.11951 14.1838 8.11951 13.5971V12.611C8.11951 11.7774 8.80075 11.0961 9.63442 11.0961H22.3657C23.1994 11.0961 23.8806 11.7774 23.8806 12.611V13.5971C23.8806 14.1836 23.4009 14.6636 22.8142 14.6636Z" fill="#F9F9F9"/>
<path d="M17.6403 14.4578C17.6403 14.187 17.2289 14.187 17.2289 14.4578V24.5714C17.2289 24.8422 17.6403 24.8422 17.6403 24.5714V14.4578ZM14.3597 24.5714C14.3597 24.8422 14.7712 24.8422 14.7712 24.5714V14.4578C14.7712 14.187 14.3597 14.187 14.3597 14.4578V24.5714Z" fill="#F9F9F9"/>
<path d="M18.233 14.4578C18.233 14.7286 18.6444 14.7286 18.6444 14.4578V11.3018C18.6444 11.031 18.233 11.031 18.233 11.3018V14.4578ZM13.7669 11.3018C13.7669 11.031 13.3555 11.031 13.3555 11.3018V14.4578C13.3555 14.7286 13.7669 14.7286 13.7669 14.4578V11.3018Z" fill="#F9F9F9"/>
<path d="M11.9557 7.22386C13.2324 7.23864 14.7231 8.14366 15.2691 9.28963L16.1857 11.2134C16.248 11.3441 16.1601 11.517 15.9788 11.5064C14.5111 11.4876 13.3987 11.2581 12.5727 10.9527C11.0475 10.3888 10.2608 9.53905 10.2718 8.58126C10.2824 7.66814 11.0669 7.21361 11.9557 7.22386ZM13.6777 8.18626C12.9861 7.75544 11.9375 7.43054 11.2107 7.77674C10.6131 8.06137 10.5716 8.66746 10.8437 9.23852C10.9862 9.53766 11.524 10.127 12.7141 10.5669C13.4449 10.8371 14.4124 11.0452 15.671 11.0892L14.8978 9.46643C14.6629 8.97332 14.2131 8.51974 13.6777 8.18626Z" fill="#F9F9F9"/>
<path d="M20.0476 7.63367C18.93 7.64655 17.5809 8.46183 17.1023 9.46643L16.3291 11.0892C17.5877 11.0452 18.5552 10.8371 19.286 10.5669C20.6281 10.0708 21.3274 9.36872 21.3185 8.5845C21.3106 7.90297 20.6886 7.6263 20.0476 7.63367ZM18.1055 7.83752C18.9192 7.33065 20.1049 6.99522 20.9662 7.40548C21.7656 7.7863 21.9018 8.63021 21.5277 9.41533C21.3574 9.7727 20.7428 10.4664 19.4274 10.9527C18.6014 11.2581 17.489 11.4876 16.0213 11.5064C15.84 11.517 15.7521 11.3441 15.8143 11.2133L16.731 9.28964C17.0002 8.72465 17.5066 8.21052 18.1055 7.83752Z" fill="#F9F9F9"/>
</svg>
