<svg width="32" height="32" viewBox="0 0 32 32" fill="none" xmlns="http://www.w3.org/2000/svg">
<circle cx="16" cy="16" r="16" fill="#D83E31"/>
<path d="M11.1972 8.68976H20.8029C20.9165 8.68976 21.0086 8.78188 21.0086 8.89547V12.8588C21.0086 14.5146 19.3776 15.5878 17.947 16C19.3776 16.4122 21.0086 17.4855 21.0086 19.1412V23.1045C21.0086 23.2181 20.9165 23.3102 20.8029 23.3102H11.1972C11.0836 23.3102 10.9915 23.2181 10.9915 23.1045V19.1412C10.9915 17.4855 12.6225 16.4122 14.053 16C12.6225 15.5878 10.9915 14.5145 10.9915 12.8588V8.89547C10.9915 8.78188 11.0836 8.68976 11.1972 8.68976ZM20.5972 9.10119H11.4029V12.8588C11.4029 14.6349 13.5765 15.5905 15.0642 15.7946C15.309 15.8091 15.3246 16.1708 15.0795 16.2038C13.588 16.4051 11.4029 17.3597 11.4029 19.1412V22.8988H20.5972V19.1412C20.5972 17.3651 18.4236 16.4096 16.9359 16.2054C16.6912 16.1911 16.6754 15.8292 16.9207 15.7961C18.4121 15.5949 20.5972 14.6402 20.5972 12.8588V9.10119Z" fill="#F9F9F9"/>
<path d="M12.8564 22.8988H19.1435V20.6053C19.1435 19.3443 18.111 18.3118 16.85 18.3118H15.1499C13.8889 18.3118 12.8564 19.3443 12.8564 20.6053L12.8564 22.8988ZM19.3493 23.3102H12.6507C12.5371 23.3102 12.4449 23.2181 12.4449 23.1045V20.6053C12.4449 19.1171 13.6617 17.9003 15.1499 17.9003H16.85C18.3382 17.9003 19.555 19.1171 19.555 20.6053V23.1045C19.555 23.2181 19.4629 23.3102 19.3493 23.3102Z" fill="#F9F9F9"/>
<path d="M12.6507 9.82394H19.3493C19.4628 9.82394 19.555 9.91607 19.555 10.0297V12.5289C19.555 14.0171 18.3382 15.2338 16.85 15.2338H15.1499C13.6617 15.2338 12.4449 14.0171 12.4449 12.5289V10.0297C12.4449 9.91607 12.5371 9.82394 12.6507 9.82394ZM19.1435 10.2354H12.8564V12.5289C12.8564 13.7899 13.8889 14.8224 15.1499 14.8224H16.85C18.111 14.8224 19.1435 13.7899 19.1435 12.5289L19.1435 10.2354Z" fill="#F9F9F9"/>
<path d="M16.2058 15.0282C16.2058 14.7573 15.7944 14.7573 15.7944 15.0282C15.7944 15.3461 15.7242 15.7198 16.0001 15.7198C16.276 15.7198 16.2058 15.3461 16.2058 15.0282Z" fill="#F9F9F9"/>
<path d="M16.2058 16.073C16.2058 15.8022 15.7944 15.8022 15.7944 16.073C15.7944 16.391 15.7242 16.7646 16.0001 16.7646C16.276 16.7646 16.2058 16.391 16.2058 16.073Z" fill="#F9F9F9"/>
<path d="M16.2058 17.1179C16.2058 16.8471 15.7944 16.8471 15.7944 17.1179C15.7944 17.4359 15.7242 17.8096 16.0001 17.8096C16.276 17.8096 16.2058 17.4359 16.2058 17.1179Z" fill="#F9F9F9"/>
<path d="M10.7932 8.68977H21.2068C21.9021 8.68977 21.9025 7.63427 21.2068 7.63427H10.7932C10.0975 7.63427 10.0978 8.68977 10.7932 8.68977ZM21.2068 9.1012H10.7932C10.2768 9.1012 9.854 8.67876 9.854 8.162C9.854 7.64573 10.2768 7.22284 10.7932 7.22284H21.2068C21.7234 7.22284 22.146 7.6454 22.146 8.16204C22.146 8.67859 21.7235 9.1012 21.2068 9.1012Z" fill="#F9F9F9"/>
<path d="M10.7932 24.3657H21.2068C21.9025 24.3657 21.9022 23.3102 21.2068 23.3102H10.7932C10.0979 23.3102 10.0975 24.3657 10.7932 24.3657ZM21.2068 24.7772H10.7932C10.2766 24.7772 9.854 24.3546 9.854 23.838C9.854 23.3214 10.2765 22.8988 10.7932 22.8988H21.2068C21.7232 22.8988 22.146 23.3212 22.146 23.838C22.146 24.3543 21.7232 24.7772 21.2068 24.7772Z" fill="#F9F9F9"/>
</svg>
