<svg width="24" height="32" viewBox="0 0 24 32" fill="none" xmlns="http://www.w3.org/2000/svg">
<path d="M23.848 22.0372C23.8084 22.6867 23.7614 23.3497 23.553 23.9561C22.9634 25.6699 21.7502 27.5625 20.4743 28.7324C19.0898 30.0012 17.323 30.5607 15.7231 31.3896C15.0543 31.7367 14.3615 31.9955 13.5981 32C12.7681 32.0089 11.9812 31.6311 11.2964 31.1308C9.13343 29.5495 7.62817 27.1874 5.72066 25.2875C5.41309 24.9812 4.84505 24.3725 4.94573 23.8482C5.00584 23.5352 5.33745 23.4089 5.61697 23.3374C5.44164 23.2988 5.26683 23.2585 5.09301 23.2144C4.67023 23.1071 4.24795 22.9746 3.85723 22.7622C3.21805 22.4145 2.80579 21.8293 2.35697 21.2251C1.47184 20.0306 0.480006 18.854 0.110326 17.3264C-0.422154 15.1258 1.08563 13.3701 2.22122 11.7559C2.69108 11.0885 3.20252 10.4681 3.69893 9.82697C3.75654 9.75207 3.78809 9.67213 3.83017 9.58773C3.88226 9.48321 3.96492 9.40439 4.04257 9.3239C4.21989 9.14056 4.40574 8.96784 4.60009 8.80798C4.79445 8.64756 4.99632 8.49946 5.2057 8.36419C5.31039 8.29656 5.41659 8.23227 5.52379 8.17079C5.56687 8.14619 5.82836 8.04614 5.83788 8.00422C5.84439 7.97627 5.8514 7.94833 5.85891 7.92094C5.98464 7.46037 6.23811 7.0445 6.57322 6.74211C8.19922 5.27486 9.86528 3.86967 11.595 2.55278C13.3146 1.24427 14.6957 -0.252603 16.9188 0.0414054C18.4967 0.247658 19.9408 1.09503 21.3294 1.88986C21.5498 2.0173 21.7622 2.14921 21.963 2.30684C22.4314 2.68022 22.9033 3.00944 23.1512 3.61534C23.3952 4.19945 23.4423 4.85789 23.4858 5.50347C23.572 6.75999 23.6537 8.01652 23.7248 9.27416C23.7383 9.51283 23.7313 9.75821 23.7478 9.99297C23.7553 10.1009 23.7779 10.2065 23.7814 10.3155C23.7889 10.5536 23.7809 10.842 23.6507 11.0416C23.5961 11.1254 23.5475 11.2031 23.5079 11.2987C23.4894 11.3434 23.3771 11.6693 23.3381 11.6693C23.5269 11.6681 23.6942 11.8218 23.7829 12.0074C23.8716 12.1935 23.8956 12.4082 23.9141 12.6178C23.9627 13.1684 23.9848 13.7234 23.9562 14.2768C23.9422 14.549 23.9156 14.8212 23.8746 15.09C23.854 15.2236 23.835 15.3611 23.8009 15.4914C23.7604 15.6467 23.7068 15.8038 23.6487 15.9536C23.59 16.1034 23.5219 16.2488 23.4438 16.3874C23.4142 16.4399 23.325 16.6462 23.2709 16.6618C23.3947 16.626 23.5084 16.7451 23.586 16.8586C23.8776 17.2862 24.0058 17.7523 23.9492 18.2833C23.9392 18.3744 23.9507 18.4577 23.9592 18.5477C23.9717 18.6807 23.9637 18.8154 23.9612 18.949C23.9557 19.2592 23.9482 19.57 23.9392 19.8803C23.9176 20.5985 23.8881 21.3179 23.848 22.0372Z" fill="url(#paint0_linear_13_5353)"/>
<path d="M23.9697 19.4682C23.9502 19.8723 23.9266 20.2759 23.9106 20.6755C23.8911 21.1322 23.871 21.5844 23.8475 22.0366C23.8079 22.6861 23.7608 23.3495 23.5524 23.9554C23.4227 24.3288 23.2454 24.6709 23.025 24.9783C21.7697 26.7698 19.2475 27.5819 17.5278 28.4773C16.8591 28.82 16.1704 29.0832 15.407 29.0877C14.5729 29.0922 13.79 28.7143 13.1052 28.2141C12.7631 27.9637 12.3929 27.6786 12.1059 27.3533C11.1496 26.251 9.98897 25.2544 9.02119 24.1086C8.62747 23.6475 8.2658 23.16 7.96274 22.6374C7.67972 22.15 8.0965 22.0052 8.56887 21.97C8.6946 21.97 8.82083 21.97 8.94656 21.9656H9.0252C9.22206 21.9745 9.38737 21.9874 9.46201 21.9918C9.77308 22.0052 10.0836 22.0271 10.3947 22.0489C11.1897 22.1059 11.9842 22.1545 12.7791 22.0444C12.5076 21.9963 12.2401 21.9521 11.9686 21.9125C10.6151 21.6973 9.26163 21.5173 7.90013 21.377C7.77439 21.3641 7.64416 21.3507 7.51843 21.3373C6.05473 21.1925 5.03186 19.476 4.16226 18.3078C4.15825 18.2988 4.15023 18.2944 4.14673 18.286C3.87523 17.9171 3.59171 17.5526 3.32021 17.1754C2.7181 16.3369 2.17109 15.4588 1.91562 14.4091C1.80141 13.9396 1.7463 13.4388 1.82895 12.9558C1.86051 12.7759 1.91161 12.5959 1.97473 12.4243C2.20315 11.8184 2.60439 11.265 2.94652 10.7558C3.59171 9.80336 4.41822 8.57367 5.40203 7.95436C5.51223 7.88001 5.62645 7.81405 5.74416 7.76095C6.07878 7.60724 6.43693 7.54575 6.79459 7.49768C7.15275 7.44961 7.51092 7.41441 7.86857 7.38814C7.96675 7.37919 8.06543 7.37081 8.16762 7.36634C8.97009 7.30485 9.77308 7.2607 10.564 7.1422C10.9102 7.08966 11.2528 7.01922 11.5949 6.93147C10.6467 6.82191 9.68642 6.78223 8.73417 6.8085C8.38803 6.81744 8.03788 6.84819 7.69125 6.87446C7.57703 6.87893 7.45931 6.88732 7.3451 6.89179C7.23089 6.89626 7.13673 6.85658 7.04206 6.79062C6.87274 6.67659 6.96341 6.51841 7.08914 6.41277C7.84854 5.79793 8.5333 5.07351 9.25313 4.40612C9.99299 3.71694 10.7995 3.15016 11.5944 2.54873C13.3141 1.24023 14.6951 -0.256631 16.9182 0.0373774C18.4961 0.24363 19.9403 1.091 21.3288 1.88583C21.5493 2.01327 21.7616 2.14517 21.9625 2.30279C22.4309 2.67617 22.9027 3.0054 23.1507 3.6113C23.3946 4.1954 23.4417 4.85386 23.4853 5.49944C23.5249 6.08802 23.5484 6.68051 23.564 7.273C23.5875 8.27855 23.5915 9.28801 23.6191 10.2936C23.6231 10.3813 23.6271 10.4691 23.6271 10.5523C23.6311 10.6183 23.6311 10.6843 23.6116 10.7457C23.592 10.8072 23.5484 10.8553 23.5054 10.8995C23.4898 10.9123 23.4738 10.9257 23.4583 10.9391C23.2459 11.1147 23.0215 11.26 22.7815 11.374C22.7264 11.4047 22.6713 11.431 22.6122 11.4528C22.8757 11.4221 23.4032 11.3477 23.596 11.6546C23.7298 11.8609 23.7613 12.1023 23.7533 12.3483C23.7338 12.9324 23.7137 13.5204 23.7533 14.1045C23.7533 14.1218 23.7573 14.1397 23.7573 14.157C23.7929 14.5829 23.7728 15.0704 23.4663 15.3823C23.3957 15.4527 23.313 15.5142 23.2303 15.5667C23.1477 15.6192 23.061 15.6679 22.9784 15.7159C22.754 15.8478 22.5261 15.9664 22.2896 16.0714C21.8924 16.2469 21.4831 16.3789 21.0659 16.4711C21.2903 16.4621 21.5142 16.4493 21.7386 16.4403C22.1083 16.423 22.4745 16.4051 22.8441 16.3878C23.1903 16.3744 23.5955 16.3878 23.7924 16.7042C23.875 16.84 23.9026 17.0071 23.9221 17.1698C24.0248 17.9272 24.0093 18.7002 23.9697 19.4682Z" fill="url(#paint1_linear_13_5353)"/>
<path d="M23.7533 14.1073C23.1157 14.2521 22.4785 14.4058 21.8408 14.5902C19.6728 15.2096 17.4848 15.7847 15.2973 16.3292C11.7167 17.2207 7.88013 18.2301 4.14626 18.2872C3.87476 17.9182 3.59124 17.5538 3.31974 17.1765C7.25047 15.7188 11.4412 14.977 15.4115 13.6506C17.3946 12.9877 19.3342 12.1974 21.2623 11.3718C18.9094 11.5428 16.5721 11.9118 14.2113 12.0437C11.5198 12.1974 8.83238 12.5003 6.14092 12.6188C4.61011 12.6848 3.26864 12.7284 1.97375 12.4254C2.20218 11.8195 2.60341 11.2662 2.94554 10.757C3.59073 9.80451 4.41726 8.57482 5.40107 7.9555C5.90449 7.87222 6.40842 7.80179 6.90784 7.73136C9.44952 7.3714 12.0348 7.23054 14.5965 7.0813C17.3075 6.91865 19.9714 7.23948 22.6824 7.28308C22.9654 7.28755 23.2609 7.28309 23.5635 7.27414C23.587 8.2797 23.591 9.28916 23.6186 10.2947C23.6226 10.3825 23.6266 10.4702 23.6266 10.5535C23.6306 10.6195 23.6306 10.6854 23.6111 10.7469C23.5835 10.8302 23.5204 10.8872 23.4578 10.9403C23.1983 11.1555 22.9148 11.3265 22.6117 11.454C22.8752 11.4232 23.4027 11.3489 23.5955 11.6558C23.7293 11.862 23.7609 12.1035 23.7528 12.3494C23.7338 12.9352 23.7143 13.5238 23.7533 14.1073ZM19.6613 19.2446C16.9503 19.1876 14.2669 19.3894 11.599 19.912C11.5123 19.9294 11.5283 20.092 11.6185 20.0875C14.2508 19.8416 16.9188 19.8287 19.5316 20.3156C20.2634 20.4514 20.9873 20.6275 21.7076 20.8164C19.8978 21.2596 18.0759 21.5101 16.2265 21.6811C14.8099 21.813 13.3898 21.879 11.9692 21.9136C10.9894 21.9399 10.0055 21.9533 9.02573 21.9662H8.94708C8.82135 21.9706 8.69512 21.9706 8.56939 21.9706C8.09702 22.0058 7.68026 22.1506 7.96328 22.638C8.26634 23.1606 8.62801 23.648 9.02173 24.1092C11.3946 24.5088 13.7945 24.6888 16.2265 24.8028C18.2292 24.8995 20.2359 24.8816 22.2426 24.9476C22.5061 24.9565 22.77 24.9694 23.0255 24.9784C23.2459 24.6709 23.4227 24.3283 23.553 23.9555C23.7614 23.3496 23.8084 22.6867 23.848 22.0366C23.8716 21.5844 23.8911 21.1322 23.9111 20.6756C23.9267 20.2759 23.9502 19.8718 23.9702 19.4682C22.5141 19.3324 21.0464 19.2754 19.6613 19.2446Z" fill="url(#paint2_linear_13_5353)"/>
<path d="M6.6348 20.4887C7.02101 20.8224 7.43226 21.1198 7.87207 21.3663C7.21286 21.3948 6.57169 21.0784 6.04873 20.6296C5.41105 20.0824 4.52843 19.126 4.16226 18.3094C4.15825 18.3005 4.15023 18.296 4.14673 18.2876C3.87523 17.9187 3.59171 17.5543 3.32021 17.177C2.7181 16.3385 2.17109 15.4604 1.91562 14.4107C1.80141 13.9412 1.7463 13.4404 1.82895 12.9574C1.86051 12.7775 1.91161 12.5975 1.97473 12.4259C2.20315 11.82 2.60439 11.2666 2.94652 10.7574C3.59171 9.80496 4.41822 8.57527 5.40203 7.95596C5.51223 7.88162 5.62645 7.81565 5.74416 7.76255C6.07878 7.60884 6.43693 7.54737 6.79459 7.4993C8.04589 7.33273 9.32075 7.33272 10.564 7.1438C9.58023 7.44228 8.54532 7.70555 7.554 7.82852C6.9048 7.90733 6.24358 7.96043 5.63746 8.22816C5.02984 8.50205 4.84251 9.18062 4.43576 9.682C3.94285 10.289 3.36379 10.8698 2.85385 11.4785C2.76869 11.5802 2.68003 11.6892 2.65298 11.825C2.56231 12.2856 3.23755 12.3728 3.49352 12.4002C4.53243 12.5108 5.58086 12.5885 6.61526 12.7389C5.93501 12.64 5.26829 12.9071 4.58954 12.8971C3.85319 12.8859 3.213 12.8725 2.5067 13.1928C2.25223 13.3085 2.30684 13.4231 2.37346 13.6975C2.44409 13.9887 2.52223 14.2771 2.60788 14.5633C2.66699 14.7651 2.72962 14.9674 2.79674 15.1692C3.18345 16.3369 4.15724 17.5582 4.85853 18.5151C5.38801 19.2378 5.97458 19.9175 6.6348 20.4887Z" fill="#63433B"/>
<path d="M23.9698 19.4682C23.9503 19.8724 23.9267 20.2759 23.9107 20.6756C23.8911 21.1322 23.8711 21.5844 23.8476 22.0366C23.808 22.6861 23.7609 23.3496 23.5525 23.9555C23.4228 24.3289 23.2455 24.6709 23.025 24.9784C21.7697 26.7698 19.2476 27.5819 17.5279 28.4774C16.8592 28.82 16.1704 29.0833 15.407 29.0878C14.573 29.0922 13.7901 28.7144 13.1053 28.2141C12.7632 27.9637 12.393 27.6787 12.106 27.3533C11.1497 26.2511 9.98906 25.2545 9.02127 24.1086C8.62755 23.6475 8.26588 23.1601 7.96282 22.6375C7.6798 22.1501 8.09658 22.0053 8.56895 21.9701C8.69468 21.9701 8.82091 21.9701 8.94664 21.9656H9.02528C9.22214 21.9746 9.38745 21.9874 9.46209 21.9919C9.77316 22.0053 10.0837 22.0271 10.3948 22.0489C10.0602 22.1149 9.72608 22.1763 9.415 22.1981C9.32434 22.2071 9.23017 22.2155 9.14351 22.2596C9.00976 22.3301 8.93112 22.4877 8.89956 22.6503C8.81691 23.1288 9.12397 23.5681 9.415 23.9281C10.757 25.5614 12.2637 27.0319 13.8967 28.3013C14.4828 28.7535 15.2152 28.6876 15.9195 28.5562C18.2963 28.1169 20.5545 26.9358 22.3804 25.184C22.8092 24.776 22.9038 24.1522 23.0531 23.5463C23.4704 21.8561 23.6667 20.1043 23.6432 18.352C23.6392 18.0356 23.6237 17.7064 23.4779 17.4387C23.1358 16.8065 22.3012 16.8372 21.7387 16.4421C22.1084 16.4247 22.4745 16.4069 22.8442 16.3895C23.1904 16.3761 23.5956 16.3895 23.7925 16.7059C23.8751 16.8417 23.9027 17.0088 23.9222 17.1715C24.0249 17.9272 24.0094 18.7002 23.9698 19.4682Z" fill="#63433B"/>
<path d="M23.4663 15.385C23.3957 15.4554 23.313 15.5169 23.2303 15.5694C23.2424 15.4906 23.2774 15.4029 23.2935 15.3324C23.329 15.1877 23.3601 15.0384 23.3881 14.8937C23.4472 14.6041 23.4863 14.3096 23.5139 14.0111C23.5454 13.6729 23.5569 13.3303 23.5494 12.9882C23.5454 12.7864 23.5299 12.5757 23.4548 12.3913C23.329 12.0794 23.0455 11.8865 22.774 11.711C22.6323 11.6188 22.4905 11.5266 22.3452 11.4343C22.491 11.417 22.6363 11.3946 22.782 11.3773C22.7269 11.4081 22.6718 11.4343 22.6127 11.4561C22.8762 11.4254 23.4037 11.351 23.5965 11.6579C23.7303 11.8642 23.7618 12.1056 23.7538 12.3516C23.7343 12.9357 23.7142 13.5237 23.7538 14.1078C23.7538 14.1251 23.7578 14.143 23.7578 14.1603C23.7929 14.5863 23.7733 15.0737 23.4663 15.385Z" fill="#63433B"/>
<path d="M23.6121 10.7486C23.5926 10.8101 23.549 10.8582 23.5059 10.9023C23.4428 8.94825 23.1282 7.01205 22.8137 5.08479C22.7696 4.81649 22.729 4.54203 22.6554 4.281C22.6058 4.10494 22.5036 3.93502 22.432 3.76678C21.9676 2.67291 20.7904 2.33865 19.8622 1.9077C18.6019 1.32248 16.754 0.129688 15.3599 0.613181C14.7493 0.825023 14.2153 1.24312 13.6994 1.66401C12.7937 2.40238 11.9071 3.16982 10.9874 3.88695C10.1178 4.56496 8.98371 5.06186 8.22732 5.88855C8.03446 6.09928 7.70385 6.45477 7.6803 6.77114C7.6763 6.80635 7.68031 6.84156 7.69183 6.87678C7.57762 6.88125 7.4599 6.88964 7.34569 6.89411C7.23148 6.89858 7.13731 6.8589 7.04264 6.79294C6.87333 6.67891 6.96399 6.52073 7.08972 6.41509C7.84912 5.80025 8.53389 5.07585 9.25371 4.40846C9.99357 3.71927 10.8 3.15248 11.595 2.55105C13.3147 1.24255 14.6957 -0.254311 16.9188 0.0396967C18.4967 0.24595 19.9409 1.09332 21.3294 1.88815C21.5498 2.01559 21.7622 2.1475 21.9631 2.30513C22.4315 2.67851 22.9033 3.00771 23.1513 3.61362C23.3952 4.19772 23.4423 4.85618 23.4859 5.50176C23.5255 6.09034 23.549 6.68283 23.5645 7.27532C23.5881 8.28087 23.5921 9.29033 23.6196 10.2959C23.6236 10.3836 23.6277 10.4714 23.6277 10.5547C23.6317 10.6212 23.6317 10.6871 23.6121 10.7486Z" fill="#63433B"/>
<defs>
<linearGradient id="paint0_linear_13_5353" x1="26.2498" y1="-5.67873" x2="22.1984" y2="0.0468876" gradientUnits="userSpaceOnUse">
<stop stop-color="#EB924D"/>
<stop offset="1" stop-color="#8A5537"/>
</linearGradient>
<linearGradient id="paint1_linear_13_5353" x1="18.1126" y1="-1.13217" x2="-0.910353" y2="54.0363" gradientUnits="userSpaceOnUse">
<stop stop-color="#B7724B"/>
<stop offset="1" stop-color="#8A5537"/>
</linearGradient>
<linearGradient id="paint2_linear_13_5353" x1="15.4567" y1="7.12619" x2="0.447318" y2="56.8144" gradientUnits="userSpaceOnUse">
<stop stop-color="#EB924D"/>
<stop offset="1" stop-color="#8A5537"/>
</linearGradient>
</defs>
</svg>
