<svg width="220" height="220" viewBox="0 0 220 220" fill="none" xmlns="http://www.w3.org/2000/svg">
<path d="M113.407 89.8074V220L101.406 213.803L28.5563 173.781L17.469 167.691L15.6571 150.933L7.98999 80.0287L7.7305 77.1742L3.94824 35.7468L113.407 89.8074Z" fill="#F7971D"/>
<path d="M113.407 89.8074V132.165L7.7305 77.1742L3.94824 35.7468L113.407 89.8074Z" fill="#D57B28"/>
<path d="M215.884 50.091L212.002 86.564L204.098 160.791L202.492 175.867L191.579 181.273L125.356 214.084L113.407 220V89.8073L215.884 50.091Z" fill="#BB6028"/>
<path d="M215.884 50.091L212.002 86.564L113.407 132.165V89.8073L215.884 50.091Z" fill="#934120"/>
<path d="M113.409 89.8088C113.409 89.8088 109.597 159.967 113.407 220C115.032 190.371 114.633 97.8664 113.409 89.8088Z" fill="#934120"/>
<path d="M28.5562 173.781L17.4689 167.691L15.657 150.933L28.5562 173.781Z" fill="#D57B28"/>
<path d="M113.407 202.332V220L101.406 213.804L112.96 201.895L113.407 202.332Z" fill="#D57B28"/>
<path d="M125.356 214.084L113.407 220V202.332L125.356 214.084Z" fill="#934120"/>
<path d="M204.098 160.791L202.492 175.867L191.579 181.273L204.098 160.791Z" fill="#934120"/>
<path d="M0 36.5745L109.512 0L220 47.2122L113.409 89.8088L0 36.5745Z" fill="#F7A246"/>
<path d="M113.407 89.9188V95.7266L113.395 125.257L113.376 125.245L112.673 124.862L75.3057 104.42L73.8815 96.2955C73.6491 94.9747 72.7862 93.8269 71.5491 93.1879L26.3189 69.7898C25.6505 69.4396 24.8238 69.867 24.7665 70.5874L24.3425 75.7662L2.42596 63.6076L0.224796 38.6128L0 36.5759L112.798 89.6172L113.407 89.9188Z" fill="#F7971D"/>
<path d="M219.97 47.1793L219.706 49.0804L219.469 50.7571L215.673 77.7516L192.239 87.7032L190.654 83.3892C190.228 82.22 188.823 81.6611 187.639 82.1871L152.327 97.9178C150.801 98.5982 149.738 99.959 149.496 101.544L148.39 108.9L113.982 125.01L113.377 125.293V125.245L113.409 95.7265V92.9235L113.413 89.8445L113.996 89.6058L219.97 47.1793Z" fill="#D57B28"/>
<path d="M219.97 47.1793L219.706 49.0804L113.407 92.9235L113.412 89.8445L113.994 89.6058L219.97 47.1793Z" fill="#BB6028"/>
<path d="M113.407 89.9188V92.9235L0.226261 38.6114L0.00146484 36.5745L112.798 89.6172L113.407 89.9188Z" fill="#D57B28"/>
</svg>
