<svg width="86" height="80" viewBox="0 0 86 80" fill="none" xmlns="http://www.w3.org/2000/svg">
<path d="M42.6785 73.2006C62.444 73.2006 78.4672 58.2529 78.4672 39.814C78.4672 21.3751 62.444 6.42737 42.6785 6.42737C22.9129 6.42737 6.88977 21.3751 6.88977 39.814C6.88977 58.2529 22.9129 73.2006 42.6785 73.2006Z" fill="url(#paint0_linear_13_5746)"/>
<path opacity="0.5" d="M42.6785 9.64102C60.513 9.64102 75.0223 23.1765 75.0223 39.814C75.0223 56.4515 60.513 69.987 42.6785 69.987C24.844 69.987 10.3346 56.4515 10.3346 39.814C10.3346 23.1765 24.844 9.64102 42.6785 9.64102ZM42.6785 6.42737C22.9127 6.42737 6.88977 21.3753 6.88977 39.814C6.88977 58.2527 22.9131 73.2006 42.6785 73.2006C62.4438 73.2006 78.4672 58.2527 78.4672 39.814C78.4672 21.3753 62.4438 6.42737 42.6785 6.42737Z" fill="white"/>
<path d="M42.6784 6.42731C62.4442 6.42731 78.4671 21.3752 78.4671 39.8139C78.4671 58.2527 62.4438 73.2006 42.6784 73.2006C22.9131 73.2006 6.88973 58.2527 6.88973 39.8139C6.88973 21.3752 22.9127 6.42731 42.6784 6.42731ZM42.6784 0C19.1453 0 0 17.8607 0 39.8139C0 61.7672 19.1457 79.6279 42.6784 79.6279C66.2116 79.6279 85.3569 61.7672 85.3569 39.8139C85.3569 17.8607 66.2112 0 42.6784 0Z" fill="#522D22"/>
<path d="M48.8435 24.0172L42.6863 31.4347L35.9731 25.1721C33.4467 22.8153 29.3499 22.8153 26.8235 25.1721L23.8963 27.9029C21.1408 30.4739 21.4289 34.7171 24.5099 36.9429L33.0148 43.0866L28.7531 48.2209C26.7585 50.6239 26.9902 54.0352 29.2935 56.1839C31.8199 58.5407 35.9167 58.5407 38.4431 56.1839L43.9867 51.0123L50.454 55.6846C53.0295 57.5453 56.6866 57.3292 58.99 55.1804C61.5163 52.8232 61.5163 49.0018 58.99 46.645L53.8291 41.8305L61.4604 34.7115C63.9867 32.3542 63.9867 28.5328 61.4604 26.176L58.5331 23.4452C55.778 20.8743 51.2295 21.1426 48.8435 24.0172Z" fill="white"/>
<defs>
<linearGradient id="paint0_linear_13_5746" x1="42.6783" y1="73.2009" x2="42.6783" y2="6.42737" gradientUnits="userSpaceOnUse">
<stop stop-color="#522D22"/>
<stop offset="1" stop-color="#5D3527"/>
</linearGradient>
</defs>
</svg>
