<svg width="20" height="20" viewBox="0 0 20 20" fill="none" xmlns="http://www.w3.org/2000/svg">
<path d="M19.7965 2.85262C19.6812 1.35992 18.4122 0.188335 16.8594 0.128172C12.4883 -0.0405706 8.13651 -0.0434162 3.80428 0.123902C3.49045 0.136006 3.17922 0.194748 2.88387 0.29763C2.73712 0.348894 2.59481 0.410836 2.45804 0.483103C1.78529 0.838743 1.32804 1.4564 0.972809 2.0947C0.600209 2.76433 0.219851 3.508 0.172167 4.27766C0.133354 4.90244 0.102666 5.52793 0.078639 6.15341C0.0760515 6.22105 0.0734728 6.28512 0.0830835 6.35205C0.0886282 6.38943 0.0919518 6.42504 0.0889946 6.46313C0.0723606 6.6632 0.0845576 6.84262 0.193972 7.02026C0.25829 7.12492 0.348116 7.21571 0.457161 7.27836C0.445332 7.2716 0.355139 7.35525 0.34405 7.36558C0.307455 7.39869 0.27345 7.43464 0.2424 7.47273C0.1803 7.54927 0.130023 7.6347 0.0934279 7.72513C0.0568332 7.81555 0.0331769 7.91096 0.0250447 8.00779C-0.00748394 8.39654 0.000650117 8.78671 0.00619477 9.17617C0.0106305 9.5133 -0.0233801 9.87214 0.0328058 10.2054C0.0468522 10.289 0.0342859 10.3745 0.0505502 10.4588C0.0864056 10.6475 0.178442 10.8219 0.269744 10.9907C0.117451 11.1448 0.0509239 11.3631 0.0431614 11.5759C0.0339203 11.8244 0.0819678 12.0644 0.0645946 12.3161C0.0180195 12.9839 0.0579398 13.672 0.102667 14.3395C0.107842 14.4175 0.120038 14.4933 0.137411 14.5695C0.180659 14.7578 0.184357 14.9526 0.293772 15.1206C0.341826 15.1943 0.403557 15.2598 0.477116 15.3107C0.403557 15.3036 0.349221 15.3734 0.314844 15.4364C0.102299 15.8297 0.102296 16.1362 0.186944 16.5574C0.27492 16.996 0.249785 17.4164 0.415016 17.844C0.552524 18.1996 0.760267 18.5296 1.02419 18.8116C1.56757 19.3922 2.33827 19.7507 3.1489 19.7959C7.75022 20.0515 12.1815 20.075 16.4106 19.8212C16.4291 19.8201 16.4479 19.8187 16.4664 19.8172C16.9795 19.7777 17.4796 19.615 17.9117 19.3456C18.3331 19.0828 18.6865 18.7222 18.9345 18.3018C19.221 17.8155 19.3559 17.243 19.4993 16.7055C19.5881 16.3733 19.7278 15.9558 19.689 15.6001C19.6672 15.3997 19.7263 15.2028 19.7163 15.0013C19.7052 14.7738 19.6443 14.5482 19.5356 14.346C19.5223 14.3214 19.5079 14.2957 19.5067 14.268C19.5042 14.2021 19.5714 14.1573 19.625 14.1163C19.7474 14.0227 19.8302 13.8835 19.8561 13.7351C19.8623 13.6987 19.8675 13.6617 19.8601 13.6254C19.8472 13.5624 19.8509 13.509 19.8542 13.4417C19.8782 12.9789 19.8993 12.5158 19.9178 12.0526C19.9378 11.545 19.9544 11.037 19.9666 10.529C19.9788 10.0277 19.9873 9.52647 19.9917 9.02523C19.9958 8.53111 19.9962 8.03662 19.9917 7.5425C19.9895 7.29793 19.9862 7.05372 19.9817 6.80951C19.9795 6.68811 19.9769 6.56672 19.9743 6.44497C19.9718 6.32927 19.9529 6.20254 19.9673 6.08755C19.9725 6.04661 19.9847 6.016 19.9788 5.97363C19.9721 5.92451 19.9596 5.87538 19.9451 5.82767C19.9163 5.73191 19.8745 5.63971 19.8221 5.55356C19.7696 5.46741 19.706 5.38766 19.6332 5.31682C19.6132 5.29724 19.4143 5.11852 19.3944 5.13632C19.455 5.08185 19.5093 5.02098 19.5566 4.95548C19.679 4.78531 19.754 4.58738 19.8017 4.3866C19.8261 4.28407 19.8376 4.18048 19.8561 4.07688C19.8598 4.05659 19.8679 4.03844 19.8723 4.0185C19.8882 3.94552 19.8679 3.85937 19.8631 3.78568C19.8424 3.4749 19.8206 3.16376 19.7965 2.85262Z" fill="url(#paint0_linear_13_6055)"/>
<path d="M19.9983 6.28984C19.9958 6.81316 19.9906 7.33397 19.988 7.85729C19.9854 8.10649 19.9854 8.35854 19.9828 8.61023C19.9828 8.74586 19.9802 8.87936 19.9802 9.01499C19.9725 9.72592 19.9621 10.4368 19.9418 11.1478C19.934 11.5009 19.9237 11.8537 19.9085 12.2069C19.9007 12.419 19.9033 12.6141 19.8316 12.8142C19.7496 13.0363 19.7573 13.3055 19.7292 13.5376C19.7189 13.6116 19.7063 13.6906 19.6498 13.7426C19.5984 13.7921 19.5189 13.8021 19.4472 13.8067C19.3267 13.8192 19.2036 13.8313 19.0831 13.8437C18.3834 13.9128 17.681 13.9769 16.9787 13.9943C16.4583 14.0043 15.9356 13.9893 15.4151 13.9327C15.8099 13.9893 16.2047 14.0463 16.5995 14.1029C16.7122 14.1203 16.8224 14.1349 16.9351 14.1524C17.7398 14.2684 18.5449 14.382 19.3496 14.498C19.4213 14.5105 19.5008 14.5226 19.5548 14.5696C19.6368 14.6387 19.6394 14.7572 19.6368 14.8608C19.6291 15.0189 19.6113 15.1719 19.5854 15.3275C19.5418 15.6362 19.4805 15.9423 19.4675 16.2556C19.4649 16.3197 19.4753 16.3841 19.4649 16.4482C19.4317 16.6433 19.2805 16.8334 19.1652 16.9886C18.6295 17.712 17.7709 18.1733 16.8508 18.2278C12.6883 18.4795 8.32573 18.4549 3.79427 18.2033C3.14074 18.1662 2.51014 17.9241 2.00779 17.5169C1.70801 17.2727 1.43114 16.9615 1.26185 16.6184C1.18496 16.4603 1.16463 16.2851 1.08996 16.1246C1.07444 16.0901 1.05928 16.058 1.04893 16.021C1.02342 15.9174 1.0334 15.7989 1.1284 15.7298C1.2282 15.6533 1.36941 15.6458 1.49768 15.6408C2.93818 15.5938 4.37867 15.5076 5.81918 15.4681H5.8628C6.3012 15.4557 6.7444 15.4482 7.1828 15.4482C7.02127 15.4236 6.85972 15.4037 6.6956 15.3866C5.95225 15.3001 5.20114 15.273 4.45298 15.246C4.44263 15.246 4.43524 15.2435 4.42747 15.2435H4.41971C3.51741 15.2115 2.6177 15.1744 1.72575 15.0384C1.55645 15.0114 1.37976 14.9769 1.22599 14.9078C1.11324 14.8583 1.01344 14.7868 0.941364 14.6881C0.936189 14.6807 0.931017 14.6707 0.925842 14.6636C0.823451 14.508 0.782419 14.2759 0.815687 14.1007C0.856717 13.8982 0.831203 13.701 0.820853 13.4884C0.800523 13.1207 0.779833 12.7505 0.76172 12.3824C0.748783 12.1798 0.738792 11.9801 0.728442 11.7775C0.723267 11.6664 0.718094 11.5429 0.792392 11.4568C0.851535 11.3902 0.948757 11.3653 1.03858 11.3432C1.32062 11.2741 1.60266 11.2076 1.8895 11.1656C2.01777 11.1435 2.14566 11.1285 2.27392 11.1211C1.94309 11.0495 1.61523 10.978 1.2844 10.9064C1.18459 10.8843 1.08441 10.8619 0.994586 10.8149C0.974256 10.8049 0.953561 10.7928 0.933231 10.7804C0.769109 10.6668 0.730665 10.5112 0.705159 10.3436C0.697397 10.2866 0.689634 10.23 0.679654 10.1734C0.656736 10.0424 0.638627 9.91174 0.626059 9.7786C0.602772 9.57604 0.592787 9.37383 0.582437 9.17376C0.562107 8.73197 0.538825 8.16416 0.828626 7.79393C0.933604 7.66079 1.12101 7.63088 1.28994 7.6113C1.96158 7.53476 2.63286 7.4657 3.3045 7.41123C3.44274 7.39877 3.58394 7.38666 3.72219 7.37669C4.40122 7.32472 5.08063 7.28307 5.76263 7.25317C4.94239 7.2877 4.11956 7.27773 3.29932 7.22362C2.78404 7.19158 2.27134 7.14209 1.75902 7.07801C1.54352 7.04847 1.3232 7.01643 1.1284 6.92245C1.12322 6.91996 1.11805 6.91746 1.11287 6.91497C1.06149 6.89289 1.01308 6.863 0.96687 6.82847C0.864478 6.75193 0.784999 6.64334 0.741381 6.52729C0.695176 6.40127 0.718472 6.30016 0.736215 6.17414C0.74139 6.12715 0.736215 6.08265 0.736215 6.03601C0.725865 5.75727 0.74915 5.47319 0.756542 5.19409C0.761717 5.05098 0.766894 4.90787 0.774287 4.7644C0.794987 4.13998 0.82566 3.5177 0.864103 2.89578C0.959102 1.38493 2.23289 0.185224 3.80388 0.126128C8.13573 -0.0419018 12.4879 -0.0394139 16.8578 0.128616C18.2625 0.183084 19.4849 1.19019 19.7492 2.52055C19.8313 2.9303 19.8594 3.3721 19.7773 3.78434C19.7566 3.88794 19.7311 3.9894 19.6901 4.08801C19.6671 4.14248 19.6287 4.25817 19.5747 4.30267C19.5721 4.30766 19.567 4.31014 19.5644 4.31263C19.5285 4.33471 19.4746 4.3397 19.4335 4.34717C19.1774 4.40627 18.9208 4.45824 18.6621 4.50274C18.1494 4.59173 17.6293 4.65332 17.1088 4.69782C17.1063 4.69782 17.1062 4.69782 17.1037 4.69782C16.0554 4.78682 15.0019 4.80142 13.951 4.81886H13.9203C14.2075 4.8363 14.4969 4.8509 14.7842 4.86835C15.5659 4.91035 16.3477 4.95734 17.1269 5.00149C17.6474 5.03103 18.1675 5.05845 18.688 5.088C19.0033 5.10793 19.3311 5.12751 19.6006 5.28309C19.6032 5.28309 19.6032 5.28557 19.6058 5.28557C19.9828 5.50487 20.0031 5.90964 19.9983 6.28984Z" fill="url(#paint1_linear_13_6055)"/>
<path d="M19.9995 6.28866C19.9969 6.81198 19.9917 7.33281 19.9891 7.85612C19.9865 8.10532 19.9865 8.35736 19.984 8.60905C19.984 8.74468 19.9814 8.87819 19.9814 9.01382C17.9772 9.13985 15.97 9.30752 13.958 9.42606C11.6178 9.56419 9.27501 9.71477 6.93517 9.85788C5.67394 9.93442 4.42344 10.0281 3.16739 10.164C2.32682 10.2555 1.52432 10.3887 0.706669 10.3417C0.698907 10.2847 0.691144 10.2281 0.681164 10.1712C0.658246 10.0405 0.640135 9.90951 0.627197 9.77637C1.45779 9.60834 2.28801 9.63574 3.16739 9.60833C4.34656 9.57131 5.51018 9.49228 6.68417 9.38868C9.02697 9.179 11.3694 8.959 13.7096 8.70233C15.1039 8.54676 16.5008 8.41111 17.8977 8.26053C17.8515 8.25803 17.8053 8.25554 17.7594 8.25305C15.4706 8.13201 13.2202 7.72475 10.9388 7.52718C8.67545 7.33209 6.40953 7.16193 4.13881 7.03092C3.22136 6.97646 2.16788 6.9914 1.12955 6.91985C1.12437 6.91736 1.11919 6.91487 1.11401 6.91237C1.06263 6.8903 1.01421 6.86039 0.968008 6.82586C0.865616 6.74932 0.786148 6.64075 0.74253 6.5247C0.696325 6.39868 0.71961 6.29757 0.737353 6.17155C0.742528 6.12456 0.737353 6.08006 0.737353 6.03342C0.727003 5.75432 0.750287 5.47058 0.75768 5.19148C0.762855 5.04837 0.768034 4.90527 0.775797 4.76215C1.92909 4.70057 3.11601 4.77462 4.13881 4.78423C6.40953 4.80417 8.67286 4.91025 10.9388 5.03841C13.2125 5.16692 15.4858 5.11495 17.7594 5.21855C18.3745 5.2456 18.9922 5.26803 19.6073 5.28262C19.984 5.5037 20.0043 5.90846 19.9995 6.28866ZM12.4791 11.4107C8.61113 11.5884 4.53581 11.4232 0.762858 12.3808C0.780971 12.7486 0.8013 13.1188 0.82163 13.4866C0.83198 13.6987 0.857483 13.8963 0.816452 14.0989C0.783184 14.274 0.824216 14.5061 0.926608 14.6617C2.06733 14.9504 3.23614 15.1284 4.42011 15.242C4.43046 15.242 4.44045 15.2445 4.45338 15.2445C5.19674 15.316 5.94526 15.358 6.69601 15.3851C8.63368 15.4541 10.5843 15.4121 12.4783 15.4296C14.8467 15.4516 17.2175 15.405 19.5859 15.326C19.6114 15.1704 19.6295 15.0173 19.6372 14.8593C19.6398 14.7557 19.6372 14.6371 19.5552 14.5681C19.5012 14.5211 19.4217 14.509 19.35 14.4965C18.4326 14.3659 17.5173 14.2349 16.5999 14.1017C16.2051 14.0448 15.8103 13.9882 15.4155 13.9312C16.6357 14.0647 17.8633 13.9632 19.0835 13.8422C19.204 13.8297 19.3271 13.8176 19.4476 13.8052C19.5193 13.8002 19.5988 13.7902 19.6502 13.7411C19.7067 13.6891 19.7193 13.6104 19.7296 13.536C19.7577 13.3039 19.7503 13.0348 19.832 12.8127C19.9037 12.6126 19.9012 12.4179 19.9089 12.2053C19.9244 11.8522 19.9344 11.4994 19.9422 11.1462C17.4567 11.2231 14.9653 11.2975 12.4791 11.4107Z" fill="url(#paint2_linear_13_6055)"/>
<path d="M0.942602 14.6867C0.829861 14.5311 0.781069 14.2844 0.816925 14.0993C0.857955 13.8967 0.832453 13.6995 0.822103 13.4869C0.788835 12.9166 0.760742 12.3463 0.729692 11.7764C0.724517 11.6653 0.719343 11.5418 0.793642 11.4556C0.852415 11.3891 0.949995 11.3641 1.03982 11.3421C1.32186 11.273 1.60353 11.2064 1.89074 11.1644C1.7292 11.2855 1.57285 11.3816 1.38322 11.4731C1.31669 11.5051 1.24756 11.5372 1.19876 11.5916C1.14738 11.6482 1.12706 11.7273 1.10895 11.8013C0.947412 12.5172 1.03465 13.2627 1.12447 13.991C1.16291 14.2947 1.19877 14.6009 1.22686 14.907C1.11412 14.8568 1.01431 14.7853 0.942602 14.6867Z" fill="#C69C6D"/>
<path d="M0.680874 10.1715C0.622101 9.84323 0.598813 9.50254 0.583658 9.17181C0.563328 8.73002 0.540046 8.16222 0.829846 7.79198C0.934825 7.65884 1.12186 7.62894 1.29116 7.60936C2.10105 7.51537 2.91094 7.4367 3.72379 7.37476C2.95493 7.62146 2.07037 7.62395 1.3248 7.92761C1.18914 7.98172 1.05053 8.05364 0.973641 8.17432C0.92226 8.25585 0.901921 8.35197 0.886396 8.44595C0.840191 8.73965 0.804345 9.02123 0.822458 9.31493C0.835395 9.50503 0.85055 9.69514 0.868663 9.88524C0.899343 10.1964 0.942956 10.505 0.996924 10.8133C0.976593 10.8034 0.955899 10.7912 0.935568 10.7788C0.717109 10.6282 0.721905 10.3986 0.680874 10.1715Z" fill="#C69C6D"/>
<path d="M16.4673 14.0448C16.5006 14.0598 16.5338 14.0744 16.5671 14.0868C16.5316 14.0793 16.4983 14.0672 16.4673 14.0448Z" fill="#C69C6D"/>
<path d="M19.6379 14.8594C19.6172 15.3307 19.4867 15.785 19.4686 16.2542C19.466 16.3182 19.4764 16.3827 19.466 16.4468C19.4328 16.6418 19.2816 16.8319 19.1662 16.9871C18.6306 17.7105 17.7719 18.1719 16.8515 18.2264C12.689 18.4781 8.32644 18.4535 3.79498 18.2018C3.14145 18.1648 2.51083 17.9227 2.00849 17.5154C1.70871 17.2712 1.43184 16.9601 1.26255 16.6169C1.18566 16.4589 1.16496 16.2837 1.09066 16.1231C1.07514 16.0886 1.05999 16.0566 1.04964 16.0196C1.02413 15.916 1.03411 15.7974 1.12911 15.7284C1.22891 15.6518 1.37011 15.6443 1.49801 15.6394C2.93851 15.5924 4.37901 15.5062 5.81951 15.4667C4.55348 15.5358 3.29226 15.7063 2.04398 15.9209C1.87246 15.948 1.68764 15.9629 1.5213 16.0099C1.4958 16.0174 1.46733 16.0199 1.447 16.042C1.41631 16.074 1.42409 16.1185 1.42926 16.1605C1.44701 16.3036 1.52907 16.4222 1.61889 16.5358C1.91091 16.9035 2.21623 17.2862 2.64169 17.5033C3.66967 18.0267 4.71798 17.9501 5.88161 17.9231C6.12188 17.9174 6.35476 17.9213 6.58874 17.8811C6.70961 17.8601 6.84824 17.8818 6.97059 17.885C7.24302 17.8924 7.51507 17.8996 7.7875 17.907C8.33198 17.9216 8.87647 17.9366 9.42096 17.9512C10.4393 17.9786 11.4577 18.0064 12.4757 18.0338C13.4456 18.0601 14.4182 18.0822 15.3866 18.0064C16.344 17.9313 17.301 17.7565 18.1863 17.3884C18.2595 17.3581 18.3412 17.331 18.4055 17.2851C18.4525 17.2517 18.489 17.21 18.5386 17.179C18.6857 17.0868 18.8269 16.9978 18.9559 16.8811C19.0431 16.802 19.1637 16.7034 19.2095 16.5924C19.235 16.5333 19.2479 16.4638 19.2709 16.4023C19.3348 16.2321 19.3658 16.0541 19.3784 15.874C19.3913 15.6764 19.381 15.4767 19.3581 15.2791C19.3477 15.1926 19.3607 15.0274 19.3067 14.9533C19.276 14.9113 19.2043 14.8768 19.1555 14.8547C19.0298 14.7931 18.889 14.7682 18.7504 14.7437C18.0122 14.6105 17.287 14.3955 16.5998 14.1018C17.5173 14.2349 18.4325 14.3659 19.35 14.4966C19.4217 14.5091 19.5011 14.5212 19.5551 14.5682C19.6379 14.6372 19.6405 14.7558 19.6379 14.8594Z" fill="#C69C6D"/>
<path d="M0.758754 6.52229C0.719202 6.3774 0.723271 6.22432 0.727337 6.07409C0.747298 5.34395 0.766892 4.61379 0.809031 3.88471C0.847844 3.21508 0.83453 2.50986 1.11879 1.88758C1.58602 0.865155 2.64653 0.169537 3.80573 0.12575C8.13758 -0.0419244 12.4898 -0.0397925 16.8597 0.128238C18.2643 0.182705 19.4868 1.18983 19.751 2.52018C19.8331 2.92994 19.8612 3.37172 19.7791 3.78397C19.7588 3.88756 19.7329 3.98902 19.6919 4.08763C19.669 4.14174 19.6305 4.25779 19.5766 4.30229C19.4868 3.63338 19.656 2.89789 19.4073 2.26814C19.2587 1.88544 19.0458 1.51022 18.7075 1.26102C17.5931 0.429413 15.9496 0.485664 14.6104 0.462169C10.9147 0.397021 7.23935 0.283456 3.55438 0.604565C3.38508 0.619517 3.21873 0.560061 3.05461 0.587117C2.69051 0.646212 2.33676 0.885804 2.07025 1.12041C1.70356 1.44365 1.4219 1.85838 1.24743 2.30765C1.19864 2.4383 1.15501 2.5718 1.11916 2.70744C0.761343 4.0289 0.915123 5.55967 1.08368 6.89857C0.925473 6.84873 0.814941 6.70456 0.766887 6.55113C0.76393 6.54151 0.761341 6.53191 0.758754 6.52229Z" fill="#C69C6D"/>
<path d="M19.9993 6.28867C19.9967 6.81199 19.9915 7.33281 19.9889 7.85613C19.9863 8.10533 19.9863 8.35737 19.9838 8.60906C19.976 9.80876 19.9583 11.0085 19.9095 12.2057C19.9017 12.4179 19.9043 12.613 19.8326 12.813C19.7505 13.0352 19.7583 13.3043 19.7302 13.5364C19.7198 13.6104 19.7073 13.6895 19.6507 13.7415C19.5993 13.7909 19.5198 13.8006 19.4481 13.8055C19.3276 13.818 19.2045 13.8301 19.084 13.8426C19.1532 13.7956 19.2097 13.734 19.2507 13.655C19.3099 13.5389 19.3225 13.4082 19.3328 13.2797C19.5099 11.164 19.5224 9.04623 19.4611 6.92841C19.4533 6.64931 19.4433 6.36807 19.4304 6.08897C19.4278 6.02489 19.4408 5.96294 19.433 5.90136C19.4226 5.81734 19.379 5.7408 19.3228 5.67423C19.1972 5.52863 19.0101 5.43714 18.8257 5.37804C17.4827 4.94373 15.9805 5.2595 14.6221 4.86719H14.7862C16.0884 4.93874 17.3877 5.01528 18.69 5.08684C19.0053 5.10677 19.3332 5.12636 19.6026 5.28193C19.9838 5.49873 20.0041 5.90598 19.9993 6.28867Z" fill="#C69C6D"/>
<path d="M16.5995 14.1028C16.7122 14.1203 16.8224 14.1349 16.9351 14.1523C16.8712 14.3645 16.7814 14.5596 16.6479 14.7251C16.1045 15.399 15.0895 15.52 14.29 15.5645C12.9315 15.6386 11.5782 15.7151 10.2198 15.7077C8.75638 15.7002 7.32106 15.567 5.86245 15.4681C6.30084 15.4556 6.74405 15.4481 7.18245 15.4481C7.02091 15.4236 6.85938 15.4036 6.69526 15.3865C5.95191 15.3 5.20078 15.273 4.45263 15.2459C4.44228 15.2459 4.43488 15.2434 4.42712 15.2434H4.41936C4.36022 15.2285 4.29885 15.2114 4.23749 15.194C4.11181 15.1569 3.98613 15.1174 3.87857 15.0459C3.6298 14.8757 3.52999 14.5621 3.44534 14.2734C3.25313 13.6144 3.32485 12.9576 3.36329 12.2862C3.40432 11.5678 3.40691 10.8469 3.39397 10.1288C3.37623 9.22782 3.33261 8.31434 3.30415 7.41117C3.44239 7.39871 3.5836 7.3866 3.72184 7.37664C4.06783 7.34958 4.41381 7.32715 4.7598 7.30757C4.76756 8.49482 4.83928 9.68492 4.88807 10.8697C4.89288 10.9978 4.87366 11.1249 4.88992 11.2524C4.89916 11.3257 4.88918 11.3702 4.94056 11.4304C5.01412 11.5165 5.22001 11.6055 5.34717 11.6255C5.49318 11.6486 5.65212 11.6326 5.79961 11.6333C6.12453 11.6344 6.44982 11.6354 6.77473 11.6368C6.45721 11.686 6.13673 11.7187 5.81551 11.7347C5.67911 11.7415 5.51018 11.718 5.38044 11.7597C5.25365 11.8006 5.1239 11.8202 4.99415 11.8526C4.95719 11.8618 4.91801 11.8729 4.8925 11.9006C4.87106 11.9238 4.86219 11.9551 4.85664 11.9857C4.83151 12.1171 4.84852 12.252 4.88474 12.3802C4.91283 12.4795 4.95164 12.5681 4.94166 12.6728C4.91801 12.9213 4.95497 13.174 4.99526 13.42C5.01078 13.514 5.01337 13.5927 5.07215 13.6742C5.19524 13.8397 5.41554 13.9309 5.61035 13.9829C7.11738 14.3826 8.70131 14.4001 10.2649 14.4172C11.1875 14.4271 12.1102 14.4368 13.0332 14.4097C13.6638 14.3901 14.8093 14.5133 15.3527 14.1406C15.4296 14.0886 15.4935 14.0245 15.5475 13.953C15.8998 14.0014 16.2483 14.0533 16.5995 14.1028ZM4.76275 6.54148C4.76793 6.28801 4.79085 6.03845 4.81414 5.78641C4.81783 5.7444 4.81783 5.70346 4.81229 5.66181C4.80194 5.58135 4.80157 5.51621 4.82375 5.43611C4.87254 5.26131 4.95571 5.07655 5.13019 4.98755C5.24625 4.92845 5.38265 4.92276 5.51387 4.9192C6.16038 4.9014 6.80725 4.89962 7.45413 4.91386C6.9407 4.86117 6.42726 4.80848 5.91383 4.75579C5.6244 4.72625 5.3272 4.69671 5.04516 4.76613C5.05588 4.76363 5.08398 4.69421 5.09137 4.68246C5.11133 4.65042 5.13314 4.61946 5.15642 4.58991C5.20152 4.53295 5.25328 4.48026 5.3102 4.43433C5.41075 4.35352 5.50278 4.26132 5.60739 4.18371C5.82918 4.01924 6.08608 3.90319 6.34853 3.81276C6.5973 3.72697 6.85346 3.66395 7.11036 3.60664C7.28447 3.56712 7.4667 3.56463 7.64598 3.56214C9.67348 3.53259 11.701 3.52512 13.7281 3.51017C14.0663 3.50767 14.4149 3.62124 14.7405 3.70525C14.9841 3.76933 15.23 3.87079 15.3889 4.06089C15.5375 4.24102 15.617 4.4977 15.658 4.77929C16.14 4.76434 16.6217 4.73978 17.1089 4.69777C17.0652 4.14491 16.9654 3.60664 16.5629 3.18692C16.1193 2.72769 15.3686 2.63407 14.7609 2.59953C14.0767 2.56251 13.3921 2.53795 12.7053 2.523C12.1697 2.51303 11.6367 2.5059 11.1007 2.50341C10.0062 2.50092 8.93234 2.54044 7.84559 2.59491C6.67419 2.654 5.18748 2.27166 4.18796 3.04916C3.69338 3.43434 3.45237 3.91565 3.35478 4.53758C3.28049 5.01141 3.27272 5.49307 3.27531 5.96939C3.27531 6.38413 3.28567 6.80135 3.29823 7.22356C3.78505 7.2556 4.26965 7.27305 4.75647 7.27305C4.75795 7.02777 4.75795 6.78605 4.76275 6.54148ZM17.294 8.14132C17.2711 7.2378 17.2249 6.33429 17.1554 5.43077C17.1451 5.29015 17.1377 5.14455 17.1273 5.00108C16.6453 4.97403 16.1611 4.94448 15.6765 4.91956C15.7253 5.41333 15.6817 5.9637 15.7046 6.33144C15.7401 6.89961 15.7955 7.46635 15.8439 8.03345C15.8676 8.30828 15.8894 8.58347 15.9068 8.85866C15.9123 8.9473 15.9319 9.01849 15.8794 9.09218C15.7881 9.21998 15.5948 9.2442 15.4473 9.25381C14.657 9.30543 13.8586 9.32323 13.0882 9.50159C14.0674 9.53612 15.0488 9.51974 16.0262 9.4521C16.0055 9.53683 15.9848 9.62155 15.9637 9.70664C15.946 9.77962 15.9164 9.85758 15.9168 9.9334C15.9171 9.98075 15.9349 10.0249 15.9419 10.0715C15.9541 10.1516 15.9485 10.2353 15.9493 10.3161C15.9522 10.6639 15.9497 11.0117 15.9426 11.3595C15.9367 11.6518 15.9278 11.9441 15.9175 12.2363C15.9149 12.2684 15.9149 12.3029 15.9123 12.335C15.8946 12.8113 15.8868 13.5197 15.5534 13.9444C16.0277 13.9914 16.5045 14.0039 16.9784 13.9939C17.0708 13.6137 17.0963 13.2039 17.1399 12.8536C17.2963 11.6194 17.2782 10.3631 17.2911 9.12137C17.2937 8.79813 17.2963 8.47703 17.2963 8.15378C17.2966 8.1488 17.294 8.1463 17.294 8.14132Z" fill="url(#paint3_linear_13_6055)"/>
<path d="M12.21 15.6161C12.8347 15.6079 13.4713 15.5955 14.0893 15.5054C14.2194 15.4865 14.3566 15.4897 14.4885 15.4808C14.7672 15.4623 15.0452 15.4342 15.3221 15.3975C15.5036 15.3733 15.6854 15.3452 15.8588 15.2879C16.3889 15.1131 16.8073 14.6553 16.9204 14.127C16.6295 14.1145 16.2994 14.112 16.0085 14.0996C16.2525 14.0561 16.6106 14.1779 16.7175 14.3936C16.4029 14.6574 16.0529 14.8973 15.6503 15.0031C15.4367 15.059 15.2145 15.0757 14.9935 15.0921C13.4942 15.2035 11.992 15.3146 10.4882 15.2911C9.7667 15.2797 9.04515 15.2373 8.32435 15.2633C8.1155 15.2708 7.90739 15.284 7.69854 15.2911C7.58063 15.295 7.45938 15.3028 7.34332 15.2872C7.26236 15.2761 7.17734 15.2825 7.09528 15.2818C6.91637 15.28 6.73747 15.2758 6.55893 15.2683C6.20148 15.2537 5.84441 15.2284 5.48881 15.1917C5.10106 15.1519 4.71478 15.0992 4.33072 15.0333C4.14627 15.0017 3.95184 14.9621 3.81433 14.8393C3.72377 14.7585 3.66758 14.6489 3.61805 14.5396C3.46021 14.1907 3.35485 13.8197 3.30643 13.4424C3.1667 13.9062 3.31124 14.416 3.63098 14.7884C3.93298 15.1401 4.39097 15.3413 4.85635 15.4278C5.20197 15.4919 5.59194 15.525 5.94273 15.4865C6.01962 15.4783 6.09687 15.4858 6.17487 15.4904C6.35562 15.5011 6.53638 15.5107 6.71714 15.5193C7.07865 15.5367 7.44053 15.5502 7.80241 15.5602C8.16208 15.5702 8.52137 15.5762 8.88103 15.5787C9.04959 15.5798 9.22997 15.5965 9.39668 15.573C9.55933 15.5499 9.74008 15.5769 9.90494 15.5823C10.6294 15.6068 11.3543 15.6232 12.0796 15.6168C12.1232 15.6172 12.1664 15.6168 12.21 15.6161Z" fill="#C69C6D"/>
<path d="M17.6463 5.14138C17.6463 5.1421 17.0612 5.12358 17.0083 5.12145C16.791 5.11219 16.5736 5.10081 16.3567 5.08692C16.248 5.0798 16.1393 5.07233 16.031 5.06414C15.9767 5.06022 15.9223 5.05595 15.868 5.05132C15.8369 5.04883 15.8048 5.04278 15.7737 5.0442C15.7615 5.04456 15.7504 5.04812 15.7382 5.04705C15.7172 5.04456 15.6961 5.03743 15.6758 5.03245C15.5904 5.01145 15.505 4.99008 15.4196 4.96908C15.4178 4.95697 15.4159 4.94487 15.4141 4.93277C15.4133 4.92779 15.5327 4.9285 15.5434 4.92957C15.5789 4.93241 15.6144 4.94203 15.6503 4.93776C15.678 4.93455 15.7039 4.92779 15.732 4.92708C15.7767 4.92601 15.8218 4.92672 15.8665 4.92708C16.0465 4.92815 16.2266 4.93207 16.4062 4.9399C16.5862 4.94737 16.7662 4.9584 16.9459 4.97264C17.1259 4.98688 17.3055 5.00469 17.4848 5.02533C17.5484 5.03281 17.6123 5.04064 17.6759 5.04883C17.6767 5.09155 17.6463 5.09902 17.6463 5.14138Z" fill="#C69C6D"/>
<path d="M4.95891 7.28406C4.38523 7.33781 3.81487 7.41471 3.24968 7.51439C3.21272 7.4795 3.19534 7.43784 3.20643 7.39192C3.80267 7.32036 4.35713 7.30933 4.95891 7.28406Z" fill="#C69C6D"/>
<path d="M16.3316 12.3342C16.3135 12.6154 16.2932 12.897 16.2677 13.1761C16.1934 14.0252 15.4833 14.6966 14.6017 14.7535C11.7872 14.9386 8.91397 14.9287 5.98713 14.751C5.09 14.6944 4.37253 14.0056 4.31339 13.1416C4.31339 13.1291 4.31079 13.1195 4.31079 13.107C4.19288 10.8386 4.17735 8.53036 4.25941 6.18541C4.27493 5.7632 4.29269 5.33885 4.31339 4.91415C4.35701 4.0206 5.09777 3.30718 6.02557 3.26268C8.82969 3.13167 11.6722 3.13167 14.5558 3.26767C15.4581 3.30967 16.1937 3.98856 16.2654 4.85506C16.3346 5.66459 16.3834 6.46701 16.4114 7.26444C16.4754 8.97963 16.4469 10.6706 16.3316 12.3342Z" fill="url(#paint4_linear_13_6055)"/>
<path d="M15.2185 11.8362C15.2037 12.075 15.1871 12.3143 15.1664 12.551C15.1057 13.2722 14.5276 13.8426 13.809 13.8906C11.5165 14.048 9.17591 14.0394 6.79134 13.8885C6.06056 13.8404 5.47578 13.2552 5.42773 12.5215C5.42773 12.5108 5.42551 12.5026 5.42551 12.4919C5.3294 10.5649 5.31684 8.60479 5.38375 6.61299C5.39631 6.2545 5.41073 5.89388 5.42773 5.53325C5.46321 4.77427 6.06648 4.16836 6.8224 4.13063C9.1068 4.01956 11.4222 4.01956 13.7713 4.1349C14.5062 4.1705 15.1054 4.74721 15.1641 5.48305C15.2203 6.17084 15.2602 6.85222 15.2832 7.52932C15.3353 8.98677 15.3124 10.4229 15.2185 11.8362Z" fill="url(#paint5_linear_13_6055)"/>
<path d="M16.3232 12.3338C16.3151 12.4883 16.3073 12.6432 16.2992 12.7977C16.202 12.3627 16.0179 11.9461 15.7606 11.5766C15.4546 11.1373 14.4776 11.3231 13.9834 11.3128C13.2755 11.2982 12.5673 11.2851 11.8594 11.2733C10.1894 11.2452 8.50305 11.1687 6.83485 11.2787C6.47408 11.3025 6.11368 11.3303 5.75327 11.3587C5.44647 11.3833 5.13153 11.3926 4.83027 11.4588C4.65691 11.4969 4.50388 11.5702 4.43549 11.7375C4.38892 11.8514 4.38374 11.976 4.37375 12.0964C4.35897 12.2701 4.3464 12.4445 4.33605 12.6186C4.32607 12.7923 4.3124 12.9675 4.3124 13.1416C4.3124 13.1291 4.30982 13.1195 4.30982 13.107C4.1919 10.8386 4.17637 8.53036 4.25843 6.18541C4.27618 6.01988 4.29687 5.8547 4.31979 5.69165C4.24549 6.83226 4.17119 7.99957 4.49685 9.10067C4.58667 9.39685 4.71198 9.70052 4.95558 9.90059C5.23761 10.1277 5.62463 10.1818 5.98836 10.2238C8.80542 10.5375 11.6454 10.572 14.4776 10.604C14.7826 10.6065 15.1134 10.604 15.3592 10.4339C15.5462 10.3054 15.6564 10.1007 15.7514 9.90059C16.141 9.07112 16.3665 8.17258 16.4101 7.26408C16.4411 8.09142 16.4508 8.91947 16.4389 9.74716C16.433 10.1566 16.4219 10.5659 16.4053 10.975C16.3946 11.2448 16.4082 11.5339 16.3524 11.7977C16.3195 11.9529 16.3332 12.1305 16.3251 12.289C16.3247 12.3039 16.324 12.3189 16.3232 12.3338Z" fill="#C91219"/>
<path d="M15.6278 6.19502C15.2903 6.50758 14.7783 6.54675 14.3104 6.56561C11.6981 6.6717 9.08174 6.69235 6.46799 6.62756C6.11646 6.61866 5.76345 6.60798 5.41635 6.55245C5.24114 6.52432 5.06778 6.48516 4.89996 6.42927C4.8349 6.40755 4.768 6.39011 4.71884 6.34383C4.57357 6.20891 4.52034 5.92696 4.49927 5.74433C4.44752 5.30254 4.61792 4.47663 5.01344 4.18827C5.71503 3.67742 7.11486 3.72654 7.95876 3.63292C9.33605 3.48055 10.7285 3.45314 12.111 3.55211C12.6961 3.59412 13.2875 3.64716 13.8653 3.74648C14.3699 3.83299 14.8803 3.93374 15.3028 4.2317C15.8096 4.58948 16.0806 5.77601 15.6278 6.19502Z" fill="url(#paint6_linear_13_6055)"/>
<path d="M5.66582 13.859C6.0617 14.1153 6.55111 14.1915 7.02425 14.2498C9.23287 14.5218 11.4685 14.5414 13.6923 14.4396C14.0556 14.4229 14.4308 14.4001 14.7565 14.2431C15.0821 14.0861 15.3472 13.7589 15.3083 13.4104C15.3017 13.3502 15.2821 13.2851 15.2292 13.252C15.1838 13.2235 15.1257 13.226 15.0718 13.2292C14.294 13.2773 13.5148 13.305 12.7353 13.3125C11.9486 13.32 11.162 13.3068 10.3762 13.273C9.59401 13.2392 8.81259 13.1854 8.03338 13.111C7.64193 13.0736 7.25122 13.0313 6.86087 12.9836C6.50084 12.9394 6.136 12.8636 5.77375 12.8462C5.58634 12.8373 5.26992 12.8387 5.1679 13.0281C5.0474 13.252 5.32869 13.5727 5.48136 13.7151C5.53865 13.7682 5.60002 13.8166 5.66582 13.859Z" fill="url(#paint7_linear_13_6055)"/>
<defs>
<linearGradient id="paint0_linear_13_6055" x1="19.2789" y1="-9.79426" x2="13.9539" y2="2.49763" gradientUnits="userSpaceOnUse">
<stop stop-color="#C69C6D"/>
<stop offset="1" stop-color="#8C542B"/>
</linearGradient>
<linearGradient id="paint1_linear_13_6055" x1="16.8872" y1="-5.47505" x2="-1.94268" y2="39.6639" gradientUnits="userSpaceOnUse">
<stop stop-color="#C69C6D"/>
<stop offset="1" stop-color="#8C542B"/>
</linearGradient>
<linearGradient id="paint2_linear_13_6055" x1="14.682" y1="0.0372694" x2="-4.1478" y2="45.1762" gradientUnits="userSpaceOnUse">
<stop stop-color="#C69C6D"/>
<stop offset="1" stop-color="#522D22"/>
</linearGradient>
<linearGradient id="paint3_linear_13_6055" x1="10.8695" y1="27.923" x2="10.3029" y2="9.26599" gradientUnits="userSpaceOnUse">
<stop stop-color="#C69C6D"/>
<stop offset="1" stop-color="#8C542B"/>
</linearGradient>
<linearGradient id="paint4_linear_13_6055" x1="10.2872" y1="2.71502" x2="10.3681" y2="17.0014" gradientUnits="userSpaceOnUse">
<stop stop-color="#F24A20"/>
<stop offset="0.676" stop-color="#8A0B2B"/>
<stop offset="0.7289" stop-color="#93102A"/>
<stop offset="0.8138" stop-color="#AA1E28"/>
<stop offset="0.9196" stop-color="#D03624"/>
<stop offset="1" stop-color="#F24A20"/>
</linearGradient>
<linearGradient id="paint5_linear_13_6055" x1="10.3262" y1="4.76234" x2="10.3262" y2="30.8552" gradientUnits="userSpaceOnUse">
<stop offset="0.0894" stop-color="#F24A20"/>
<stop offset="0.676" stop-color="#8A0B2B"/>
<stop offset="0.7289" stop-color="#93102A"/>
<stop offset="0.8138" stop-color="#AA1E28"/>
<stop offset="0.9196" stop-color="#D03624"/>
<stop offset="1" stop-color="#F24A20"/>
</linearGradient>
<linearGradient id="paint6_linear_13_6055" x1="10.2673" y1="3.35158" x2="10.1053" y2="7.46978" gradientUnits="userSpaceOnUse">
<stop stop-color="#D83E31"/>
<stop offset="1" stop-color="#CB1809"/>
</linearGradient>
<linearGradient id="paint7_linear_13_6055" x1="10.4199" y1="10.1197" x2="10.0152" y2="17.3064" gradientUnits="userSpaceOnUse">
<stop stop-color="#D83E31"/>
<stop offset="1" stop-color="#DB2718"/>
</linearGradient>
</defs>
</svg>
