<svg width="84" height="24" viewBox="0 0 84 24" fill="none" xmlns="http://www.w3.org/2000/svg">
<path d="M11.2691 4.41115C11.5006 3.89177 11.6164 3.63208 11.7776 3.55211C11.9176 3.48263 12.082 3.48263 12.222 3.55211C12.3832 3.63208 12.499 3.89177 12.7305 4.41115L14.5745 8.54808C14.643 8.70162 14.6772 8.77839 14.7302 8.83718C14.777 8.8892 14.8343 8.93081 14.8982 8.95929C14.9705 8.99149 15.0541 9.00031 15.2213 9.01795L19.7256 9.49336C20.2911 9.55304 20.5738 9.58288 20.6997 9.71147C20.809 9.82316 20.8598 9.97956 20.837 10.1342C20.8108 10.3122 20.5996 10.5025 20.1772 10.8832L16.8125 13.9154C16.6877 14.0279 16.6252 14.0842 16.5857 14.1527C16.5507 14.2134 16.5288 14.2807 16.5215 14.3503C16.5132 14.429 16.5306 14.5112 16.5655 14.6757L17.5053 19.1064C17.6233 19.6627 17.6823 19.9408 17.5989 20.1002C17.5264 20.2388 17.3934 20.3354 17.2393 20.3615C17.0619 20.3915 16.8156 20.2495 16.323 19.9654L12.3995 17.7024C12.2539 17.6184 12.1811 17.5765 12.1037 17.56C12.0352 17.5455 11.9644 17.5455 11.8959 17.56C11.8185 17.5765 11.7457 17.6184 11.6001 17.7024L7.67662 19.9654C7.18404 20.2495 6.93775 20.3915 6.76034 20.3615C6.60623 20.3354 6.47319 20.2388 6.40075 20.1002C6.31736 19.9408 6.37635 19.6627 6.49434 19.1064L7.4341 14.6757C7.46898 14.5112 7.48642 14.429 7.47814 14.3503C7.47081 14.2807 7.44894 14.2134 7.41394 14.1527C7.37439 14.0842 7.31195 14.0279 7.18708 13.9154L3.82246 10.8832C3.40005 10.5025 3.18884 10.3122 3.16258 10.1342C3.13978 9.97956 3.19059 9.82316 3.29993 9.71147C3.42581 9.58288 3.70856 9.55304 4.27406 9.49336L8.77835 9.01795C8.94553 9.00031 9.02911 8.99149 9.10139 8.95929C9.16534 8.93081 9.2226 8.8892 9.26946 8.83718C9.32241 8.77839 9.35663 8.70162 9.42508 8.54808L11.2691 4.41115Z" fill="url(#paint0_linear_13_3318)"/>
<path d="M41.2691 4.41115C41.5006 3.89177 41.6164 3.63208 41.7776 3.55211C41.9176 3.48263 42.082 3.48263 42.222 3.55211C42.3832 3.63208 42.499 3.89177 42.7305 4.41115L44.5745 8.54808C44.643 8.70162 44.6772 8.77839 44.7302 8.83718C44.777 8.8892 44.8343 8.93081 44.8982 8.95929C44.9705 8.99149 45.0541 9.00031 45.2213 9.01795L49.7256 9.49336C50.2911 9.55304 50.5738 9.58288 50.6997 9.71147C50.809 9.82316 50.8598 9.97956 50.837 10.1342C50.8108 10.3122 50.5996 10.5025 50.1772 10.8832L46.8125 13.9154C46.6877 14.0279 46.6252 14.0842 46.5857 14.1527C46.5507 14.2134 46.5288 14.2807 46.5215 14.3503C46.5132 14.429 46.5306 14.5112 46.5655 14.6757L47.5053 19.1064C47.6233 19.6627 47.6823 19.9408 47.5989 20.1002C47.5264 20.2388 47.3934 20.3354 47.2393 20.3615C47.0619 20.3915 46.8156 20.2495 46.323 19.9654L42.3995 17.7024C42.2539 17.6184 42.1811 17.5765 42.1037 17.56C42.0352 17.5455 41.9644 17.5455 41.8959 17.56C41.8185 17.5765 41.7457 17.6184 41.6001 17.7024L37.6766 19.9654C37.184 20.2495 36.9378 20.3915 36.7603 20.3615C36.6062 20.3354 36.4732 20.2388 36.4008 20.1002C36.3174 19.9408 36.3764 19.6627 36.4943 19.1064L37.4341 14.6757C37.469 14.5112 37.4864 14.429 37.4781 14.3503C37.4708 14.2807 37.4489 14.2134 37.4139 14.1527C37.3744 14.0842 37.312 14.0279 37.1871 13.9154L33.8225 10.8832C33.4001 10.5025 33.1888 10.3122 33.1626 10.1342C33.1398 9.97956 33.1906 9.82316 33.2999 9.71147C33.4258 9.58288 33.7086 9.55304 34.2741 9.49336L38.7784 9.01795C38.9455 9.00031 39.0291 8.99149 39.1014 8.95929C39.1653 8.93081 39.2226 8.8892 39.2695 8.83718C39.3224 8.77839 39.3566 8.70162 39.4251 8.54808L41.2691 4.41115Z" fill="url(#paint1_linear_13_3318)"/>
<path d="M71.2691 4.41115C71.5006 3.89177 71.6164 3.63208 71.7776 3.55211C71.9176 3.48263 72.082 3.48263 72.222 3.55211C72.3832 3.63208 72.499 3.89177 72.7305 4.41115L74.5745 8.54808C74.643 8.70162 74.6772 8.77839 74.7302 8.83718C74.777 8.8892 74.8343 8.93081 74.8982 8.95929C74.9705 8.99149 75.0541 9.00031 75.2213 9.01795L79.7256 9.49336C80.2911 9.55304 80.5738 9.58288 80.6997 9.71147C80.809 9.82316 80.8598 9.97956 80.837 10.1342C80.8108 10.3122 80.5996 10.5025 80.1772 10.8832L76.8125 13.9154C76.6877 14.0279 76.6252 14.0842 76.5857 14.1527C76.5507 14.2134 76.5288 14.2807 76.5215 14.3503C76.5132 14.429 76.5306 14.5112 76.5655 14.6757L77.5053 19.1064C77.6233 19.6627 77.6823 19.9408 77.5989 20.1002C77.5264 20.2388 77.3934 20.3354 77.2393 20.3615C77.0619 20.3915 76.8156 20.2495 76.323 19.9654L72.3995 17.7024C72.2539 17.6184 72.1811 17.5765 72.1037 17.56C72.0352 17.5455 71.9644 17.5455 71.8959 17.56C71.8185 17.5765 71.7457 17.6184 71.6001 17.7024L67.6766 19.9654C67.184 20.2495 66.9378 20.3915 66.7603 20.3615C66.6062 20.3354 66.4732 20.2388 66.4008 20.1002C66.3174 19.9408 66.3764 19.6627 66.4943 19.1064L67.4341 14.6757C67.469 14.5112 67.4864 14.429 67.4781 14.3503C67.4708 14.2807 67.4489 14.2134 67.4139 14.1527C67.3744 14.0842 67.312 14.0279 67.1871 13.9154L63.8225 10.8832C63.4001 10.5025 63.1888 10.3122 63.1626 10.1342C63.1398 9.97956 63.1906 9.82316 63.2999 9.71147C63.4258 9.58288 63.7086 9.55304 64.2741 9.49336L68.7784 9.01795C68.9455 9.00031 69.0291 8.99149 69.1014 8.95929C69.1653 8.93081 69.2226 8.8892 69.2695 8.83718C69.3224 8.77839 69.3566 8.70162 69.4251 8.54808L71.2691 4.41115Z" fill="url(#paint2_linear_13_3318)"/>
<defs>
<linearGradient id="paint0_linear_13_3318" x1="3.15723" y1="11.9327" x2="20.8424" y2="11.9327" gradientUnits="userSpaceOnUse">
<stop stop-color="#727272"/>
<stop offset="1" stop-color="#D8D8D8"/>
</linearGradient>
<linearGradient id="paint1_linear_13_3318" x1="33.1572" y1="11.9327" x2="50.8424" y2="11.9327" gradientUnits="userSpaceOnUse">
<stop stop-color="#727272"/>
<stop offset="1" stop-color="#D8D8D8"/>
</linearGradient>
<linearGradient id="paint2_linear_13_3318" x1="63.1572" y1="11.9327" x2="80.8424" y2="11.9327" gradientUnits="userSpaceOnUse">
<stop stop-color="#727272"/>
<stop offset="1" stop-color="#D8D8D8"/>
</linearGradient>
</defs>
</svg>
