<svg width="24" height="24" viewBox="0 0 24 24" fill="none" xmlns="http://www.w3.org/2000/svg">
<path d="M23.7531 3.419C23.6145 1.6282 22.0986 0.222302 20.2442 0.15096C15.0243 -0.0498214 9.82744 -0.0511034 4.65394 0.151814C4.27917 0.166339 3.9075 0.236826 3.5548 0.360712C3.37956 0.422228 3.2096 0.496986 3.04628 0.583706C2.24288 1.0109 1.69729 1.75209 1.27352 2.51848C0.869174 3.24941 0.464837 4.0222 0.346093 4.85352C0.259574 5.45843 0.233522 6.06975 0.219397 6.67978C0.207478 7.20566 0.0957948 7.83108 0.310327 8.32919C0.370361 8.46888 0.452033 8.60003 0.553119 8.71537C0.580487 8.74698 0.866969 9.0332 0.900959 9.00202C0.650671 9.23014 0.25648 9.31387 0.0962427 9.60821C-0.0803272 9.93331 0.0366498 10.4331 0.0543068 10.7813C0.0860894 11.4114 -0.000434289 12.1791 0.240142 12.772C0.331076 12.9967 0.501028 13.2031 0.735425 13.2842C0.396411 13.4884 0.266185 13.9011 0.20571 14.283C0.105065 14.9165 0.120084 15.5607 0.155839 16.199C0.185856 16.7347 0.125379 17.393 0.343884 17.892C0.471014 18.1816 0.745134 18.4336 1.07002 18.4443C0.824591 18.5075 0.557082 18.5853 0.416709 18.7903C0.210564 19.0911 0.24897 19.731 0.278104 20.0758C0.356678 21.0212 0.765439 22.0195 1.45803 22.6979C1.87518 23.1063 2.39253 23.4164 2.95756 23.5924C3.24801 23.683 3.57202 23.7586 3.87881 23.7582C9.37367 24.0632 14.6655 24.0888 19.7158 23.7825C19.7379 23.7813 19.7604 23.7796 19.7825 23.7778C20.3952 23.73 20.9924 23.5348 21.5084 23.211C22.0117 22.8957 22.4332 22.4625 22.729 21.9576C23.0711 21.374 23.2318 20.6867 23.4026 20.042C23.4507 19.8596 23.4944 19.6755 23.5328 19.4909C23.6524 18.9138 23.9058 17.9078 23.6026 17.3533C23.5491 17.2559 23.4472 17.1764 23.3337 17.1785C23.4838 17.1657 23.6078 17.0512 23.6714 16.9192C23.8096 16.6313 23.7893 16.2413 23.8171 15.9311C23.8718 15.3134 23.893 14.694 23.9151 14.0741C23.9446 13.253 23.9663 12.4311 23.9786 11.6096C23.991 10.8031 23.9945 9.99696 23.9879 9.19042C23.9813 8.35439 24.051 7.40773 23.9151 6.5653C23.8868 6.38929 23.8233 6.21799 23.727 6.0659C23.678 5.98858 23.6065 5.90827 23.5129 5.91084C23.6524 5.71475 23.7473 5.48962 23.7924 5.25594C23.9058 4.66599 23.799 4.01366 23.7531 3.419Z" fill="url(#paint0_linear_13_6041)"/>
<path d="M23.9968 7.54244C23.9941 8.17041 23.9879 8.7954 23.9853 9.42338C23.9822 9.72241 23.9827 10.0249 23.9796 10.3269C23.9796 10.4897 23.9765 10.6499 23.9765 10.8126C23.9676 11.6657 23.9557 12.5188 23.9315 13.3719C23.9226 13.7957 23.9103 14.2191 23.8922 14.6428C23.8829 14.8975 23.8864 15.1316 23.8008 15.3716C23.7028 15.6382 23.7121 15.9612 23.6785 16.2397C23.6662 16.3286 23.6512 16.4234 23.5836 16.4858C23.5223 16.5451 23.4273 16.5571 23.3417 16.5627C23.1978 16.5776 23.0508 16.5926 22.9073 16.6071C21.4502 16.7528 19.9842 16.8749 18.5271 16.7152C18.9985 16.7831 19.47 16.851 19.9414 16.9189C21.0375 17.0783 22.13 17.2351 23.2261 17.3918C23.3117 17.4068 23.4066 17.4213 23.471 17.4777C23.569 17.5606 23.5721 17.7028 23.569 17.8272C23.5598 18.0168 23.5386 18.2005 23.5081 18.3872C23.456 18.7576 23.3828 19.125 23.3678 19.5009C23.3647 19.5778 23.377 19.6551 23.3647 19.732C23.3249 19.9661 23.1444 20.1942 23.0067 20.3809C22.367 21.249 21.3421 21.8035 20.2433 21.8689C15.2725 22.173 10.0632 22.1453 4.65135 21.8449C3.87091 21.8009 3.11783 21.5109 2.51749 21.0222C2.15906 20.7291 1.82844 20.3557 1.62627 19.9443C1.53445 19.7547 1.50973 19.5445 1.421 19.3518C1.40246 19.3104 1.38436 19.2719 1.372 19.2275C1.34154 19.1032 1.35345 18.9609 1.4669 18.8781C1.58609 18.7862 1.75472 18.7772 1.90745 18.7713C3.62768 18.7144 5.34792 18.6102 7.06815 18.5619C7.60978 18.547 8.15494 18.538 8.69656 18.5376C8.50366 18.5081 8.31076 18.4842 8.11477 18.4637C7.22706 18.3603 6.33008 18.3283 5.43664 18.2958C5.42119 18.2958 5.40927 18.2928 5.39691 18.2928C4.31939 18.2548 3.24497 18.2108 2.17981 18.048C1.97764 18.0156 1.76663 17.9741 1.583 17.8912C1.44836 17.8319 1.32874 17.746 1.2431 17.6277C1.23692 17.6187 1.23075 17.6067 1.22457 17.5982C1.10185 17.4115 1.05285 17.1334 1.09258 16.9228C1.14157 16.6797 1.11067 16.443 1.09832 16.188C1.0736 15.7467 1.04888 15.3024 1.02725 14.8611C1.0118 14.6181 0.999443 14.3784 0.987083 14.1353C0.980903 14.0021 0.974725 13.8538 1.06345 13.75C1.13364 13.6701 1.25017 13.6402 1.35743 13.6137C1.69424 13.5309 2.03061 13.4505 2.37359 13.4001C2.52677 13.3732 2.67951 13.3557 2.83268 13.3467C2.4376 13.2609 2.04606 13.175 1.65099 13.0896C1.5318 13.0631 1.41218 13.0362 1.30491 12.9802C1.28063 12.9682 1.2559 12.9537 1.23163 12.9388C1.03563 12.8025 0.989734 12.6158 0.958834 12.4146C0.949564 12.3467 0.940291 12.2783 0.927931 12.2104C0.900121 12.0536 0.878935 11.8964 0.863485 11.7366C0.835675 11.4936 0.82331 11.2509 0.811392 11.0108C0.786672 10.4807 0.758863 9.79931 1.1045 9.35502C1.22986 9.19483 1.45322 9.15936 1.65539 9.13544C2.62255 9.02266 3.58972 8.9274 4.55997 8.85307C5.37087 8.7907 6.1822 8.73986 6.99619 8.70398C5.40132 8.76976 3.80072 8.69928 2.21512 8.4955C1.95777 8.46005 1.69468 8.4216 1.46205 8.30925C1.45587 8.30626 1.44969 8.30326 1.44351 8.30027C1.38216 8.27379 1.32388 8.23834 1.26914 8.1969C1.14687 8.10505 1.05197 7.97475 0.999436 7.83549C0.944258 7.68426 0.971623 7.56294 0.993253 7.41171C0.999433 7.35532 0.993253 7.30192 0.993253 7.24596C0.980893 6.91104 1.00827 6.57056 1.01754 6.23564C1.02372 6.06391 1.02946 5.89218 1.03873 5.72002C1.06301 4.97072 1.09921 4.22398 1.14511 3.47767C1.25768 1.66465 2.77838 0.224577 4.65443 0.152808C9.82705 -0.0505368 15.0244 -0.0496841 20.2433 0.149816C21.9208 0.214323 23.381 1.42243 23.6971 3.01886C23.7951 3.51056 23.829 4.04071 23.7315 4.53541C23.7072 4.65972 23.6763 4.78147 23.6277 4.8998C23.6004 4.96474 23.5545 5.10443 23.49 5.1574C23.4869 5.16338 23.4808 5.16637 23.4777 5.16936C23.4348 5.19585 23.3704 5.20183 23.3214 5.2108C23.0155 5.28214 22.7092 5.34451 22.4002 5.39791C21.7848 5.50471 21.1637 5.57904 20.5391 5.63244C19.2872 5.73967 18.0292 5.75761 16.7742 5.77897H16.7376C17.0805 5.79948 17.4262 5.81742 17.7692 5.83792C19.3243 5.92336 20.8759 6.01436 22.431 6.0998C22.8076 6.12329 23.1996 6.14679 23.5209 6.33347C23.524 6.33347 23.524 6.33646 23.5271 6.33646C23.9778 6.60046 24.0025 7.08619 23.9968 7.54244Z" fill="url(#paint1_linear_13_6041)"/>
<path d="M23.9966 7.5422C23.994 8.17018 23.9878 8.79516 23.9852 9.42314C23.9821 9.72218 23.9825 10.0246 23.9794 10.3267C23.9794 10.4894 23.9763 10.6496 23.9763 10.8124C21.5829 10.9645 19.1864 11.1665 16.7833 11.3096C13.9887 11.4767 11.1913 11.6582 8.39668 11.8312C6.89098 11.9235 5.39721 12.0367 3.89724 12.2003C2.89344 12.3101 1.93555 12.4707 0.959119 12.4148C0.949849 12.3469 0.940589 12.2785 0.928229 12.2106C0.90042 12.0538 0.879219 11.8966 0.86377 11.7368C1.85565 11.5352 2.84709 11.5672 3.89724 11.5343C5.30539 11.4895 6.69455 11.3942 8.09652 11.269C10.8938 11.0161 13.6916 10.7517 16.4862 10.4424C18.1513 10.2553 19.8194 10.0917 21.4876 9.91014C21.4324 9.90715 21.3772 9.90416 21.3225 9.90117C18.5892 9.7572 15.9014 9.26935 13.1773 9.03311C10.4745 8.80028 7.76854 8.59694 5.05643 8.44059C3.96081 8.37566 2.70276 8.39402 1.46279 8.30858C1.45661 8.30559 1.45042 8.3026 1.44424 8.29961C1.38289 8.27313 1.32462 8.23767 1.26989 8.19623C1.14761 8.10438 1.05271 7.97409 1.00018 7.83483C0.945001 7.6836 0.972366 7.56227 0.993996 7.41105C1.00018 7.35466 0.993996 7.30126 0.993996 7.24529C0.981636 6.91037 1.009 6.5699 1.01827 6.23498C1.02445 6.06324 1.03019 5.89152 1.03946 5.71936C2.41671 5.64502 3.83412 5.73302 5.05554 5.74456C7.76765 5.7672 10.4705 5.89365 13.176 6.04658C15.8912 6.19952 18.606 6.1363 21.3212 6.25976C22.0557 6.29223 22.7933 6.31828 23.5278 6.3358C23.9777 6.60023 24.0024 7.08595 23.9966 7.5422ZM15.0185 13.6921C10.3999 13.907 5.53272 13.7105 1.02754 14.8613C1.04917 15.3026 1.07389 15.7469 1.09861 16.1882C1.11097 16.4428 1.14187 16.6799 1.09287 16.923C1.05315 17.1332 1.10215 17.4117 1.22487 17.5984C2.5871 17.9444 3.98289 18.1571 5.39721 18.293C5.40957 18.293 5.42149 18.296 5.43694 18.296C6.32464 18.3814 7.21852 18.4314 8.11505 18.4639C10.429 18.5459 12.7584 18.4946 15.0203 18.5147C17.8485 18.5403 20.6798 18.4831 23.508 18.387C23.5384 18.2003 23.5596 18.0166 23.5689 17.8269C23.572 17.7026 23.5689 17.5604 23.4709 17.4775C23.4065 17.4211 23.3116 17.4066 23.2259 17.3916C22.1299 17.2348 21.0373 17.0785 19.9413 16.9187C19.4698 16.8508 18.9984 16.7829 18.5269 16.7149C19.9841 16.8743 21.4501 16.7525 22.9072 16.6069C23.0511 16.5919 23.1981 16.5769 23.3416 16.5624C23.4272 16.5564 23.5221 16.5445 23.5835 16.4855C23.6506 16.4232 23.666 16.3283 23.6784 16.2395C23.7119 15.9609 23.7026 15.638 23.8006 15.3714C23.8863 15.1313 23.8832 14.8976 23.892 14.6426C23.9101 14.2188 23.9225 13.7955 23.9313 13.3717C20.9627 13.4648 17.9875 13.5545 15.0185 13.6921Z" fill="url(#paint2_linear_13_6041)"/>
<path d="M1.24316 17.6283C1.10853 17.4416 1.05026 17.1456 1.09308 16.9234C1.14208 16.6803 1.11118 16.4437 1.09882 16.1886C1.05865 15.5043 1.02466 14.8203 0.988017 14.136C0.981837 14.0027 0.975659 13.8544 1.06439 13.7506C1.13457 13.6707 1.25111 13.6408 1.35838 13.6144C1.69519 13.5315 2.03154 13.4512 2.37453 13.4008C2.18163 13.546 1.99491 13.6618 1.76846 13.7711C1.689 13.8096 1.60646 13.848 1.54819 13.9134C1.48683 13.9817 1.46255 14.0762 1.44136 14.1654C1.2489 15.0245 1.35308 15.9191 1.46079 16.7927C1.5067 17.1571 1.54995 17.5245 1.5835 17.8914C1.44842 17.8325 1.32924 17.7466 1.24316 17.6283Z" fill="#EB924D"/>
<path d="M0.928897 12.2102C0.858269 11.8164 0.830469 11.4075 0.812371 11.0107C0.787651 10.4805 0.759828 9.79914 1.10546 9.35486C1.23083 9.19466 1.4542 9.1592 1.65637 9.13528C2.62353 9.0225 3.59069 8.92724 4.56094 8.85291C3.64277 9.14938 2.58689 9.1528 1.6961 9.51762C1.53409 9.58298 1.36855 9.66885 1.27674 9.81409C1.21538 9.91192 1.1911 10.0273 1.17256 10.14C1.11739 10.4925 1.07501 10.8304 1.09664 11.1828C1.11209 11.4109 1.13063 11.6391 1.15182 11.8672C1.1889 12.2406 1.24098 12.6105 1.30543 12.9809C1.28115 12.9689 1.25644 12.9544 1.23216 12.9395C0.972161 12.7583 0.977895 12.4828 0.928897 12.2102Z" fill="#EB924D"/>
<path d="M19.7825 16.8513C19.8222 16.8693 19.8619 16.8868 19.9017 16.9017C19.8593 16.8928 19.8191 16.8778 19.7825 16.8513Z" fill="#EB924D"/>
<path d="M23.5691 17.8271C23.5448 18.3927 23.389 18.9378 23.3678 19.5009C23.3647 19.5777 23.3771 19.6551 23.3647 19.732C23.325 19.9661 23.1444 20.1942 23.0067 20.3809C22.3671 21.2489 21.3421 21.8034 20.2434 21.8688C15.2725 22.173 10.0633 22.1452 4.65139 21.8449C3.87095 21.8009 3.11788 21.5108 2.51754 21.0221C2.1591 20.729 1.82848 20.3557 1.62631 19.9443C1.53449 19.7546 1.50978 19.5444 1.42105 19.3518C1.40251 19.3103 1.3844 19.2719 1.37204 19.2274C1.34158 19.1031 1.3535 18.9609 1.46695 18.878C1.58613 18.7862 1.75476 18.7772 1.90749 18.7712C3.62773 18.7144 5.34796 18.6102 7.0682 18.5619C5.55632 18.6452 4.05017 18.8502 2.55992 19.1087C2.35466 19.1412 2.13439 19.1591 1.93574 19.2155C1.90529 19.2245 1.8713 19.2274 1.84702 19.2539C1.81038 19.2924 1.81965 19.3458 1.82583 19.3962C1.84746 19.5679 1.94546 19.7102 2.05273 19.8464C2.4019 20.2877 2.76606 20.7466 3.27458 21.0071C4.50218 21.6347 5.75407 21.5424 7.14367 21.5091C7.4306 21.5023 7.7087 21.507 7.98812 21.4583C8.13246 21.4331 8.29799 21.4591 8.44411 21.463C8.76944 21.4715 9.09433 21.4805 9.41966 21.489C10.0699 21.5065 10.7201 21.524 11.3703 21.5411C12.5864 21.5736 13.8026 21.6065 15.0182 21.639C16.1765 21.6702 17.3379 21.6962 18.4945 21.6048C19.6378 21.5142 20.7806 21.304 21.8374 20.8619C21.9248 20.8256 22.0223 20.7931 22.0987 20.738C22.1548 20.6979 22.1985 20.6479 22.2576 20.6107C22.4338 20.5001 22.6019 20.3933 22.756 20.2531C22.8602 20.1583 23.0036 20.04 23.0588 19.9063C23.0893 19.8353 23.1047 19.752 23.1321 19.6781C23.2084 19.4735 23.2451 19.2603 23.2605 19.0442C23.2755 18.8071 23.2636 18.5674 23.2358 18.3303C23.2234 18.2265 23.2389 18.0283 23.1745 17.9395C23.1378 17.889 23.0522 17.8476 22.9939 17.8211C22.8438 17.7472 22.6756 17.7177 22.5101 17.6878C21.6286 17.5281 20.7621 17.2709 19.9419 16.9185C21.038 17.0778 22.1305 17.2346 23.2265 17.3914C23.3122 17.4063 23.4071 17.4208 23.4715 17.4772C23.5691 17.5605 23.5722 17.7028 23.5691 17.8271Z" fill="#EB924D"/>
<path d="M1.01983 7.83085C0.972602 7.65698 0.977017 7.47329 0.981872 7.29301C1.00527 6.41684 1.02867 5.54066 1.07856 4.66576C1.12446 3.8622 1.10813 3.0155 1.44759 2.26877C2.00511 1.04143 3.27155 0.206269 4.65542 0.153296C9.82803 -0.0500486 15.0254 -0.0491958 20.2443 0.150304C21.9217 0.214811 23.382 1.42292 23.698 3.01935C23.796 3.51105 23.83 4.0412 23.7325 4.53589C23.7082 4.6602 23.6773 4.78195 23.6287 4.90029C23.6014 4.96522 23.5555 5.10492 23.491 5.15789C23.3837 4.35519 23.585 3.4726 23.288 2.71732C23.1101 2.25809 22.8558 1.80825 22.4519 1.50921C21.1206 0.511712 19.158 0.580064 17.5587 0.552296C13.1449 0.475401 8.75625 0.341263 4.35568 0.727875C4.15351 0.745817 3.95487 0.674473 3.75888 0.707368C3.32452 0.778709 2.90208 1.06621 2.58382 1.34773C2.14636 1.73605 1.80954 2.23374 1.60207 2.77286C1.54381 2.93006 1.49217 3.08984 1.44935 3.25302C1.02293 4.83877 1.20701 6.67571 1.40918 8.2824C1.22025 8.22302 1.08826 8.04958 1.03044 7.86545C1.02646 7.85392 1.02292 7.84238 1.01983 7.83085Z" fill="#EB924D"/>
<path d="M23.9966 7.54234C23.994 8.17032 23.9878 8.7953 23.9851 9.42328C23.982 9.72232 23.9825 10.0248 23.9794 10.3268C23.9706 11.7664 23.9498 13.2061 23.8924 14.6427C23.8832 14.8974 23.8867 15.1315 23.8011 15.3715C23.7031 15.6381 23.7123 15.9611 23.6788 16.2396C23.6664 16.3285 23.6514 16.4233 23.5839 16.4857C23.5225 16.5451 23.4276 16.557 23.342 16.5626C23.1981 16.5775 23.0511 16.5925 22.9076 16.607C22.9902 16.5506 23.0577 16.4767 23.1067 16.3819C23.1769 16.2426 23.1923 16.0854 23.2042 15.9316C23.4144 13.3928 23.4285 10.8514 23.3543 8.30958C23.3451 7.97508 23.3327 7.63717 23.3172 7.30225C23.3142 7.22535 23.3296 7.15103 23.3203 7.07712C23.308 6.9763 23.2559 6.88446 23.1888 6.80457C23.0387 6.62985 22.8154 6.52049 22.5951 6.44957C20.9909 5.92882 19.1974 6.3086 17.5752 5.83826H17.7712C19.3263 5.9237 20.8779 6.01468 22.4331 6.10012C22.8096 6.12362 23.2016 6.14711 23.523 6.3338C23.9776 6.59439 24.0023 7.0831 23.9966 7.54234Z" fill="#EB924D"/>
<path d="M17.515 11.4019C18.3917 11.4007 19.2706 11.3208 20.138 11.205C20.0634 11.2148 19.29 10.0447 19.2189 9.95375C18.8984 9.54578 18.566 9.14635 18.2209 8.75718C17.4528 7.8904 16.5465 7.20817 15.7705 6.3683C15.6588 6.24741 15.4854 6.11583 15.3432 6.2017C15.2598 6.25211 15.2337 6.35548 15.2148 6.44861C15.1596 6.72116 15.104 6.99329 15.0488 7.26584C14.9702 6.9228 14.8921 6.57977 14.8135 6.23673C14.7627 6.01544 14.7106 5.7903 14.5963 5.59251C14.2666 5.02306 12.9833 3.90039 12.2881 3.89783C11.6467 3.8957 10.8067 4.76333 10.356 5.16532C10.0995 5.39387 9.90397 5.74118 9.63735 5.98682C9.34203 6.25894 8.97168 6.4311 8.76642 6.79208C8.59515 7.09368 8.58147 7.45252 8.57132 7.79684C8.55498 8.35989 8.53864 8.9225 8.52231 9.48555C8.47154 9.43172 8.45256 9.35782 8.43667 9.2869C8.29233 8.65294 8.2248 8.00232 8.23627 7.35299C6.90317 8.64739 5.76385 10.1498 4.71899 11.6681C5.47339 11.654 6.35007 11.5758 7.10446 11.5617C7.10579 13.2872 7.10667 15.0122 7.10799 16.7376C7.10799 16.8077 6.99807 16.7812 7.07046 16.7786C7.34591 16.7692 7.609 16.7867 7.86812 16.7017C8.0182 16.6526 8.18286 16.6424 8.33692 16.6043C8.40534 16.3476 8.47376 16.0904 8.54262 15.8337C8.5669 16.0908 8.60531 16.3467 8.65695 16.5996C8.71125 16.8658 8.98007 16.8487 9.20079 16.7791C9.28686 16.7517 9.36764 16.7188 9.4577 16.7051C9.60337 16.6829 9.75477 16.7039 9.89868 16.6804C9.92295 16.4347 9.89161 16.1733 9.8947 15.9251C9.89779 15.6735 9.90663 15.4219 9.92252 15.1707C9.9543 14.6679 10.0148 14.1663 10.1123 13.6716C10.8138 13.6379 11.5306 13.5332 12.2285 13.5866C12.4695 13.605 12.7485 13.5157 12.986 13.4768C13.0425 13.4674 13.1021 13.4572 13.1458 13.4213C13.1974 13.3794 13.2169 13.3115 13.2328 13.2479C13.4058 12.5622 13.5237 11.8637 13.5841 11.1606C13.6115 11.8219 13.6927 12.481 13.8265 13.13C13.8614 13.2978 13.9386 13.5008 14.1147 13.5174C14.3253 13.5371 14.5358 13.4384 14.7543 13.4666C14.7804 13.7105 14.7402 13.9788 14.7305 14.2248C14.7204 14.4901 14.7093 14.7559 14.6983 15.0211C14.6767 15.5402 14.6568 16.0592 14.6391 16.5783C14.6391 16.5753 15.111 16.6056 15.205 16.5778C15.2514 16.5642 15.2911 16.5313 15.3388 16.5206C15.4814 16.4886 15.6284 16.6018 15.6871 16.7201C15.7577 16.8632 15.752 17.029 15.759 17.1874C15.7754 17.554 15.8712 17.9175 16.0385 18.2469C16.1978 18.1533 16.204 17.9359 16.1916 17.756C16.1656 17.3827 16.1395 17.0093 16.1131 16.6359C16.1148 16.6603 16.5487 16.6095 16.588 16.6052C16.7522 16.5877 16.9112 16.58 17.071 16.6253C17.1676 16.6526 17.3755 16.7039 17.4713 16.6594C17.5803 16.6086 17.6192 16.395 17.6201 16.2946C17.6382 14.8263 17.3835 12.9398 17.515 11.4019Z" fill="#FCEBC5"/>
<defs>
<linearGradient id="paint0_linear_13_6041" x1="23.1274" y1="-11.7584" x2="16.7216" y2="2.97254" gradientUnits="userSpaceOnUse">
<stop stop-color="#EB924D"/>
<stop offset="1" stop-color="#B7724B"/>
</linearGradient>
<linearGradient id="paint1_linear_13_6041" x1="20.2756" y1="-6.57411" x2="-2.37585" y2="47.5225" gradientUnits="userSpaceOnUse">
<stop stop-color="#EB924D"/>
<stop offset="1" stop-color="#A36841"/>
</linearGradient>
<linearGradient id="paint2_linear_13_6041" x1="17.6435" y1="0.0427776" x2="-5.00782" y2="54.1391" gradientUnits="userSpaceOnUse">
<stop stop-color="#EB924D"/>
<stop offset="1" stop-color="#A36841"/>
</linearGradient>
</defs>
</svg>
