<svg width="80" height="80" viewBox="0 0 80 80" fill="none" xmlns="http://www.w3.org/2000/svg">
<path opacity="0.3" d="M40 80C62.0914 80 80 63.0463 80 42.133C80 21.2196 62.0914 4.26593 40 4.26593C17.9086 4.26593 0 21.2196 0 42.133C0 63.0463 17.9086 80 40 80Z" fill="#1A1A1A"/>
<path d="M40 76.0513C62.0914 76.0513 80 59.0977 80 38.1843C80 17.2709 62.0914 0.317261 40 0.317261C17.9086 0.317261 0 17.2709 0 38.1843C0 59.0977 17.9086 76.0513 40 76.0513Z" fill="#42210B"/>
<path d="M40.0001 70.366C60.59 70.366 77.2815 54.8197 77.2815 35.6424C77.2815 16.4651 60.59 0.918823 40.0001 0.918823C19.4101 0.918823 2.71863 16.4651 2.71863 35.6424C2.71863 54.8197 19.4101 70.366 40.0001 70.366Z" fill="url(#paint0_linear_13_3302)"/>
<path d="M62.5723 41.5739L77.8496 40.9044C78.1226 39.187 78.268 37.4307 78.268 35.6427C78.268 33.1332 77.9863 30.6854 77.4565 28.3225L60.3715 26.665L76.6795 25.4763C74.823 19.6577 71.4195 14.4611 66.9058 10.3033L38.1614 8.02847H64.1905C57.5975 3.0123 49.1774 0.000488281 40.0004 0.000488281C22.6559 0.000488281 8.01477 10.7511 3.31829 25.4857L21.7538 26.9444L2.52985 28.3801C2.00863 30.725 1.73267 33.1536 1.73267 35.6427C1.73267 37.4686 1.88153 39.262 2.16603 41.014L11.9495 42.133L2.91055 44.4414C4.99482 52.0853 9.73462 58.7374 16.157 63.5107L19.553 60.9559L18.8199 65.3262C20.1253 66.136 21.4892 66.8694 22.901 67.5274L25.756 63.9377V68.723C30.1603 70.3697 34.9643 71.2849 40.0006 71.2849C46.7891 71.2849 53.1599 69.6316 58.6875 66.7442L57.8639 62.4468L61.0058 65.431C69.0971 60.4715 75.0414 52.7317 77.282 43.6692L62.5723 41.5739Z" fill="url(#paint1_linear_13_3302)"/>
<path d="M62.5723 41.5739L77.8496 40.9044C78.1226 39.187 78.268 37.4307 78.268 35.6427C78.268 33.1332 77.9863 30.6854 77.4565 28.3225L60.3715 26.665L76.6795 25.4763C74.823 19.6577 71.4195 14.4611 66.9058 10.3033L38.1614 8.02847H64.1905C57.5975 3.0123 49.1774 0.000488281 40.0004 0.000488281C22.6559 0.000488281 8.01477 10.7511 3.31829 25.4857L21.7538 26.9444L2.52985 28.3801C2.00863 30.725 1.73267 33.1536 1.73267 35.6427C1.73267 37.4686 1.88153 39.262 2.16603 41.014L11.9495 42.133L2.91055 44.4414C4.99482 52.0853 9.73462 58.7374 16.157 63.5107L19.553 60.9559L18.8199 65.3262C20.1253 66.136 21.4892 66.8694 22.901 67.5274L25.756 63.9377V68.723C30.1603 70.3697 34.9643 71.2849 40.0006 71.2849C46.7891 71.2849 53.1599 69.6316 58.6875 66.7442L57.8639 62.4468L61.0058 65.431C69.0971 60.4715 75.0414 52.7317 77.282 43.6692L62.5723 41.5739Z" fill="url(#paint2_linear_13_3302)"/>
<path d="M38.1611 8.0282C47.7426 9.11258 57.3241 10.197 66.9056 11.2813C71.1693 15.2088 74.4247 20.0708 76.339 25.5008L76.6792 25.476C74.8227 19.6575 71.4192 14.4608 66.9056 10.303L50.524 9.0067C46.4031 8.68034 42.2821 8.35417 38.1611 8.0282Z" fill="#FFCF83"/>
<path d="M60.3713 26.6645C66.0663 27.5432 71.7613 28.4218 77.4563 29.3005C77.957 31.5339 78.2273 33.8451 78.2564 36.2104C78.2596 36.021 78.2677 35.8326 78.2677 35.6424C78.2677 33.1329 77.9861 30.6851 77.4563 28.3222L66.1294 27.2233C64.21 27.0371 62.2907 26.8507 60.3713 26.6645Z" fill="#FFCF83"/>
<path d="M9.30285 42.8086L2.90991 44.4411C2.99329 44.7468 3.08806 45.0482 3.17977 45.3507C6.10272 44.278 9.02587 43.2054 11.9488 42.1328C11.0668 42.3582 10.1848 42.5834 9.30285 42.8086Z" fill="#B7724B"/>
<path d="M62.5723 41.5738C67.3889 42.586 72.2056 43.5982 77.0223 44.6106C77.1095 44.2972 77.2029 43.9859 77.2811 43.6691L67.8243 42.322C66.0738 42.0725 64.323 41.8232 62.5723 41.5738Z" fill="#B7724B"/>
<path d="M40 0.9785C48.563 0.9785 56.4653 3.60222 62.8406 8.028H64.1901C57.597 3.01183 49.177 0 40 0C22.6555 0 8.01435 10.7506 3.31787 25.4853L3.64427 25.511C8.6584 11.2694 23.0324 0.9785 40 0.9785Z" fill="#FFCF83"/>
<path d="M2.52932 29.3583C8.93731 28.5535 15.3453 27.7489 21.7533 26.9441C19.633 27.1024 17.5127 27.2608 15.3923 27.4191L2.52912 28.3798C2.0079 30.7247 1.73193 33.1534 1.73193 35.6424C1.73193 35.8312 1.74027 36.0182 1.74332 36.2063C1.77281 33.8629 2.03718 31.5723 2.52932 29.3583Z" fill="#FFCF83"/>
<path d="M54.9729 27.1556C54.5616 19.7853 48.0156 13.9268 40 13.9268C31.9844 13.9268 25.4382 19.7851 25.0272 27.1556C23.641 27.7328 22.6738 29.0259 22.6738 30.5313V51.0834C22.6738 53.1262 24.4518 54.7822 26.6449 54.7822H53.3551C55.5484 54.7822 57.3264 53.1262 57.3264 51.0834V30.5313C57.3264 29.0259 56.359 27.733 54.9729 27.1556ZM43.3807 40.5453V47.7102C43.3807 48.8866 42.3568 49.8403 41.0937 49.8403H38.9061C37.643 49.8403 36.6191 48.8866 36.6191 47.7102V40.5453C35.2568 39.4825 34.4783 37.792 34.8032 35.9502C35.1522 33.9718 36.83 32.3512 38.9431 31.9692C42.3171 31.3591 45.27 33.7492 45.27 36.7819C45.2702 38.2938 44.535 39.6448 43.3807 40.5453ZM31.7792 26.8327C32.335 23.0619 35.7987 20.1544 40 20.1544C44.2013 20.1544 47.665 23.0619 48.2208 26.8327H31.7792Z" fill="url(#paint3_linear_13_3302)"/>
<path d="M40 13.9268C48.0156 13.9268 54.5617 19.7853 54.9729 27.1557C56.359 27.733 57.3264 29.0259 57.3264 30.5313V51.0834C57.3264 53.1262 55.5484 54.7822 53.3551 54.7822H26.6449C24.4519 54.7822 22.6739 53.1262 22.6739 51.0834V30.5313C22.6739 29.0257 23.6413 27.7328 25.0272 27.1557C25.4382 19.7853 31.9845 13.9268 40 13.9268ZM31.7793 26.8327H48.221C47.6652 23.0619 44.2015 20.1545 40.0002 20.1545C35.7987 20.1543 32.3351 23.0617 31.7793 26.8327ZM38.9061 49.8405H41.0937C42.3568 49.8405 43.3807 48.8868 43.3807 47.7104V40.5453C44.535 39.6449 45.27 38.2938 45.27 36.7819C45.27 34.0709 42.9106 31.8733 39.9998 31.8733C39.6545 31.8733 39.3011 31.9044 38.9431 31.969C36.83 32.3512 35.1522 33.9716 34.8033 35.95C34.4783 37.7918 35.2568 39.4823 36.6191 40.5451V47.7102C36.6193 48.8868 37.643 49.8405 38.9061 49.8405ZM40 12.4835C31.4826 12.4835 24.4153 18.4799 23.5465 26.2781C22.0501 27.2246 21.124 28.8124 21.124 30.5313V51.0834C21.124 53.9187 23.6006 56.2255 26.6447 56.2255H53.3549C56.3991 56.2255 58.8758 53.9189 58.8758 51.0834V30.5313C58.8758 28.8124 57.9497 27.2246 56.4534 26.2781C55.5846 18.4799 48.5175 12.4835 40 12.4835ZM33.808 25.3894C34.8574 23.1443 37.2693 21.5978 40 21.5978C42.7306 21.5978 45.1427 23.1443 46.192 25.3894H33.808ZM38.9061 48.3972C38.4996 48.3972 38.1687 48.089 38.1687 47.7104V40.5453C38.1687 40.1182 37.9656 39.713 37.6142 39.4388C36.5927 38.6419 36.1136 37.4253 36.3326 36.1841C36.5764 34.8018 37.7714 33.6511 39.2386 33.3858C39.4926 33.3399 39.7489 33.3166 40 33.3166C40.9939 33.3166 41.9281 33.6771 42.6307 34.3315C43.3334 34.9859 43.7204 35.8563 43.7204 36.7819C43.7204 37.8087 43.2339 38.7771 42.3857 39.439C42.0341 39.7132 41.8311 40.1184 41.8311 40.5455V47.7105C41.8311 48.0892 41.5002 48.3973 41.0937 48.3973L38.9061 48.3972Z" fill="#42210B"/>
<defs>
<linearGradient id="paint0_linear_13_3302" x1="40.0001" y1="70.366" x2="40.0001" y2="0.918939" gradientUnits="userSpaceOnUse">
<stop stop-color="#4E2A21"/>
<stop offset="0.2304" stop-color="#522D22"/>
<stop offset="0.4427" stop-color="#5D3527"/>
<stop offset="0.6478" stop-color="#6F422E"/>
<stop offset="0.8472" stop-color="#8A5537"/>
<stop offset="1" stop-color="#A36841"/>
</linearGradient>
<linearGradient id="paint1_linear_13_3302" x1="40" y1="71.2848" x2="40" y2="0.000318326" gradientUnits="userSpaceOnUse">
<stop stop-color="#63433B"/>
<stop offset="0.5045" stop-color="#A36841"/>
<stop offset="1" stop-color="#FFC255"/>
</linearGradient>
<linearGradient id="paint2_linear_13_3302" x1="40" y1="71.2848" x2="40" y2="0.000318326" gradientUnits="userSpaceOnUse">
<stop stop-color="#63433B"/>
<stop offset="0.5045" stop-color="#A36841"/>
<stop offset="1" stop-color="#FFC255"/>
</linearGradient>
<linearGradient id="paint3_linear_13_3302" x1="40" y1="54.7823" x2="40" y2="13.9269" gradientUnits="userSpaceOnUse">
<stop stop-color="#F4D6A6"/>
<stop offset="0.216" stop-color="#F6E2BE"/>
<stop offset="0.4219" stop-color="#F7EACD"/>
<stop offset="0.5893" stop-color="#F7EDD2"/>
<stop offset="1" stop-color="white"/>
</linearGradient>
</defs>
</svg>
