<svg width="32" height="32" viewBox="0 0 32 32" fill="none" xmlns="http://www.w3.org/2000/svg">
<g clip-path="url(#clip0_3202_7135)">
<path d="M26.1536 17.3333C26.2116 16.8912 26.2428 16.4459 26.2469 16C26.2428 15.5541 26.2116 15.1088 26.1536 14.6667L29.0402 12.4067C29.1706 12.3071 29.2597 12.163 29.2904 12.0019C29.3212 11.8407 29.2914 11.6739 29.2069 11.5333L26.4736 6.79335C26.3944 6.65117 26.266 6.54286 26.1125 6.48883C25.959 6.4348 25.791 6.43878 25.6402 6.50001L22.2336 7.87335C21.5247 7.33234 20.7495 6.88425 19.9269 6.54001L19.4136 2.92001C19.3909 2.75983 19.3108 2.61334 19.1882 2.50786C19.0655 2.40237 18.9087 2.34509 18.7469 2.34668H13.2669C13.1051 2.34509 12.9483 2.40237 12.8257 2.50786C12.703 2.61334 12.6229 2.75983 12.6002 2.92001L12.0869 6.54001C11.2632 6.88211 10.4878 7.33035 9.78024 7.87335L6.36024 6.50001C6.20947 6.43878 6.04151 6.4348 5.88801 6.48883C5.73451 6.54286 5.60607 6.65117 5.52691 6.79335L2.79357 11.5333C2.70905 11.6739 2.67931 11.8407 2.71006 12.0019C2.74081 12.163 2.82988 12.3071 2.96024 12.4067L5.84024 14.6667C5.78239 15.1088 5.75122 15.5541 5.74691 16C5.75099 16.4459 5.78216 16.8912 5.84024 17.3333L2.96024 19.5933C2.82988 19.6929 2.74081 19.837 2.71006 19.9982C2.67931 20.1593 2.70905 20.3261 2.79357 20.4667L5.52691 25.2067C5.60607 25.3489 5.73451 25.4572 5.88801 25.5112C6.04151 25.5652 6.20947 25.5613 6.36024 25.5L9.76691 24.1267C10.4758 24.6677 11.251 25.1158 12.0736 25.46L12.5869 29.08C12.6095 29.2402 12.6897 29.3867 12.8123 29.4922C12.935 29.5977 13.0918 29.6549 13.2536 29.6533H18.7202C18.882 29.6549 19.0388 29.5977 19.1615 29.4922C19.2841 29.3867 19.3643 29.2402 19.3869 29.08L19.9002 25.46C20.7239 25.1179 21.4994 24.6697 22.2069 24.1267L25.6136 25.5C25.7643 25.5613 25.9323 25.5652 26.0858 25.5112C26.2393 25.4572 26.3677 25.3489 26.4469 25.2067L29.1802 20.4667C29.2648 20.3261 29.2945 20.1593 29.2637 19.9982C29.233 19.837 29.1439 19.6929 29.0136 19.5933L26.1536 17.3333ZM16.0002 20.7867C15.0532 20.788 14.1271 20.5084 13.3391 19.9832C12.5511 19.4581 11.9365 18.7109 11.5732 17.8364C11.2099 16.9619 11.1141 15.9992 11.2981 15.0703C11.482 14.1413 11.9374 13.2878 12.6065 12.6177C13.2757 11.9476 14.1286 11.4911 15.0573 11.3058C15.986 11.1206 16.9488 11.215 17.8238 11.5771C18.6988 11.9392 19.4468 12.5527 19.9731 13.34C20.4993 14.1273 20.7802 15.053 20.7802 16C20.7811 16.6283 20.6581 17.2506 20.4183 17.8313C20.1785 18.412 19.8265 18.9397 19.3826 19.3843C18.9386 19.8289 18.4114 20.1816 17.831 20.4222C17.2506 20.6628 16.6285 20.7867 16.0002 20.7867Z" stroke="#F9F9F9" stroke-width="0.666667" stroke-linecap="round" stroke-linejoin="round"/>
</g>
<defs>
<clipPath id="clip0_3202_7135">
<rect width="32" height="32" fill="white"/>
</clipPath>
</defs>
</svg>
