<svg width="32" height="32" viewBox="0 0 32 32" fill="none" xmlns="http://www.w3.org/2000/svg">
<path d="M6.91448 13.6695H25.0854C25.2368 13.6695 25.3597 13.7923 25.3597 13.9438V25.5123C25.3597 26.7178 24.3746 27.7028 23.1692 27.7028H8.83064C7.62524 27.7028 6.64014 26.7177 6.64014 25.5123V13.9438C6.64014 13.7923 6.76303 13.6695 6.91448 13.6695ZM24.8111 14.2181H7.18876V25.5123C7.18876 26.4148 7.9282 27.1543 8.8307 27.1543H23.1693C24.0718 27.1543 24.8112 26.4149 24.8112 25.5123L24.8111 14.2181Z" fill="#F9F9F9"/>
<path d="M6.91453 13.6695H25.0856C25.5661 13.6695 25.9589 13.2762 25.9589 12.7961V11.4813C25.9589 10.6727 25.2962 10.01 24.4876 10.01H7.51254C6.70388 10.01 6.04122 10.6727 6.04122 11.4813V12.7961C6.04122 13.2758 6.43405 13.6695 6.91453 13.6695ZM25.0856 14.218H6.91453C6.13244 14.218 5.49268 13.5784 5.49268 12.7961V11.4813C5.49268 10.3698 6.40101 9.4614 7.51256 9.4614H24.4876C25.5991 9.4614 26.5075 10.3698 26.5075 11.4813V12.7961C26.5075 13.5781 25.8679 14.218 25.0856 14.218Z" fill="#F9F9F9"/>
<path d="M18.187 13.9437C18.187 13.5826 17.6385 13.5826 17.6385 13.9437V27.4285C17.6385 27.7896 18.187 27.7896 18.187 27.4285V13.9437ZM13.813 27.4285C13.813 27.7896 14.3616 27.7896 14.3616 27.4285V13.9437C14.3616 13.5826 13.813 13.5826 13.813 13.9437V27.4285Z" fill="#F9F9F9"/>
<path d="M18.9775 13.9437C18.9775 14.3048 19.5261 14.3048 19.5261 13.9437V9.7357C19.5261 9.3746 18.9775 9.3746 18.9775 9.7357V13.9437ZM13.0227 9.7357C13.0227 9.3746 12.4741 9.3746 12.4741 9.7357V13.9437C12.4741 14.3048 13.0227 14.3048 13.0227 13.9437V9.7357Z" fill="#F9F9F9"/>
<path d="M10.6077 4.29847C12.3099 4.31817 14.2975 5.52487 15.0255 7.05283L16.2476 9.61779C16.3306 9.79214 16.2134 10.0227 15.9717 10.0085C14.0149 9.98344 12.5317 9.6774 11.4303 9.27024C9.39665 8.51844 8.34777 7.38539 8.36246 6.10834C8.3765 4.89084 9.42256 4.28481 10.6077 4.29847ZM12.9036 5.58167C11.9814 5.00724 10.5834 4.57405 9.61428 5.03564C8.81751 5.41516 8.76211 6.22327 9.12489 6.98469C9.31495 7.38354 10.032 8.1693 11.6188 8.75589C12.5931 9.11608 13.8832 9.39355 15.5614 9.45224L14.5304 7.28856C14.2172 6.63109 13.6174 6.02631 12.9036 5.58167Z" fill="#F9F9F9"/>
<path d="M21.397 4.84487C19.9068 4.86204 18.1081 5.94909 17.4699 7.28856L16.4389 9.45223C18.1171 9.39354 19.4072 9.11607 20.3815 8.75588C22.171 8.09436 23.1034 7.15828 23.0914 6.11264C23.081 5.20393 22.2516 4.83504 21.397 4.84487ZM18.8074 5.11667C19.8924 4.44084 21.4734 3.99361 22.6218 4.54062C23.6877 5.04837 23.8692 6.1736 23.3704 7.22042C23.1434 7.69691 22.3239 8.62187 20.57 9.27023C19.4686 9.6774 17.9854 9.98343 16.0286 10.0085C15.7869 10.0227 15.6696 9.79208 15.7526 9.61773L16.9749 7.05283C17.3337 6.29951 18.009 5.61401 18.8074 5.11667Z" fill="#F9F9F9"/>
</svg>
