<svg width="33" height="32" viewBox="0 0 33 32" fill="none" xmlns="http://www.w3.org/2000/svg">
<g clip-path="url(#clip0_13_3859)">
<path d="M22.5 29.5L8.5 22.5L18.5 2.5L32 9.5L22.5 29.5Z" stroke="#F9F9F9" stroke-width="0.7" stroke-miterlimit="10"/>
<path d="M16.4495 7.002L14.5 3L1 10L10 29.5L16.5 26.482" stroke="#F9F9F9" stroke-width="0.7" stroke-miterlimit="10"/>
<path d="M19.5 4.5L19 5.5" stroke="#F9F9F9" stroke-miterlimit="10"/>
<path d="M4 11.5L3.5 10.5" stroke="#F9F9F9" stroke-miterlimit="10"/>
<path d="M22 26.5L21.5 27.5" stroke="#F9F9F9" stroke-miterlimit="10"/>
<path d="M17 12.5C15.576 15.1405 18.5 20 18.5 20C18.5 20 24.0755 20.14 25.5 17.5C26.09 16.406 26.1885 14.641 25 14C23.906 13.41 22.09 13.406 21.5 14.5C22.09 13.406 21.594 12.09 20.5 11.5C19.312 10.859 17.5905 11.4065 17 12.5Z" stroke="#F9F9F9" stroke-width="0.7" stroke-miterlimit="10"/>
</g>
<defs>
<clipPath id="clip0_13_3859">
<rect width="32" height="32" fill="white" transform="translate(0.5)"/>
</clipPath>
</defs>
</svg>
