<svg width="33" height="32" viewBox="0 0 33 32" fill="none" xmlns="http://www.w3.org/2000/svg">
<g clip-path="url(#clip0_3143_13794)">
<path d="M21.3669 9.74667V19.1467M18.8469 9.74667V19.1467M11.6336 12.9V19.1467M23.7136 19.1467C23.0918 19.1449 22.4959 18.8971 22.0562 18.4574C21.6165 18.0177 21.3687 17.4218 21.3669 16.8V15.2467C21.3669 14.6243 21.6142 14.0274 22.0543 13.5873C22.4943 13.1472 23.0912 12.9 23.7136 12.9C24.0223 12.8991 24.3282 12.9592 24.6137 13.0767C24.8992 13.1943 25.1586 13.367 25.3772 13.585C25.5959 13.803 25.7693 14.062 25.8877 14.3471C26.006 14.6322 26.0669 14.9379 26.0669 15.2467V16.8C26.0652 17.423 25.8164 18.0199 25.3753 18.4598C24.9342 18.8997 24.3366 19.1467 23.7136 19.1467ZM16.5003 19.1467C16.1921 19.1467 15.8869 19.086 15.6022 18.968C15.3175 18.8501 15.0588 18.6773 14.8409 18.4594C14.623 18.2414 14.4502 17.9827 14.3322 17.698C14.2143 17.4133 14.1536 17.1082 14.1536 16.8V15.2467C14.1527 14.9383 14.2128 14.6327 14.3304 14.3476C14.4481 14.0625 14.6209 13.8035 14.839 13.5854C15.057 13.3673 15.3161 13.1945 15.6012 13.0768C15.8863 12.9592 16.1918 12.8991 16.5003 12.9C16.8087 12.8991 17.1142 12.9592 17.3993 13.0768C17.6844 13.1945 17.9435 13.3673 18.1616 13.5854C18.3796 13.8035 18.5525 14.0625 18.6701 14.3476C18.7877 14.6327 18.8478 14.9383 18.8469 15.2467V16.8C18.8469 17.1082 18.7862 17.4133 18.6683 17.698C18.5504 17.9827 18.3775 18.2414 18.1596 18.4594C17.9417 18.6773 17.683 18.8501 17.3983 18.968C17.1136 19.086 16.8084 19.1467 16.5003 19.1467ZM9.28693 19.1467C8.66394 19.1467 8.06637 18.8997 7.62522 18.4598C7.18408 18.0199 6.93536 17.423 6.93359 16.8V15.2467C6.93359 14.9379 6.99451 14.6322 7.11286 14.3471C7.23121 14.062 7.40466 13.803 7.62327 13.585C7.84189 13.367 8.10137 13.1943 8.38685 13.0767C8.67233 12.9592 8.9782 12.8991 9.28693 12.9C9.9093 12.9 10.5062 13.1472 10.9463 13.5873C11.3864 14.0274 11.6336 14.6243 11.6336 15.2467V16.8C11.6318 17.4218 11.384 18.0177 10.9443 18.4574C10.5046 18.8971 9.90876 19.1449 9.28693 19.1467Z" stroke="#F9F9F9" stroke-width="0.666667" stroke-linecap="round" stroke-linejoin="round"/>
<path d="M27.5003 3.66666H5.50033C5.1467 3.66666 4.80756 3.80713 4.55752 4.05718C4.30747 4.30723 4.16699 4.64637 4.16699 4.99999V27C4.16699 27.3536 4.30747 27.6927 4.55752 27.9428C4.80756 28.1928 5.1467 28.3333 5.50033 28.3333H27.5003C27.8539 28.3333 28.1931 28.1928 28.4431 27.9428C28.6932 27.6927 28.8337 27.3536 28.8337 27V4.99999C28.8337 4.64637 28.6932 4.30723 28.4431 4.05718C28.1931 3.80713 27.8539 3.66666 27.5003 3.66666Z" stroke="#F9F9F9" stroke-width="0.666667" stroke-linecap="round" stroke-linejoin="round"/>
</g>
<defs>
<clipPath id="clip0_3143_13794">
<rect width="32" height="32" fill="white" transform="translate(0.5)"/>
</clipPath>
</defs>
</svg>
