<svg width="32" height="32" viewBox="0 0 32 32" fill="none" xmlns="http://www.w3.org/2000/svg">
<path d="M9.59625 6.25302H22.4038C22.5553 6.25302 22.6781 6.37586 22.6781 6.52731V11.8118C22.6781 14.0194 20.5035 15.4504 18.5961 16C20.5034 16.5496 22.6781 17.9806 22.6781 20.1882V25.4727C22.6781 25.6242 22.5553 25.747 22.4038 25.747H9.59625C9.4448 25.747 9.32196 25.6242 9.32196 25.4727V20.1882C9.32196 17.9806 11.4967 16.5497 13.404 16C11.4967 15.4504 9.32196 14.0194 9.32196 11.8118V6.52731C9.32196 6.37586 9.4448 6.25302 9.59625 6.25302ZM22.1296 6.80159H9.87053V11.8118C9.87053 14.1798 12.7686 15.454 14.7523 15.7262C15.0787 15.7454 15.0995 16.2277 14.7726 16.2718C12.784 16.5402 9.87054 17.813 9.87054 20.1882V25.1984H22.1296V20.1882C22.1296 17.8201 19.2315 16.5461 17.2479 16.2739C16.9216 16.2548 16.9005 15.7723 17.2276 15.7282C19.2162 15.4599 22.1296 14.187 22.1296 11.8118V6.80159Z" fill="#F9F9F9"/>
<path d="M11.8086 25.1984H20.1915V22.1404C20.1915 20.4591 18.8148 19.0824 17.1335 19.0824H14.8666C13.1853 19.0824 11.8086 20.4591 11.8086 22.1404L11.8086 25.1984ZM20.4658 25.747H11.5343C11.3828 25.747 11.26 25.6241 11.26 25.4727V22.1404C11.26 20.1561 12.8823 18.5338 14.8666 18.5338H17.1334C19.1177 18.5338 20.74 20.1561 20.74 22.1404V25.4727C20.74 25.6241 20.6172 25.747 20.4658 25.747Z" fill="#F9F9F9"/>
<path d="M11.5343 7.76529H20.4658C20.6172 7.76529 20.74 7.88812 20.74 8.03958V11.3719C20.74 13.3561 19.1177 14.9785 17.1334 14.9785H14.8666C12.8823 14.9785 11.26 13.3561 11.26 11.3719V8.03958C11.26 7.88812 11.3828 7.76529 11.5343 7.76529ZM20.1915 8.31386H11.8086V11.3719C11.8086 13.0532 13.1852 14.4299 14.8666 14.4299H17.1334C18.8148 14.4299 20.1915 13.0532 20.1915 11.3719L20.1915 8.31386Z" fill="#F9F9F9"/>
<path d="M16.2744 14.7042C16.2744 14.3431 15.7258 14.3431 15.7258 14.7042C15.7258 15.1282 15.6322 15.6264 16.0001 15.6264C16.3679 15.6264 16.2744 15.1282 16.2744 14.7042Z" fill="#F9F9F9"/>
<path d="M16.2744 16.0973C16.2744 15.7362 15.7258 15.7362 15.7258 16.0973C15.7258 16.5213 15.6322 17.0195 16.0001 17.0195C16.3679 17.0195 16.2744 16.5213 16.2744 16.0973Z" fill="#F9F9F9"/>
<path d="M16.2744 17.4906C16.2744 17.1294 15.7258 17.1294 15.7258 17.4906C15.7258 17.9145 15.6322 18.4128 16.0001 18.4128C16.3679 18.4128 16.2744 17.9145 16.2744 17.4906Z" fill="#F9F9F9"/>
<path d="M9.05763 6.25303H22.9424C23.8695 6.25303 23.87 4.84569 22.9424 4.84569H9.05763C8.13002 4.84569 8.13045 6.25303 9.05763 6.25303ZM22.9424 6.8016H9.05763C8.36905 6.8016 7.80536 6.23834 7.80536 5.54933C7.80536 4.86097 8.36905 4.29712 9.05763 4.29712H22.9424C23.6312 4.29712 24.1947 4.86054 24.1947 5.54939C24.1947 6.23813 23.6314 6.8016 22.9424 6.8016Z" fill="#F9F9F9"/>
<path d="M9.05763 27.1543H22.9424C23.87 27.1543 23.8696 25.747 22.9424 25.747H9.05763C8.13056 25.747 8.13002 27.1543 9.05763 27.1543ZM22.9424 27.7029H9.05763C8.36878 27.7029 7.80536 27.1395 7.80536 26.4506C7.80536 25.7619 8.36867 25.1984 9.05763 25.1984H22.9424C23.631 25.1984 24.1947 25.7617 24.1947 26.4507C24.1947 27.1391 23.631 27.7029 22.9424 27.7029Z" fill="#F9F9F9"/>
</svg>
