<svg width="280" height="220" viewBox="0 0 280 220" fill="none" xmlns="http://www.w3.org/2000/svg">
<path d="M185.604 67.0257V210.43L98.547 164.758L88.8043 61.9388L85.4849 26.8982L185.604 67.0257Z" fill="#F7971D"/>
<path d="M185.604 100V210.43L98.5466 164.758L88.804 61.9387L185.604 100Z" fill="#D57B28"/>
<path d="M185.604 67.0256L280 33.6572L273.138 166.984L185.604 210.43V67.0256Z" fill="#D57B28"/>
<path d="M280 33.6573L185.604 67.0257L85.4849 26.8982L185.604 0L280 33.6573Z" fill="#934120"/>
<path d="M280 33.6573L185.604 67.0257V0L280 33.6573Z" fill="#80341A"/>
<path d="M185.604 67.0257C185.604 67.0257 180.892 148.592 185.604 210.431C189.351 179.351 187.899 79.94 185.604 67.0257Z" fill="#934120"/>
<path d="M171.831 112.337L98.1255 217.803L0 162.46L66.1056 70.5897L171.831 112.337Z" fill="#BB6028"/>
<path d="M98.1256 217.803L122.291 220L180.892 139.803L171.831 112.337L98.1256 217.803Z" fill="#934120"/>
</svg>
