<svg width="200" height="200" viewBox="0 0 200 200" fill="none" xmlns="http://www.w3.org/2000/svg">
<path d="M75.9257 41.1738L0 109.017L100 198.371L200 109.017L124.074 41.1738H75.9257Z" fill="#0D1E6D"/>
<path d="M162.477 199.125C162.447 199.35 162.411 199.586 162.256 199.764C161.923 200.142 161.285 199.956 160.747 199.942C152.931 199.722 144.146 199.551 133.548 199.638C134.527 189.576 125.535 180.632 127.165 170.639C127.001 171.641 154.031 169.139 156.416 168.68C160.221 167.946 165.632 165.334 165.326 170.538C165.06 175.112 163.193 193.86 162.477 199.125Z" fill="#ED3A3A"/>
<path d="M147.599 179.957C147.917 179.547 148.32 179.144 148.864 179.032C149.519 178.895 150.207 179.237 150.608 179.72C151.011 180.202 151.184 180.801 151.34 181.386C152.456 185.618 153.04 190.625 152.834 193.837C152.78 194.706 145.482 194.774 145.387 193.496C145.125 189.986 145.252 182.976 147.599 179.957Z" fill="#E5E5E5"/>
<mask id="mask0_13_5899" style="mask-type:luminance" maskUnits="userSpaceOnUse" x="126" y="167" width="40" height="33">
<path d="M162.477 199.125C162.447 199.35 162.411 199.586 162.256 199.764C161.923 200.142 161.285 199.956 160.747 199.942C152.931 199.722 144.146 199.551 133.548 199.638C134.527 189.576 125.535 180.632 127.165 170.639C127.001 171.641 154.031 169.139 156.416 168.68C160.221 167.946 165.632 165.334 165.326 170.538C165.06 175.112 163.193 193.86 162.477 199.125Z" fill="white"/>
</mask>
<g mask="url(#mask0_13_5899)">
<g opacity="0.43">
<path d="M153.04 203.295C159.663 206.956 165.501 198.713 167.306 193.999C170.608 185.375 168.237 176.638 168.237 167.824C168.237 161.45 156.851 161.481 157.181 167.824C157.48 173.551 158.68 179.198 159.585 184.86C160.674 191.675 157.27 196.203 152.746 201.26C152.16 201.915 152.178 202.818 153.04 203.295Z" fill="#ED3A3A"/>
</g>
</g>
<mask id="mask1_13_5899" style="mask-type:luminance" maskUnits="userSpaceOnUse" x="126" y="167" width="40" height="33">
<path d="M162.477 199.125C162.447 199.35 162.411 199.586 162.256 199.764C161.923 200.142 161.285 199.956 160.747 199.942C152.931 199.722 144.146 199.551 133.548 199.638C134.527 189.576 125.535 180.632 127.165 170.639C127.001 171.641 154.031 169.139 156.416 168.68C160.221 167.946 165.632 165.334 165.326 170.538C165.06 175.112 163.193 193.86 162.477 199.125Z" fill="white"/>
</mask>
<g mask="url(#mask1_13_5899)">
<g opacity="0.25">
<path d="M137.368 165.793C131.111 168.374 131.345 178.116 130.783 183.33C130.019 190.393 129.018 199.015 131.54 205.864C132.138 207.487 133.756 208.728 135.732 208.715C136.121 208.713 136.508 208.647 136.888 208.576C138.264 208.321 139.648 207.1 139.924 205.864C141.481 198.875 140.78 191.401 140.704 184.313C140.645 178.992 143.254 170.302 138.933 165.973C138.524 165.567 137.871 165.585 137.368 165.793Z" fill="#ED3A3A"/>
</g>
</g>
<path d="M121.901 159.027C129.417 158.572 138.81 158.507 146.344 158.43C154.651 158.345 159.645 158.313 166.49 158.856C166.103 158.842 167.01 160.329 167.159 160.647C168.889 164.343 171.169 169.775 170.595 171.908C170.527 172.165 138.129 172.054 123.051 172.219C123.78 167.086 121.167 164.163 121.901 159.027Z" fill="#0D446D"/>
<mask id="mask2_13_5899" style="mask-type:luminance" maskUnits="userSpaceOnUse" x="121" y="158" width="50" height="15">
<path d="M121.901 159.027C129.417 158.572 138.81 158.507 146.344 158.43C154.651 158.345 159.645 158.313 166.49 158.856C166.103 158.842 167.01 160.329 167.159 160.647C168.889 164.343 171.169 169.775 170.595 171.908C170.527 172.165 138.129 172.054 123.051 172.219C123.78 167.086 121.167 164.163 121.901 159.027Z" fill="white"/>
</mask>
<g mask="url(#mask2_13_5899)">
<g opacity="0.29">
<path d="M123.279 169.863C124.252 173.017 128.234 173.575 131.441 173.942C137.446 174.629 143.713 174.361 149.76 174.528C155.894 174.699 162.02 175 168.154 175.115C172.868 175.203 178.657 175.823 182.38 172.887C183.127 172.298 182.986 171.253 182.38 170.648C179.082 167.345 172.817 167.483 168.154 167.208C161.313 166.803 154.448 166.776 147.595 166.749C144.887 166.738 121.774 164.974 123.279 169.863Z" fill="#0D446D"/>
</g>
</g>
<mask id="mask3_13_5899" style="mask-type:luminance" maskUnits="userSpaceOnUse" x="121" y="158" width="50" height="15">
<path d="M121.901 159.027C129.417 158.572 138.81 158.507 146.344 158.43C154.651 158.345 159.645 158.313 166.49 158.856C166.103 158.842 167.01 160.329 167.159 160.647C168.889 164.343 171.169 169.775 170.595 171.908C170.527 172.165 138.129 172.054 123.051 172.219C123.78 167.086 121.167 164.163 121.901 159.027Z" fill="white"/>
</mask>
<g mask="url(#mask3_13_5899)">
<g opacity="0.29">
<path d="M122.984 158.747C126.915 161.229 132.386 161.068 137.041 161.265C142.234 161.484 147.419 161.554 152.619 161.607C162.117 161.702 173.619 163.412 182.333 159.452C183.367 158.982 183.328 157.528 182.333 157.049C173.762 152.927 162.06 154.407 152.619 154.313C147.419 154.261 142.238 154.227 137.041 154.342C132.37 154.446 126.989 154.178 122.984 156.592C122.072 157.141 122.104 158.19 122.984 158.747Z" fill="#0D446D"/>
</g>
</g>
<path d="M78.9393 20.3611C77.8011 22.2529 77.8333 24.3408 77.8535 26.4467C77.8736 28.5239 77.4325 31.15 78.768 32.9319C79.324 33.6735 80.5105 33.7167 81.0544 32.9319C82.3335 31.0924 81.7615 28.5221 81.5781 26.4467C81.3888 24.303 81.1833 22.1395 79.7269 20.3611C79.5375 20.1289 79.1145 20.0695 78.9393 20.3611Z" fill="#424242"/>
<path d="M120.926 19.5781C119.302 20.6328 119.425 22.4454 119.314 24.1211C119.153 26.5978 118.853 29.0872 118.962 31.5693C119.076 34.1666 123.121 34.0766 123.408 31.5693C123.69 29.098 123.5 26.596 123.357 24.1211C123.262 22.4562 123.361 20.6004 121.709 19.5781C121.502 19.4503 121.133 19.4431 120.926 19.5781Z" fill="#424242"/>
<path d="M99.4863 19.2037C98.4993 23.0574 97.5223 28.0469 98.7571 31.9564C99.3131 33.7167 101.94 33.8931 102.419 31.9564C103.41 27.9389 102.164 23.0232 100.921 19.2037C100.697 18.5161 99.6797 18.4459 99.4863 19.2037Z" fill="#424242"/>
<path d="M85.4396 20.0406C84.4667 21.9162 84.4787 23.7539 84.5533 25.8005C84.6359 28.0468 84.515 30.4101 85.1375 32.5971C85.633 34.3376 88.141 33.7347 88.3666 32.2065C88.6969 29.9728 88.2296 27.5824 88.0201 25.3415C87.8428 23.4444 87.5991 21.6876 86.465 20.0406C86.2494 19.7292 85.635 19.6644 85.4396 20.0406Z" fill="#424242"/>
<path d="M91.8496 20.4169C91.0841 22.1682 91.2675 24.294 91.1909 26.1443C91.1083 28.1063 91.074 30.0124 91.9604 31.8304C92.6735 33.2937 95.1996 32.4819 95.1915 31.0492C95.1774 28.8352 95.0807 26.4413 94.8148 24.2328C94.6234 22.6542 94.134 21.0504 92.5889 20.1487C92.2908 19.9759 91.9604 20.1631 91.8496 20.4169Z" fill="#424242"/>
<path d="M106.239 20.4007C105.6 22.6776 105.395 24.8538 105.517 27.2063C105.616 29.0962 105.528 31.2166 106.972 32.6943C107.411 33.1443 108.172 32.9499 108.503 32.518C109.746 30.8926 109.301 28.6409 109.123 26.7635C108.914 24.5334 108.45 22.494 107.562 20.4007C107.334 19.8715 106.416 19.7689 106.239 20.4007Z" fill="#424242"/>
<path d="M113.42 19.3153C111.641 22.4472 112.091 27.2638 112.612 30.6297C112.933 32.7015 116.115 31.8879 116.353 30.1779C116.798 26.9776 116.8 22.1124 114.762 19.3153C114.462 18.9049 113.698 18.8257 113.42 19.3153Z" fill="#424242"/>
<path d="M115.12 60.4927C115.958 56.4393 116.359 51.2284 116.552 47.1101C116.746 42.9918 117.934 38.591 121.454 35.9252C122.656 35.0127 123.438 34.5195 124.479 33.4593C115.503 33.5349 109.774 32.7663 97.5182 33.0759C90.1595 33.2613 82.8532 33.4539 75.4985 33.7041C76.0042 35.7993 79.056 36.8702 80.452 38.6108C81.1893 39.5305 81.4149 40.6897 81.6204 41.8057C82.7908 48.1757 82.5994 54.6987 83.6146 61.0885C84.6077 61.3693 87.015 60.9158 88.0484 60.806C97.4578 59.8214 105.648 60.6583 115.12 60.4927Z" fill="#E53738"/>
<mask id="mask4_13_5899" style="mask-type:luminance" maskUnits="userSpaceOnUse" x="75" y="33" width="50" height="29">
<path d="M115.12 60.4927C115.958 56.4393 116.359 51.2284 116.552 47.1101C116.746 42.9918 117.934 38.591 121.454 35.9252C122.656 35.0127 123.438 34.5195 124.479 33.4593C115.503 33.5349 109.774 32.7663 97.5182 33.0759C90.1595 33.2613 82.8532 33.4539 75.4985 33.7041C76.0042 35.7993 79.056 36.8702 80.452 38.6108C81.1893 39.5305 81.4149 40.6897 81.6204 41.8057C82.7908 48.1757 82.5994 54.6987 83.6146 61.0885C84.6077 61.3693 87.015 60.9158 88.0484 60.806C97.4578 59.8214 105.648 60.6583 115.12 60.4927Z" fill="white"/>
</mask>
<g mask="url(#mask4_13_5899)">
<g opacity="0.61">
<path d="M60.3824 32.4855C67.725 34.7031 72.3662 39.9445 73.1196 46.8402C73.8347 53.3884 69.5238 62.3359 73.8548 68.1569C75.2327 70.0091 77.5412 71.5516 80.1781 71.3986C95.111 70.5275 92.2365 49.2737 90.7478 40.2037C88.814 28.4303 82.0737 30.835 76.4172 28.9666C70.7728 27.1037 66.0329 28.2791 60.3824 29.1521C58.3599 29.4653 58.7386 31.9888 60.3824 32.4855Z" fill="#E53738"/>
</g>
</g>
<mask id="mask5_13_5899" style="mask-type:luminance" maskUnits="userSpaceOnUse" x="75" y="33" width="50" height="29">
<path d="M115.12 60.4927C115.958 56.4393 116.359 51.2284 116.552 47.1101C116.746 42.9918 117.934 38.591 121.454 35.9252C122.656 35.0127 123.438 34.5195 124.479 33.4593C115.503 33.5349 109.774 32.7663 97.5182 33.0759C90.1595 33.2613 82.8532 33.4539 75.4985 33.7041C76.0042 35.7993 79.056 36.8702 80.452 38.6108C81.1893 39.5305 81.4149 40.6897 81.6204 41.8057C82.7908 48.1757 82.5994 54.6987 83.6146 61.0885C84.6077 61.3693 87.015 60.9158 88.0484 60.806C97.4578 59.8214 105.648 60.6583 115.12 60.4927Z" fill="white"/>
</mask>
<g mask="url(#mask5_13_5899)">
<g opacity="0.45">
<path d="M134.382 26.1029C134.235 25.8491 134.088 25.5971 133.941 25.3433C132.906 23.5614 130.444 22.3518 128.222 22.4112C117.886 22.6956 111.156 27.9191 109.365 38.0924C107.89 46.4765 104.198 59.2688 112.876 64.35C116.937 66.7278 122.745 64.368 123.927 60.3326C125.045 56.5167 123.583 53.4477 123.426 49.6769C123.299 46.6061 124.211 43.584 125.837 40.8895C128.244 36.9026 137.402 31.2994 134.382 26.1029Z" fill="#E53738"/>
</g>
</g>
<path d="M100.216 57.7208C101.062 56.9 100.87 55.6869 100.774 54.6447C100.697 53.8203 100.82 52.7278 99.996 52.2022C99.9154 52.1518 99.7844 52.1572 99.7038 52.2022C98.8094 52.7062 98.8981 53.9661 98.7712 54.8013C98.6181 55.8201 98.4348 56.8892 99.2002 57.7208C99.44 57.9818 99.9718 57.9584 100.216 57.7208Z" fill="#424242"/>
<path d="M72.9906 52.0744C72.064 52.8105 72.5072 54.3315 72.5676 55.3305C72.6401 56.5364 72.4064 58.142 73.2202 59.1536C73.3492 59.3138 73.6232 59.3426 73.746 59.1536C74.4873 58.0124 74.0381 56.3384 73.9717 55.0677C73.9193 54.0579 74.1711 52.7026 73.176 52.0546C73.1176 52.0168 73.037 52.0384 72.9906 52.0744Z" fill="#424242"/>
<path d="M85.3189 52.159C84.8456 53.5143 84.7932 54.7419 84.7086 56.1567C84.6441 57.2258 84.1526 58.4048 84.9443 59.285C85.0651 59.42 85.2908 59.3786 85.4177 59.285C86.4289 58.547 86.1227 56.963 86.1408 55.8903C86.163 54.5151 86.022 53.4027 85.4035 52.1482C85.3854 52.1158 85.329 52.1284 85.3189 52.159Z" fill="#424242"/>
<path d="M79.3541 51.8674C78.7639 53.1021 78.8506 54.4053 78.8264 55.7337C78.8062 56.8388 78.4194 58.2086 79.2313 59.114C79.3199 59.213 79.5052 59.1932 79.5979 59.114C80.5185 58.3292 80.2929 56.7974 80.3291 55.7337C80.3735 54.4071 80.4399 53.0769 79.7752 51.8674C79.6986 51.7324 79.4247 51.7198 79.3541 51.8674Z" fill="#424242"/>
<path d="M92.7076 51.592C91.646 52.6612 91.9603 54.5025 91.9159 55.8507C91.8757 57.0944 91.3439 58.8944 92.6814 59.6756C92.8043 59.7476 93.0038 59.7511 93.1266 59.6756C94.4501 58.8692 93.8962 57.1052 93.8579 55.8507C93.8176 54.5025 94.1621 52.6864 93.1367 51.592C93.036 51.484 92.8104 51.4894 92.7076 51.592Z" fill="#424242"/>
<path d="M124.221 51.7774C123.474 54.0795 123.466 56.3511 123.893 58.727C123.996 59.3048 125.067 59.2922 125.184 58.727C125.674 56.3457 125.652 54.0669 124.81 51.7774C124.717 51.5254 124.308 51.511 124.221 51.7774Z" fill="#424242"/>
<path d="M105.868 52.3966C105.487 53.1489 105.187 53.6259 105.121 54.4989C105.034 55.6329 105.117 56.7795 105.143 57.9152C105.153 58.34 105.467 58.7144 105.924 58.8332C106.134 58.8872 106.283 58.8944 106.49 58.8332C106.936 58.7018 107.278 58.3472 107.272 57.9152C107.25 56.1819 107.844 53.4171 105.951 52.375C105.924 52.3624 105.88 52.3696 105.868 52.3966Z" fill="#424242"/>
<path d="M112.731 51.9736C111.871 52.9707 112.089 54.4377 112.143 55.6239C112.193 56.7434 111.929 58.0754 112.757 58.9736C112.955 59.1878 113.299 59.078 113.45 58.8944C114.236 57.9386 113.821 56.2557 113.797 55.1127C113.775 54.0345 113.801 52.7961 112.971 51.9466C112.898 51.8728 112.786 51.9088 112.731 51.9736Z" fill="#424242"/>
<path d="M118.692 51.5614C117.872 52.4596 118.029 53.6692 118.148 54.7617C118.263 55.8093 118.061 57.2438 118.903 58.0466C119.042 58.1798 119.252 58.1204 119.357 57.9944C120.074 57.1376 119.735 55.5573 119.729 54.5223C119.723 53.4927 119.745 52.348 118.905 51.5614C118.853 51.5128 118.742 51.5056 118.692 51.5614Z" fill="#424242"/>
<path d="M126.006 64.332C128.724 63.927 128.621 56.495 126.675 56.4824C111.78 56.3978 84.9523 56.909 70.8212 56.909C69.4574 56.909 69.7454 59.3047 69.9388 60.5107C70.0859 61.4269 70.3055 62.3646 70.8917 63.1278C71.4759 63.891 71.7982 64.8198 72.8275 64.9278C78.4599 65.5254 87.8007 65.5164 94.0233 65.3544C105.628 65.0538 124.288 64.5876 126.006 64.332Z" fill="#BABDBF"/>
<path d="M121.486 16.8044C121.885 13.4331 120.763 10.3407 118.08 7.9414C115.398 5.54207 112.244 3.17155 108.817 1.7136C106.559 0.752423 100.224 -1.01692 93.423 0.759625C90.5403 1.512 87.6657 2.49296 85.3693 4.22091C81.3425 7.24662 79.5456 11.9661 77.93 16.4408C77.4707 17.7133 77.0135 19.1101 77.5614 20.3539C85.3633 20.1901 93.2417 19.9183 101.046 19.7545C103.513 19.7023 105.981 19.6519 108.445 19.5385C112.201 19.3675 115.95 19.0525 119.677 18.5989C120.293 18.5233 120.956 18.4261 121.401 18.0355C121.847 17.6467 122.042 17.0564 121.486 16.8044Z" fill="#E53738"/>
<mask id="mask6_13_5899" style="mask-type:luminance" maskUnits="userSpaceOnUse" x="77" y="0" width="45" height="21">
<path d="M121.486 16.8044C121.885 13.4331 120.763 10.3407 118.08 7.9414C115.398 5.54207 112.244 3.17155 108.817 1.7136C106.559 0.752423 100.224 -1.01692 93.423 0.759625C90.5403 1.512 87.6657 2.49296 85.3693 4.22091C81.3425 7.24662 79.5456 11.9661 77.93 16.4408C77.4707 17.7133 77.0135 19.1101 77.5614 20.3539C85.3633 20.1901 93.2417 19.9183 101.046 19.7545C103.513 19.7023 105.981 19.6519 108.445 19.5385C112.201 19.3675 115.95 19.0525 119.677 18.5989C120.293 18.5233 120.956 18.4261 121.401 18.0355C121.847 17.6467 122.042 17.0564 121.486 16.8044Z" fill="white"/>
</mask>
<g mask="url(#mask6_13_5899)">
<g opacity="0.61">
<path d="M88.7434 26.3207C88.0564 21.0504 86.5053 15.5372 89.1724 10.132C93.4692 1.4292 95.7717 3.99411 100.485 -1.12855C102.03 -2.8079 106.233 -5.20363 104.325 -6.85778C93.9083 -15.8845 76.3385 -1.80171 71.651 6.60945C68.9818 11.3973 68.301 17.6287 71.375 22.4238C74.0562 26.6051 78.1878 28.9198 83.3024 26.9615C83.8704 26.7437 84.358 25.9733 84.2875 25.4279L88.7434 26.3207Z" fill="#E53738"/>
</g>
</g>
<mask id="mask7_13_5899" style="mask-type:luminance" maskUnits="userSpaceOnUse" x="77" y="0" width="45" height="21">
<path d="M121.486 16.8044C121.885 13.4331 120.763 10.3407 118.08 7.9414C115.398 5.54207 112.244 3.17155 108.817 1.7136C106.559 0.752423 100.224 -1.01692 93.423 0.759625C90.5403 1.512 87.6657 2.49296 85.3693 4.22091C81.3425 7.24662 79.5456 11.9661 77.93 16.4408C77.4707 17.7133 77.0135 19.1101 77.5614 20.3539C85.3633 20.1901 93.2417 19.9183 101.046 19.7545C103.513 19.7023 105.981 19.6519 108.445 19.5385C112.201 19.3675 115.95 19.0525 119.677 18.5989C120.293 18.5233 120.956 18.4261 121.401 18.0355C121.847 17.6467 122.042 17.0564 121.486 16.8044Z" fill="white"/>
</mask>
<g mask="url(#mask7_13_5899)">
<g opacity="0.45">
<path d="M126.818 27.7246C141.95 13.4619 123.321 -15.6901 101.569 -7.64975C98.445 -6.49418 96.7951 -3.71685 98.9828 -1.32112C103.161 3.25435 109.152 2.64597 113.017 10.9635C115.757 16.8566 114.975 25.9769 118.245 31.6306C118.998 32.9337 125.718 28.7614 126.818 27.7246Z" fill="#E53738"/>
</g>
</g>
<path d="M124 20.8218C125.114 20.5374 124.86 15.9584 123.905 15.9584C113.505 15.9584 97.7439 15.9584 82.5632 16.4696C76.9792 16.6585 74.3423 17.1517 74.2557 17.4073C73.9697 18.2605 73.8548 21.8208 74.161 21.8442C77.6943 22.0998 85.9132 21.8478 92.3009 21.6732C100.272 21.4554 109.065 21.513 117.036 21.2952C119.715 21.225 122.664 21.1638 124 20.8218Z" fill="#BABDBF"/>
<path d="M91.8255 199.38C125.815 199.296 140.21 200.066 140.137 199.722C137.694 188.233 134.473 175.464 132.307 163.932C128.145 141.753 124.497 119.499 120.851 97.2459C119.935 91.6571 119.02 86.0664 118.104 80.4758C117.443 76.4439 116.986 71.7892 120.116 68.8247C122.175 66.8754 125.462 66.0798 126.884 63.72C121.452 62.4169 115.739 62.5159 110.116 62.6239C97.1999 62.8723 84.2814 63.1189 71.365 63.3673C72.1103 65.4948 74.5095 65.8656 76.5299 67.1742C80.583 69.7985 80.3835 75.1515 79.7712 79.5902C77.0799 99.0692 74.3886 118.548 71.6994 138.026C71.083 142.489 70.4665 146.955 69.8481 151.419C68.5649 160.703 67.2838 169.991 66.4357 179.315C65.8233 186.045 63.9721 194.11 62.991 198.268C62.6083 199.893 82.5209 199.404 91.8255 199.38Z" fill="#E5E5E5"/>
<mask id="mask8_13_5899" style="mask-type:luminance" maskUnits="userSpaceOnUse" x="62" y="62" width="79" height="138">
<path d="M91.8255 199.38C125.815 199.296 140.21 200.066 140.137 199.722C137.694 188.233 134.473 175.464 132.307 163.932C128.145 141.753 124.497 119.499 120.851 97.2459C119.935 91.6571 119.02 86.0664 118.104 80.4758C117.443 76.4439 116.986 71.7892 120.116 68.8247C122.175 66.8754 125.462 66.0798 126.884 63.72C121.452 62.4169 115.739 62.5159 110.116 62.6239C97.1999 62.8723 84.2814 63.1189 71.365 63.3673C72.1103 65.4948 74.5095 65.8656 76.5299 67.1742C80.583 69.7985 80.3835 75.1515 79.7712 79.5902C77.0799 99.0692 74.3886 118.548 71.6994 138.026C71.083 142.489 70.4665 146.955 69.8481 151.419C68.5649 160.703 67.2838 169.991 66.4357 179.315C65.8233 186.045 63.9721 194.11 62.991 198.268C62.6083 199.893 82.5209 199.404 91.8255 199.38Z" fill="white"/>
</mask>
<g mask="url(#mask8_13_5899)">
<path d="M65.1162 58.6154C67.3723 63.3888 68.9134 69.1541 70.1865 74.2245C71.7477 80.4434 70.4544 86.7198 69.1571 92.8792C66.0951 107.421 62.9708 121.954 59.8766 136.492C56.7805 151.041 53.8636 165.63 51.1421 180.238C49.8408 187.22 48.5395 194.202 47.2402 201.182C45.6931 209.485 43.3181 217.731 45.1331 226.12C47.1052 235.239 62.0361 236.215 66.8264 228.655C71.4435 221.369 71.9209 212.619 73.3733 204.49C74.8015 196.497 76.2398 188.505 77.6579 180.51C80.5567 164.159 83.0667 147.747 85.5686 131.346C86.7954 123.304 88.0242 115.26 89.251 107.218C90.4636 99.2726 92.4378 91.0811 92.194 83.0371C91.9704 75.6753 90.1273 68.1677 84.7306 62.4115C80.0028 57.368 74.862 55.3881 67.7148 54.5727C65.1605 54.2793 64.3567 57.0098 65.1162 58.6154Z" fill="#E5E5E5"/>
</g>
<mask id="mask9_13_5899" style="mask-type:luminance" maskUnits="userSpaceOnUse" x="62" y="62" width="79" height="138">
<path d="M91.8255 199.38C125.815 199.296 140.21 200.066 140.137 199.722C137.694 188.233 134.473 175.464 132.307 163.932C128.145 141.753 124.497 119.499 120.851 97.2459C119.935 91.6571 119.02 86.0664 118.104 80.4758C117.443 76.4439 116.986 71.7892 120.116 68.8247C122.175 66.8754 125.462 66.0798 126.884 63.72C121.452 62.4169 115.739 62.5159 110.116 62.6239C97.1999 62.8723 84.2814 63.1189 71.365 63.3673C72.1103 65.4948 74.5095 65.8656 76.5299 67.1742C80.583 69.7985 80.3835 75.1515 79.7712 79.5902C77.0799 99.0692 74.3886 118.548 71.6994 138.026C71.083 142.489 70.4665 146.955 69.8481 151.419C68.5649 160.703 67.2838 169.991 66.4357 179.315C65.8233 186.045 63.9721 194.11 62.991 198.268C62.6083 199.893 82.5209 199.404 91.8255 199.38Z" fill="white"/>
</mask>
<g mask="url(#mask9_13_5899)">
<g opacity="0.39">
<path d="M136.737 52.0528C128.615 54.1911 117.241 52.555 112.945 62.0245C109.572 69.4583 107.689 74.4657 106.93 82.2433C105.159 100.363 110.582 122.811 115.173 140.301C119.572 157.064 123.587 173.962 128.842 190.532C131.316 198.333 133.824 206.425 138.222 213.564C141.94 219.599 148.153 226.808 156.446 227.4C157.33 227.463 158.303 226.912 158.718 226.236C162.123 220.677 160.429 213.515 158.98 207.678C157.214 200.563 154.166 193.748 151.91 186.748C147.218 172.19 143.667 157.343 139.827 142.594C135.895 127.485 131.292 112.508 130.444 96.9471C130.099 90.6329 129.02 82.7635 130.637 76.5609C132.045 71.1556 138.933 65.7414 143.163 61.9201C147.734 57.791 143.147 50.3662 136.737 52.0528Z" fill="#E5E5E5"/>
</g>
</g>
<path d="M73.5627 32.4621C72.7992 35.5022 78.1253 34.3827 81.5599 34.3988C86.3563 34.4222 91.1546 34.4313 95.951 34.4277C105.804 34.4205 116.045 35.0126 125.839 34.0442C127.952 33.8355 128.006 31.2237 125.839 31.0689C116.009 30.3652 105.818 31.1392 95.951 31.1841C91.1546 31.2057 86.3563 31.2165 81.5599 31.2111C78.1273 31.2093 74.0058 30.6927 73.5627 32.4621Z" fill="#424242"/>
<path d="M70.9136 52.8753C89.7344 53.8815 108.732 52.9887 127.553 52.4812C128.687 52.4506 128.691 50.872 127.553 50.9026C108.692 51.4102 89.7646 50.8792 70.9136 51.5956C69.989 51.6316 69.995 52.8267 70.9136 52.8753Z" fill="#424242"/>
<mask id="mask10_13_5899" style="mask-type:luminance" maskUnits="userSpaceOnUse" x="62" y="62" width="79" height="138">
<path d="M91.8255 199.38C125.815 199.296 140.21 200.066 140.137 199.722C137.694 188.233 134.473 175.464 132.307 163.932C128.145 141.753 124.497 119.499 120.851 97.2459C119.935 91.6571 119.02 86.0664 118.104 80.4758C117.443 76.4439 116.986 71.7892 120.116 68.8247C122.175 66.8754 125.462 66.0798 126.884 63.72C121.452 62.4169 115.739 62.5159 110.116 62.6239C97.1999 62.8723 84.2814 63.1189 71.365 63.3673C72.1103 65.4948 74.5095 65.8656 76.5299 67.1742C80.583 69.7985 80.3835 75.1515 79.7712 79.5902C77.0799 99.0692 74.3886 118.548 71.6994 138.026C71.083 142.489 70.4665 146.955 69.8481 151.419C68.5649 160.703 67.2838 169.991 66.4357 179.315C65.8233 186.045 63.9721 194.11 62.991 198.268C62.6083 199.893 82.5209 199.404 91.8255 199.38Z" fill="white"/>
</mask>
<g mask="url(#mask10_13_5899)">
<path d="M64.9711 84.3835C73.7801 91.3889 89.6498 90.2639 100.735 90.6869C107.568 90.9479 114.421 91.0847 121.258 91.2107C128.286 91.3403 136.431 92.0854 143.203 90.3053C152.212 87.9366 152.534 75.9345 143.203 73.6954C136.654 72.124 129.141 72.916 122.398 73.1518C115.181 73.402 107.941 73.7386 100.735 74.1669C89.6639 74.8257 73.5908 73.9869 64.9711 81.1957C64.0162 81.9913 63.9759 83.5915 64.9711 84.3835Z" fill="#E53738"/>
<path d="M45.2962 112.799C45.3284 112.932 45.3607 113.067 45.3909 113.201C45.7676 114.792 47.4255 116.163 49.1498 116.559C66.1918 120.474 84.4405 119.274 101.934 119.468C110.87 119.567 119.808 119.761 128.74 119.985C137.406 120.201 146.422 121.126 153.237 115.415C155.805 113.262 155.401 109.747 153.237 107.542C147.143 101.334 137.232 101.769 128.74 101.557C119.802 101.334 110.874 101.325 101.934 101.463C84.4747 101.735 65.5935 101.595 49.1498 107.284C46.6781 108.139 45.4956 109.61 45.1975 111.923C45.1491 112.216 45.1813 112.509 45.2962 112.799Z" fill="#E53738"/>
<path d="M43.598 144.783C52.1513 149.914 63.0433 150.389 73.0469 151.129C83.6609 151.914 94.2648 152.416 104.901 152.868C115.497 153.32 126.141 153.899 136.751 153.761C143.65 153.671 160.374 153.375 160.372 144.437C160.372 135.515 143.775 134.456 136.751 133.925C126.179 133.124 115.505 133.072 104.901 132.942C94.2689 132.813 83.675 132.764 73.0469 133.067C63.1057 133.349 52.3064 133.488 43.598 138.234C40.7617 139.78 40.9612 143.2 43.598 144.783Z" fill="#E53738"/>
<path d="M32.2145 177.41C42.2444 181.89 51.7343 183.793 62.8842 184.677C73.4579 185.515 84.0034 185.587 94.6133 185.728C105.169 185.866 115.692 186.075 126.242 186.378C131.284 186.522 136.34 186.583 141.374 186.462C146.569 186.338 152.725 186.603 157.135 183.8C159.635 182.213 160.922 179.324 159.196 176.775C153.841 168.862 139.968 167.46 130.575 166.369C119.818 165.118 108.728 165.208 97.8928 165.435C76.3405 165.885 54.5102 165.853 33.3547 169.604C29.4044 170.306 28.6248 175.806 32.2145 177.41Z" fill="#E53738"/>
</g>
<path d="M131.01 87.6863C129.864 88.7105 139.412 89.2217 145.731 101.028C146.585 102.622 149.472 101.897 149.458 100.126C149.392 91.5293 158.74 93.6892 164.617 91.441C165.811 90.9838 166.984 90.2135 165.934 89.7149C157.965 85.9278 145.236 91.6121 145.457 100.126C146.7 99.8252 147.941 99.5246 149.184 99.224C145.33 93.9934 138.33 87.6089 131.022 87.5927C130.964 87.5909 130.952 87.6701 131.01 87.6863Z" fill="white"/>
<path d="M66.5041 41.6904C66.917 42.4698 61.4458 41.0515 55.2596 46.5467C54.4236 47.2901 52.9672 46.3667 53.37 45.3749C55.3301 40.5637 49.601 40.1065 46.809 37.7953C46.241 37.3256 45.7555 36.6848 46.4565 36.5912C51.7746 35.8892 57.6446 41.352 55.6161 46.0895C54.9856 45.6989 54.3571 45.3083 53.7266 44.9177C57.0585 42.6714 62.4148 40.3405 66.5181 41.6347C66.5524 41.6473 66.5403 41.6922 66.5041 41.6904Z" fill="#0D1E6D"/>
<path d="M58.666 123.1C59.6632 123.521 53.6783 125.813 52.6731 134.676C52.5361 135.873 50.5016 136.002 50.0524 134.865C47.8808 129.343 42.4459 132.651 38.1028 132.419C37.2185 132.372 36.2696 132.118 36.8135 131.583C40.9431 127.519 50.562 128.542 52.6147 134.04C51.7405 134.103 50.8682 134.166 49.9939 134.229C51.1159 130.086 53.9543 124.555 58.6318 123.043C58.6721 123.03 58.6983 123.079 58.666 123.1Z" fill="white"/>
</svg>
