<svg width="27" height="34" viewBox="0 0 27 34" fill="none" xmlns="http://www.w3.org/2000/svg">
<mask id="path-1-outside-1_13_417" maskUnits="userSpaceOnUse" x="0" y="0" width="28" height="34" fill="black">
<rect fill="white" width="28" height="34"/>
<path d="M25.8799 10.6048C26.1187 11.4253 25.9277 12.7768 25.9277 13.5973C24.6859 17.7481 23.2053 18.3756 20.0532 19.9201L19.0025 20.451C18.6682 20.5958 18.4771 20.644 18.2383 20.8371L17.2831 21.3198L16.8055 21.4646C16.6145 21.6576 16.4712 21.8024 16.4235 21.9472C16.2802 22.092 16.1847 22.3333 15.9936 22.5264C15.9459 22.7195 15.8981 22.816 15.8981 23.009C15.8503 23.2504 15.8026 23.4434 15.8026 23.5882C15.8026 23.6848 15.8026 23.7813 15.8503 23.8296C15.8981 24.0709 15.9459 24.3122 15.9459 24.457C15.9459 24.4087 15.4683 24.3605 15.0384 24.264C14.6086 24.1674 14.131 24.3122 13.9877 24.3122C13.9399 24.3605 13.7967 24.3605 13.6534 24.3605C13.5101 24.3605 13.3668 24.3605 13.3191 24.3122L12.8415 24.2157C12.4594 24.2157 12.1728 24.264 11.8385 24.3122L10.8356 24.3605V21.9955C10.8356 21.6576 10.9311 21.4646 10.9788 21.1267C11.1221 20.7888 11.3609 20.3062 11.4087 19.9683C11.6475 19.9683 11.8385 19.9683 11.9818 20.0166L12.1251 19.7753C12.4594 19.1961 12.8415 18.7134 13.2713 18.1825C13.7489 17.6516 14.2265 17.2655 14.7041 16.9276C15.2295 16.5897 15.7071 16.3484 16.2324 16.1071C16.5667 15.914 17.8085 15.2383 18.1428 15.1418C18.4771 14.9487 19.289 14.4661 19.4801 14.273C20.1487 13.0664 20.6263 12.1493 20.1965 11.2805L19.8144 10.1704C19.5756 9.44646 18.8114 9.1086 18.2861 8.52941C17.904 8.04676 17.5697 7.80543 17.2354 7.51584L16.71 7.22624C16.6145 7.08145 16.2802 7.03318 16.1369 7.03318C15.8981 7.03318 15.4683 7.12971 15.2295 7.08145H14.5131C14.0355 7.12971 14.0355 6.98492 13.4623 7.17798C12.937 7.32278 12.4594 7.37104 11.8385 7.75716C10.74 8.33635 10.5012 8.67421 9.78484 9.73605C9.30725 10.5566 8.92517 11.3288 8.54309 12.1011C8.25653 12.9216 7.92221 13.6938 7.82669 14.4178C7.73117 14.3213 7.68341 14.1765 7.63565 14.0317C7.63565 13.8869 7.54013 13.8386 7.1103 13.6455C7.06254 13.5008 6.91926 13.4525 6.68046 13.4525C6.48942 13.4525 6.58494 13.6938 5.39094 13.3077C5.29542 13.356 5.19991 13.4042 5.05663 13.4042H4.72231C4.62679 13.4042 4.53127 13.356 4.43575 13.2112C4.38799 13.1629 4.38799 12.9216 4.38799 12.7285C4.34023 12.4872 4.29247 12.3424 4.24471 12.2941C4.19695 12.2459 4.10143 12.1976 4.00591 12.1976C3.91039 12.1976 3.81487 12.2459 3.67159 12.2941L2.7164 12.5837C2.57312 12.632 2.52536 12.6802 2.52536 12.6802C2.4776 12.6802 2.42984 12.632 2.38208 12.5837C2.2388 12.5354 2.19104 12.4872 2.14328 12.4872C2.09552 12.4872 2.04776 12.4872 2 12.5354C2.14328 11.9563 2.38208 10.991 2.62088 10.46C2.81192 9.88085 3.05072 9.30166 3.33727 8.86727C3.86263 7.85369 4.48351 6.84012 5.19991 6.06787C5.96406 5.24736 6.72822 4.66817 7.68341 3.94419C8.59085 3.31674 9.40277 2.73756 10.5012 2.20664C11.4087 1.77225 12.3161 1.43439 13.4146 1.19306C13.9399 1.04826 14.4175 1.04826 15.0384 1C15.6593 1 17.4264 1.09653 18.0473 1.24133C18.7637 1.48265 19.3368 1.72398 19.8622 2.01357C20.483 2.44796 21.1994 2.78582 21.5815 3.31674C22.0113 3.84766 22.8233 4.33032 23.0621 4.86124C23.4441 5.29563 23.9695 5.77828 24.2561 6.21267C24.6381 7.08145 25.0202 7.85369 25.3545 8.86727L25.7366 10.0739C25.7844 10.267 25.8799 10.46 25.8799 10.6048ZM14.5131 18.0377L14.9429 17.1689C14.5131 17.5068 14.0832 17.7481 13.7011 18.086C13.3191 18.4238 13.0803 18.7617 12.746 19.0995C12.5072 19.4374 12.2684 19.6787 12.0773 20.0649C12.2206 20.0649 12.3161 20.1131 12.4594 20.1131C12.5549 20.1614 12.6504 20.1614 12.7937 20.1614C12.8415 20.0166 12.937 19.9201 13.0325 19.8235C13.1758 19.5822 13.3668 19.2926 13.6056 19.0513C13.7967 18.8582 13.9877 18.6652 14.131 18.4238C14.2743 18.279 14.4175 18.1825 14.5131 18.0377ZM15.7548 31.4555C15.7548 31.7451 15.7548 31.9382 15.8026 32.083L15.9459 33C15.9459 32.9517 15.7548 32.9035 15.4205 32.9035C14.8951 32.9035 14.2743 32.9517 14.131 33H13.3668L12.746 32.8552C12.3161 32.8552 11.934 32.9517 11.552 33H10.6923L10.549 31.5038V27.7391L10.9788 27.6908L11.4087 27.7391H13.6056C13.8444 27.7391 13.9877 27.7391 14.0832 27.6908L14.4175 27.5943C14.4653 27.5943 14.5131 27.5943 14.5608 27.6425C14.6086 27.6908 14.6563 27.7391 14.6563 27.8839C14.6563 27.9321 14.6563 27.9804 14.7041 28.0287C14.8474 28.1735 15.0862 28.1252 15.325 28.1735C15.3727 27.9321 15.4205 27.7873 15.5638 27.5943L15.7548 28.3183L15.8503 29.7179C15.8503 30.0558 15.8026 30.4419 15.7548 30.7798V31.4555Z"/>
</mask>
<path d="M25.8799 10.6048C26.1187 11.4253 25.9277 12.7768 25.9277 13.5973C24.6859 17.7481 23.2053 18.3756 20.0532 19.9201L19.0025 20.451C18.6682 20.5958 18.4771 20.644 18.2383 20.8371L17.2831 21.3198L16.8055 21.4646C16.6145 21.6576 16.4712 21.8024 16.4235 21.9472C16.2802 22.092 16.1847 22.3333 15.9936 22.5264C15.9459 22.7195 15.8981 22.816 15.8981 23.009C15.8503 23.2504 15.8026 23.4434 15.8026 23.5882C15.8026 23.6848 15.8026 23.7813 15.8503 23.8296C15.8981 24.0709 15.9459 24.3122 15.9459 24.457C15.9459 24.4087 15.4683 24.3605 15.0384 24.264C14.6086 24.1674 14.131 24.3122 13.9877 24.3122C13.9399 24.3605 13.7967 24.3605 13.6534 24.3605C13.5101 24.3605 13.3668 24.3605 13.3191 24.3122L12.8415 24.2157C12.4594 24.2157 12.1728 24.264 11.8385 24.3122L10.8356 24.3605V21.9955C10.8356 21.6576 10.9311 21.4646 10.9788 21.1267C11.1221 20.7888 11.3609 20.3062 11.4087 19.9683C11.6475 19.9683 11.8385 19.9683 11.9818 20.0166L12.1251 19.7753C12.4594 19.1961 12.8415 18.7134 13.2713 18.1825C13.7489 17.6516 14.2265 17.2655 14.7041 16.9276C15.2295 16.5897 15.7071 16.3484 16.2324 16.1071C16.5667 15.914 17.8085 15.2383 18.1428 15.1418C18.4771 14.9487 19.289 14.4661 19.4801 14.273C20.1487 13.0664 20.6263 12.1493 20.1965 11.2805L19.8144 10.1704C19.5756 9.44646 18.8114 9.1086 18.2861 8.52941C17.904 8.04676 17.5697 7.80543 17.2354 7.51584L16.71 7.22624C16.6145 7.08145 16.2802 7.03318 16.1369 7.03318C15.8981 7.03318 15.4683 7.12971 15.2295 7.08145H14.5131C14.0355 7.12971 14.0355 6.98492 13.4623 7.17798C12.937 7.32278 12.4594 7.37104 11.8385 7.75716C10.74 8.33635 10.5012 8.67421 9.78484 9.73605C9.30725 10.5566 8.92517 11.3288 8.54309 12.1011C8.25653 12.9216 7.92221 13.6938 7.82669 14.4178C7.73117 14.3213 7.68341 14.1765 7.63565 14.0317C7.63565 13.8869 7.54013 13.8386 7.1103 13.6455C7.06254 13.5008 6.91926 13.4525 6.68046 13.4525C6.48942 13.4525 6.58494 13.6938 5.39094 13.3077C5.29542 13.356 5.19991 13.4042 5.05663 13.4042H4.72231C4.62679 13.4042 4.53127 13.356 4.43575 13.2112C4.38799 13.1629 4.38799 12.9216 4.38799 12.7285C4.34023 12.4872 4.29247 12.3424 4.24471 12.2941C4.19695 12.2459 4.10143 12.1976 4.00591 12.1976C3.91039 12.1976 3.81487 12.2459 3.67159 12.2941L2.7164 12.5837C2.57312 12.632 2.52536 12.6802 2.52536 12.6802C2.4776 12.6802 2.42984 12.632 2.38208 12.5837C2.2388 12.5354 2.19104 12.4872 2.14328 12.4872C2.09552 12.4872 2.04776 12.4872 2 12.5354C2.14328 11.9563 2.38208 10.991 2.62088 10.46C2.81192 9.88085 3.05072 9.30166 3.33727 8.86727C3.86263 7.85369 4.48351 6.84012 5.19991 6.06787C5.96406 5.24736 6.72822 4.66817 7.68341 3.94419C8.59085 3.31674 9.40277 2.73756 10.5012 2.20664C11.4087 1.77225 12.3161 1.43439 13.4146 1.19306C13.9399 1.04826 14.4175 1.04826 15.0384 1C15.6593 1 17.4264 1.09653 18.0473 1.24133C18.7637 1.48265 19.3368 1.72398 19.8622 2.01357C20.483 2.44796 21.1994 2.78582 21.5815 3.31674C22.0113 3.84766 22.8233 4.33032 23.0621 4.86124C23.4441 5.29563 23.9695 5.77828 24.2561 6.21267C24.6381 7.08145 25.0202 7.85369 25.3545 8.86727L25.7366 10.0739C25.7844 10.267 25.8799 10.46 25.8799 10.6048ZM14.5131 18.0377L14.9429 17.1689C14.5131 17.5068 14.0832 17.7481 13.7011 18.086C13.3191 18.4238 13.0803 18.7617 12.746 19.0995C12.5072 19.4374 12.2684 19.6787 12.0773 20.0649C12.2206 20.0649 12.3161 20.1131 12.4594 20.1131C12.5549 20.1614 12.6504 20.1614 12.7937 20.1614C12.8415 20.0166 12.937 19.9201 13.0325 19.8235C13.1758 19.5822 13.3668 19.2926 13.6056 19.0513C13.7967 18.8582 13.9877 18.6652 14.131 18.4238C14.2743 18.279 14.4175 18.1825 14.5131 18.0377ZM15.7548 31.4555C15.7548 31.7451 15.7548 31.9382 15.8026 32.083L15.9459 33C15.9459 32.9517 15.7548 32.9035 15.4205 32.9035C14.8951 32.9035 14.2743 32.9517 14.131 33H13.3668L12.746 32.8552C12.3161 32.8552 11.934 32.9517 11.552 33H10.6923L10.549 31.5038V27.7391L10.9788 27.6908L11.4087 27.7391H13.6056C13.8444 27.7391 13.9877 27.7391 14.0832 27.6908L14.4175 27.5943C14.4653 27.5943 14.5131 27.5943 14.5608 27.6425C14.6086 27.6908 14.6563 27.7391 14.6563 27.8839C14.6563 27.9321 14.6563 27.9804 14.7041 28.0287C14.8474 28.1735 15.0862 28.1252 15.325 28.1735C15.3727 27.9321 15.4205 27.7873 15.5638 27.5943L15.7548 28.3183L15.8503 29.7179C15.8503 30.0558 15.8026 30.4419 15.7548 30.7798V31.4555Z" fill="url(#paint0_linear_13_417)"/>
<path d="M25.8799 10.6048C26.1187 11.4253 25.9277 12.7768 25.9277 13.5973C24.6859 17.7481 23.2053 18.3756 20.0532 19.9201L19.0025 20.451C18.6682 20.5958 18.4771 20.644 18.2383 20.8371L17.2831 21.3198L16.8055 21.4646C16.6145 21.6576 16.4712 21.8024 16.4235 21.9472C16.2802 22.092 16.1847 22.3333 15.9936 22.5264C15.9459 22.7195 15.8981 22.816 15.8981 23.009C15.8503 23.2504 15.8026 23.4434 15.8026 23.5882C15.8026 23.6848 15.8026 23.7813 15.8503 23.8296C15.8981 24.0709 15.9459 24.3122 15.9459 24.457C15.9459 24.4087 15.4683 24.3605 15.0384 24.264C14.6086 24.1674 14.131 24.3122 13.9877 24.3122C13.9399 24.3605 13.7967 24.3605 13.6534 24.3605C13.5101 24.3605 13.3668 24.3605 13.3191 24.3122L12.8415 24.2157C12.4594 24.2157 12.1728 24.264 11.8385 24.3122L10.8356 24.3605V21.9955C10.8356 21.6576 10.9311 21.4646 10.9788 21.1267C11.1221 20.7888 11.3609 20.3062 11.4087 19.9683C11.6475 19.9683 11.8385 19.9683 11.9818 20.0166L12.1251 19.7753C12.4594 19.1961 12.8415 18.7134 13.2713 18.1825C13.7489 17.6516 14.2265 17.2655 14.7041 16.9276C15.2295 16.5897 15.7071 16.3484 16.2324 16.1071C16.5667 15.914 17.8085 15.2383 18.1428 15.1418C18.4771 14.9487 19.289 14.4661 19.4801 14.273C20.1487 13.0664 20.6263 12.1493 20.1965 11.2805L19.8144 10.1704C19.5756 9.44646 18.8114 9.1086 18.2861 8.52941C17.904 8.04676 17.5697 7.80543 17.2354 7.51584L16.71 7.22624C16.6145 7.08145 16.2802 7.03318 16.1369 7.03318C15.8981 7.03318 15.4683 7.12971 15.2295 7.08145H14.5131C14.0355 7.12971 14.0355 6.98492 13.4623 7.17798C12.937 7.32278 12.4594 7.37104 11.8385 7.75716C10.74 8.33635 10.5012 8.67421 9.78484 9.73605C9.30725 10.5566 8.92517 11.3288 8.54309 12.1011C8.25653 12.9216 7.92221 13.6938 7.82669 14.4178C7.73117 14.3213 7.68341 14.1765 7.63565 14.0317C7.63565 13.8869 7.54013 13.8386 7.1103 13.6455C7.06254 13.5008 6.91926 13.4525 6.68046 13.4525C6.48942 13.4525 6.58494 13.6938 5.39094 13.3077C5.29542 13.356 5.19991 13.4042 5.05663 13.4042H4.72231C4.62679 13.4042 4.53127 13.356 4.43575 13.2112C4.38799 13.1629 4.38799 12.9216 4.38799 12.7285C4.34023 12.4872 4.29247 12.3424 4.24471 12.2941C4.19695 12.2459 4.10143 12.1976 4.00591 12.1976C3.91039 12.1976 3.81487 12.2459 3.67159 12.2941L2.7164 12.5837C2.57312 12.632 2.52536 12.6802 2.52536 12.6802C2.4776 12.6802 2.42984 12.632 2.38208 12.5837C2.2388 12.5354 2.19104 12.4872 2.14328 12.4872C2.09552 12.4872 2.04776 12.4872 2 12.5354C2.14328 11.9563 2.38208 10.991 2.62088 10.46C2.81192 9.88085 3.05072 9.30166 3.33727 8.86727C3.86263 7.85369 4.48351 6.84012 5.19991 6.06787C5.96406 5.24736 6.72822 4.66817 7.68341 3.94419C8.59085 3.31674 9.40277 2.73756 10.5012 2.20664C11.4087 1.77225 12.3161 1.43439 13.4146 1.19306C13.9399 1.04826 14.4175 1.04826 15.0384 1C15.6593 1 17.4264 1.09653 18.0473 1.24133C18.7637 1.48265 19.3368 1.72398 19.8622 2.01357C20.483 2.44796 21.1994 2.78582 21.5815 3.31674C22.0113 3.84766 22.8233 4.33032 23.0621 4.86124C23.4441 5.29563 23.9695 5.77828 24.2561 6.21267C24.6381 7.08145 25.0202 7.85369 25.3545 8.86727L25.7366 10.0739C25.7844 10.267 25.8799 10.46 25.8799 10.6048ZM14.5131 18.0377L14.9429 17.1689C14.5131 17.5068 14.0832 17.7481 13.7011 18.086C13.3191 18.4238 13.0803 18.7617 12.746 19.0995C12.5072 19.4374 12.2684 19.6787 12.0773 20.0649C12.2206 20.0649 12.3161 20.1131 12.4594 20.1131C12.5549 20.1614 12.6504 20.1614 12.7937 20.1614C12.8415 20.0166 12.937 19.9201 13.0325 19.8235C13.1758 19.5822 13.3668 19.2926 13.6056 19.0513C13.7967 18.8582 13.9877 18.6652 14.131 18.4238C14.2743 18.279 14.4175 18.1825 14.5131 18.0377ZM15.7548 31.4555C15.7548 31.7451 15.7548 31.9382 15.8026 32.083L15.9459 33C15.9459 32.9517 15.7548 32.9035 15.4205 32.9035C14.8951 32.9035 14.2743 32.9517 14.131 33H13.3668L12.746 32.8552C12.3161 32.8552 11.934 32.9517 11.552 33H10.6923L10.549 31.5038V27.7391L10.9788 27.6908L11.4087 27.7391H13.6056C13.8444 27.7391 13.9877 27.7391 14.0832 27.6908L14.4175 27.5943C14.4653 27.5943 14.5131 27.5943 14.5608 27.6425C14.6086 27.6908 14.6563 27.7391 14.6563 27.8839C14.6563 27.9321 14.6563 27.9804 14.7041 28.0287C14.8474 28.1735 15.0862 28.1252 15.325 28.1735C15.3727 27.9321 15.4205 27.7873 15.5638 27.5943L15.7548 28.3183L15.8503 29.7179C15.8503 30.0558 15.8026 30.4419 15.7548 30.7798V31.4555Z" stroke="#42210B" stroke-width="2" mask="url(#path-1-outside-1_13_417)"/>
<defs>
<linearGradient id="paint0_linear_13_417" x1="14.0109" y1="0.46908" x2="14.0109" y2="30.635" gradientUnits="userSpaceOnUse">
<stop stop-color="#F4D6A6"/>
<stop offset="0.22" stop-color="#F5DCB2"/>
<stop offset="0.42" stop-color="#F5DCB2"/>
<stop offset="0.59" stop-color="#F7EDD2"/>
<stop offset="1" stop-color="white"/>
</linearGradient>
</defs>
</svg>
