<svg width="32" height="32" viewBox="0 0 32 32" fill="none" xmlns="http://www.w3.org/2000/svg">
<path d="M31.6727 4.55851C31.4869 2.17029 29.4558 0.296396 26.971 0.201278C19.9769 -0.0664218 13.0135 -0.0681398 6.08143 0.202408C5.57927 0.221773 5.08125 0.31576 4.60867 0.480937C4.37385 0.562955 4.14613 0.662632 3.92729 0.778256C2.85081 1.34783 2.11975 2.33603 1.55194 3.35785C0.956327 4.42979 0.347701 5.61962 0.271993 6.85104C0.21048 7.85064 0.161383 8.85139 0.123529 9.85213C0.119389 9.96035 0.115245 10.0629 0.130623 10.1699C0.139495 10.2297 0.144831 10.2867 0.140099 10.3477C0.113483 10.6678 0.133595 10.9548 0.308671 11.239C0.412179 11.4065 0.5553 11.5517 0.729785 11.652C0.710858 11.6412 0.566539 11.775 0.548794 11.7915C0.490239 11.8445 0.435827 11.902 0.386143 11.963C0.286776 12.0854 0.206345 12.2221 0.147789 12.3668C0.089233 12.5115 0.0519579 12.6641 0.0389455 12.819C-0.0131041 13.441 0.000506984 14.0653 0.00937907 14.6884C0.0170682 15.2278 -0.0373484 15.8019 0.0525554 16.3356C0.0750313 16.4694 0.0549237 16.6061 0.0809485 16.7411C0.138321 17.043 0.285594 17.3221 0.43228 17.5915C0.188593 17.8381 0.0821241 18.1873 0.0697032 18.5279C0.0555078 18.926 0.132412 19.3093 0.104612 19.712C0.030087 20.7805 0.0945459 21.8815 0.166706 22.9495C0.174986 23.0742 0.194505 23.1955 0.222896 23.3174C0.292098 23.6187 0.298611 23.9303 0.473687 24.1991C0.550578 24.317 0.649947 24.4218 0.767059 24.5033C0.649356 24.4919 0.562412 24.6035 0.507405 24.7043C0.167308 25.3343 0.167899 25.8241 0.303346 26.4985C0.444117 27.2002 0.404477 27.8729 0.668865 28.5563C0.888893 29.1253 1.2219 29.6533 1.64421 30.1039C2.51427 31.0329 3.74748 31.6058 5.04458 31.6776C12.4072 32.0843 19.4978 32.1185 26.2648 31.7101C26.2944 31.7084 26.3246 31.7061 26.3541 31.7038C27.1751 31.64 27.9754 31.3797 28.6668 30.948C29.3411 30.5271 29.9059 29.9501 30.3022 29.2769C30.7606 28.4988 30.9759 27.5829 31.2048 26.7229C31.3462 26.1915 31.5697 25.5234 31.5076 24.9544C31.4727 24.6337 31.5668 24.3187 31.5514 23.9963C31.5337 23.6324 31.4361 23.2718 31.2616 22.9478C31.2403 22.9085 31.2172 22.8675 31.2155 22.823C31.2113 22.7177 31.319 22.6459 31.4047 22.5804C31.6005 22.4306 31.733 22.2079 31.7744 21.9704C31.7844 21.9123 31.7927 21.853 31.7809 21.7949C31.7602 21.6941 31.7655 21.6087 31.7715 21.501C31.8093 20.7606 31.843 20.0196 31.872 19.2786C31.9039 18.4663 31.93 17.6536 31.9495 16.8408C31.969 16.0388 31.982 15.2369 31.9885 14.4349C31.995 13.6443 31.9944 12.8532 31.9873 12.0626C31.9838 11.6719 31.9779 11.2806 31.9708 10.8899C31.9672 10.6957 31.9631 10.5014 31.9583 10.3067C31.9542 10.1215 31.924 9.91876 31.9465 9.73536C31.9548 9.67043 31.9743 9.62089 31.9649 9.55311C31.9542 9.47451 31.9341 9.3959 31.911 9.31958C31.8649 9.16636 31.7981 9.01883 31.7135 8.881C31.6295 8.74373 31.5278 8.61559 31.4112 8.50224C31.3793 8.47092 31.0605 8.18498 31.0292 8.21346C31.1262 8.12631 31.2131 8.02892 31.2882 7.92412C31.484 7.65186 31.6041 7.33518 31.6804 7.01394C31.7194 6.84991 31.7377 6.68416 31.7667 6.51842C31.7726 6.48595 31.7856 6.4569 31.7927 6.42501C31.8182 6.30824 31.785 6.17041 31.7779 6.05251C31.746 5.55413 31.7111 5.05632 31.6727 4.55851Z" fill="url(#paint0_linear_37_605)"/>
<path d="M31.9975 10.0578C31.9939 10.895 31.9856 11.7283 31.9821 12.5656C31.9779 12.9643 31.9785 13.3676 31.9744 13.7702C31.9744 13.9872 31.9702 14.2008 31.9708 14.4178C31.959 15.5553 31.943 16.6927 31.9105 17.8302C31.8987 18.3952 31.8821 18.9596 31.8579 19.5246C31.8455 19.8641 31.8496 20.1762 31.7354 20.4963C31.6041 20.8517 31.6166 21.2823 31.5716 21.6537C31.555 21.7722 31.5349 21.8986 31.4444 21.9818C31.3622 22.0609 31.2351 22.0769 31.1203 22.0849C30.9275 22.1048 30.7305 22.1247 30.5377 22.1441C29.418 22.2552 28.2943 22.3583 27.1705 22.3862C26.3377 22.4021 25.5013 22.3788 24.6685 22.2882C25.3002 22.3788 25.9319 22.4693 26.5636 22.5599C26.744 22.5872 26.9203 22.6112 27.1007 22.6385C28.3883 22.8236 29.6765 23.0047 30.9642 23.1898C31.0789 23.2098 31.2061 23.2291 31.2924 23.3043C31.4237 23.4148 31.4279 23.6045 31.4237 23.7702C31.4113 24.0231 31.3829 24.2681 31.3421 24.517C31.2723 25.0108 31.1741 25.5006 31.154 26.0018C31.1499 26.1044 31.1664 26.2074 31.1499 26.31C31.0966 26.6221 30.8547 26.9262 30.6702 27.1751C29.8138 28.3325 28.4398 29.0718 26.9676 29.159C20.307 29.5645 13.3271 29.5275 6.0756 29.1271C5.02988 29.0684 4.02082 28.6817 3.21642 28.0301C2.73614 27.6394 2.29312 27.1415 2.02223 26.593C1.8992 26.3402 1.86608 26.0599 1.7472 25.803C1.72235 25.7478 1.69811 25.6965 1.68155 25.6373C1.64074 25.4715 1.6567 25.2819 1.80871 25.1714C1.96841 25.0489 2.19436 25.037 2.39901 25.029C4.70398 24.9532 7.00893 24.8137 9.3139 24.7499H9.3837C10.0852 24.73 10.7944 24.718 11.4958 24.7174C11.2374 24.6781 10.9789 24.6462 10.7163 24.6189C9.52683 24.4811 8.32497 24.4378 7.12723 24.3951C7.11067 24.3951 7.09884 24.3911 7.08642 24.3911H7.074C5.63022 24.3404 4.19058 24.2817 2.76336 24.0647C2.49246 24.0214 2.20973 23.9662 1.96367 23.8557C1.78327 23.7765 1.62299 23.662 1.50825 23.5042C1.49997 23.4923 1.49169 23.4769 1.48341 23.4649C1.31957 23.216 1.25332 22.8447 1.30655 22.5645C1.37221 22.2404 1.3308 21.9248 1.31424 21.5848C1.28112 20.9964 1.24799 20.4041 1.21901 19.8157C1.19831 19.4922 1.18176 19.1721 1.1652 18.848C1.15692 18.6703 1.14862 18.4726 1.26751 18.3348C1.36214 18.2283 1.51771 18.1884 1.66144 18.1531C2.11273 18.0426 2.56344 17.9355 3.02301 17.8683C3.22825 17.8324 3.4329 17.8091 3.63815 17.7971C3.10878 17.6826 2.58414 17.5687 2.05477 17.4542C1.89448 17.4189 1.73479 17.383 1.59106 17.3084C1.55853 17.2925 1.52539 17.2731 1.49227 17.2532C1.22966 17.0715 1.16816 16.8226 1.12675 16.5543C1.11433 16.4632 1.10191 16.3726 1.08535 16.2815C1.04808 16.0725 1.01969 15.8628 0.998993 15.6498C0.96173 15.3257 0.945162 15.0022 0.929192 14.6821C0.89607 13.9753 0.858808 13.0668 1.32193 12.4739C1.48991 12.2609 1.7892 12.213 2.0601 12.1811C3.1348 12.0581 4.20891 11.9476 5.28361 11.8599C5.50482 11.84 5.73077 11.82 5.95198 11.8047C7.0391 11.7215 8.12565 11.6537 9.21632 11.6059C7.90384 11.6617 6.58723 11.6463 5.27475 11.5597C4.45024 11.5085 3.62986 11.4299 2.80949 11.3273C2.46526 11.2801 2.11213 11.2288 1.80043 11.079C1.79215 11.075 1.78387 11.071 1.77559 11.067C1.69337 11.0317 1.6159 10.9839 1.54196 10.9292C1.37813 10.8067 1.25037 10.633 1.18058 10.4473C1.10664 10.2457 1.14331 10.084 1.17229 9.88234C1.18057 9.80716 1.17229 9.73596 1.17229 9.66135C1.15573 9.2148 1.1924 8.76084 1.20482 8.31429C1.2131 8.08532 1.22079 7.85636 1.23321 7.62682C1.26574 6.62779 1.31424 5.63218 1.37576 4.63713C1.52658 2.21986 3.56421 0.299836 6.07797 0.204148C13.0088 -0.0669687 19.9728 -0.0658404 26.9658 0.20015C29.2134 0.286156 31.17 1.89691 31.5935 4.02541C31.7248 4.68099 31.7703 5.38784 31.6396 6.0474C31.6071 6.21315 31.5663 6.37547 31.5006 6.53325C31.464 6.62039 31.4024 6.80607 31.3161 6.8767C31.3119 6.88467 31.3037 6.88865 31.2995 6.89264C31.2422 6.92795 31.1558 6.93593 31.0901 6.94789C30.6803 7.04301 30.2698 7.12616 29.8557 7.19736C29.0354 7.33975 28.2032 7.43887 27.3704 7.51006C27.3662 7.51006 27.3662 7.51006 27.3621 7.51006C25.6847 7.65303 23.999 7.67694 22.3174 7.70542H22.2683C22.7279 7.73276 23.191 7.75668 23.6506 7.78402C24.9016 7.85066 26.1525 7.92528 27.3993 7.99591C28.2321 8.04318 29.0644 8.0859 29.8972 8.13317C30.4017 8.1645 30.9269 8.19582 31.3575 8.44473C31.3616 8.44473 31.3616 8.44871 31.3658 8.44871C31.972 8.80184 32.0052 9.44946 31.9975 10.0578Z" fill="url(#paint1_linear_37_605)"/>
<path d="M31.9992 10.056C31.9956 10.8933 31.9873 11.7266 31.9838 12.5639C31.9796 12.9626 31.9802 13.3658 31.9761 13.7685C31.9761 13.9855 31.972 14.1991 31.972 14.4161C28.765 14.6189 25.5533 14.8883 22.3339 15.0791C18.5893 15.3018 14.8411 15.5439 11.0965 15.7746C9.07902 15.8976 7.07748 16.0485 5.06766 16.2667C3.72265 16.4131 2.43915 16.6272 1.13081 16.5526C1.11839 16.4615 1.10597 16.3709 1.0894 16.2803C1.05214 16.0713 1.02375 15.8617 1.00305 15.6487C2.3315 15.3799 3.66054 15.4226 5.06706 15.3787C6.95386 15.3189 8.81581 15.1919 10.6937 15.025C14.4419 14.6878 18.1907 14.3347 21.9347 13.9229C24.1657 13.6734 26.4009 13.4553 28.636 13.2132C28.5621 13.2092 28.4882 13.2052 28.4142 13.2012C24.7518 13.0093 21.1504 12.3588 17.5004 12.0444C13.8788 11.734 10.2531 11.4623 6.61908 11.2544C5.15104 11.1679 3.46535 11.1923 1.80391 11.0784C1.79563 11.0744 1.78735 11.0705 1.77907 11.0665C1.69686 11.0312 1.61877 10.9833 1.54543 10.9281C1.38159 10.8056 1.25443 10.6319 1.18404 10.4462C1.11011 10.2446 1.14677 10.0828 1.17576 9.88176C1.18404 9.80658 1.17576 9.73538 1.17576 9.66077C1.1592 9.21422 1.19588 8.76026 1.2083 8.31371C1.21658 8.08474 1.22427 7.85578 1.23669 7.62624C3.08209 7.52656 4.9813 7.64448 6.61791 7.65985C10.2519 7.69004 13.8735 7.85864 17.4986 8.06254C21.1368 8.26645 24.7743 8.18215 28.4125 8.34676C29.3967 8.39004 30.385 8.42479 31.3692 8.44815C31.9737 8.80014 32.0068 9.44775 31.9992 10.056ZM19.9692 18.2556C13.7806 18.5421 7.25906 18.2801 1.22308 19.8145C1.25207 20.4029 1.2852 20.9953 1.31832 21.5836C1.33488 21.9231 1.37628 22.2392 1.31063 22.5633C1.2574 22.8435 1.32304 23.2149 1.48747 23.4638C3.31275 23.9252 5.18298 24.2088 7.07806 24.3899C7.09462 24.3899 7.11059 24.3939 7.13129 24.3939C8.32074 24.5078 9.51848 24.5745 10.7198 24.6178C13.8203 24.7271 16.9415 24.6588 19.9722 24.6855C23.7617 24.7197 27.5554 24.6434 31.345 24.5152C31.3858 24.2663 31.4148 24.0214 31.4266 23.7691C31.4308 23.6033 31.4266 23.4137 31.2953 23.3032C31.209 23.228 31.0818 23.2086 30.967 23.1887C29.4984 22.9797 28.0345 22.7712 26.5659 22.5582C25.9342 22.4676 25.3025 22.3771 24.6708 22.2865C26.6233 22.4989 28.5876 22.3366 30.5394 22.1424C30.7322 22.1225 30.9292 22.1025 31.122 22.0832C31.2367 22.0752 31.3639 22.0592 31.4461 21.9801C31.536 21.8969 31.5567 21.771 31.5733 21.652C31.6182 21.2806 31.6058 20.85 31.7371 20.4946C31.8519 20.1745 31.8477 19.863 31.8596 19.5229C31.8838 18.9579 31.9004 18.3935 31.9122 17.8284C27.9334 17.9526 23.9469 18.0728 19.9692 18.2556Z" fill="url(#paint2_linear_37_605)"/>
<path d="M1.51114 23.5037C1.33074 23.2548 1.25267 22.86 1.31004 22.5639C1.37569 22.2398 1.33429 21.9242 1.31773 21.5842C1.2639 20.6717 1.21836 19.7599 1.16926 18.8474C1.16098 18.6697 1.15271 18.4721 1.27159 18.3342C1.36564 18.2277 1.52178 18.1878 1.6655 18.1525C2.1168 18.042 2.5675 17.9349 3.02707 17.8677C2.7686 18.0614 2.51842 18.2152 2.21499 18.3616C2.10853 18.4128 1.99792 18.4641 1.91985 18.5512C1.83764 18.6424 1.8051 18.7688 1.77671 18.8873C1.51883 20.0327 1.65842 21.2254 1.80274 22.3902C1.86425 22.876 1.92221 23.3658 1.96716 23.8551C1.78617 23.7759 1.62588 23.6614 1.51114 23.5037Z" fill="#C69C6D"/>
<path d="M1.08995 16.2803C0.995319 15.7552 0.958066 15.2101 0.933224 14.681C0.900101 13.9741 0.862821 13.0657 1.32594 12.4733C1.49392 12.2597 1.79322 12.2124 2.06411 12.1806C3.36003 12.0302 4.65594 11.9032 5.95599 11.8041C4.72573 12.1994 3.31093 12.2039 2.11734 12.6903C1.90027 12.7775 1.67846 12.892 1.55544 13.0856C1.47322 13.216 1.44069 13.3698 1.41585 13.5202C1.34251 13.9901 1.28514 14.4406 1.31412 14.9105C1.33482 15.2147 1.35967 15.5188 1.38865 15.823C1.43833 16.3208 1.50812 16.814 1.59448 17.3079C1.56136 17.2919 1.52883 17.2725 1.49571 17.2526C1.14733 17.0105 1.15561 16.6432 1.08995 16.2803Z" fill="#C69C6D"/>
<path d="M26.3524 22.4676C26.4056 22.4915 26.4589 22.5149 26.5121 22.5348C26.4547 22.5228 26.4015 22.5029 26.3524 22.4676Z" fill="#C69C6D"/>
<path d="M31.426 23.7691C31.3935 24.5232 31.1847 25.25 31.1563 26.0007C31.1522 26.1032 31.1687 26.2063 31.1522 26.3088C31.0989 26.621 30.857 26.9251 30.6725 27.174C29.816 28.3314 28.442 29.0707 26.9699 29.1578C20.3093 29.5634 13.3293 29.5263 6.07789 29.1259C5.03216 29.0673 4.0231 28.6805 3.2187 28.0289C2.73842 27.6382 2.29542 27.1404 2.02453 26.5919C1.9015 26.339 1.86836 26.0588 1.74948 25.8019C1.72464 25.7466 1.70039 25.6954 1.68383 25.6362C1.64243 25.4704 1.65898 25.2807 1.81099 25.1702C1.97069 25.0478 2.19664 25.0358 2.40129 25.0278C4.70626 24.9521 7.01122 24.8125 9.31618 24.7488C7.29039 24.8598 5.2723 25.1332 3.27549 25.4778C3.00045 25.5211 2.70531 25.545 2.43914 25.6202C2.39833 25.6322 2.3528 25.6361 2.32026 25.6715C2.27117 25.7227 2.28359 25.7939 2.29187 25.8611C2.32085 26.0901 2.45216 26.2798 2.5953 26.4615C3.06315 27.0498 3.55169 27.6616 4.23248 28.009C5.87736 28.8457 7.55479 28.7227 9.41674 28.6783C9.8012 28.6691 10.1738 28.6754 10.5482 28.6105C10.7416 28.5769 10.9634 28.6116 11.1592 28.6167C11.5951 28.6281 12.0305 28.6401 12.4664 28.6515C13.3376 28.6748 14.2088 28.6982 15.0807 28.721C16.7102 28.7642 18.3397 28.8081 19.9686 28.8514C21.5206 28.893 23.0774 28.9277 24.6265 28.8058C26.1584 28.6851 27.6897 28.4048 29.1057 27.8153C29.2228 27.7669 29.3535 27.7236 29.4564 27.6502C29.5315 27.5966 29.5901 27.53 29.6693 27.4804C29.9053 27.3329 30.1307 27.1905 30.3365 27.0037C30.4761 26.8773 30.6683 26.7195 30.7423 26.5412C30.7831 26.4467 30.8038 26.3356 30.8405 26.2371C30.9428 25.9642 30.9919 25.68 31.0126 25.3918C31.0327 25.0757 31.0167 24.7562 30.9795 24.4401C30.9629 24.3016 30.9836 24.0374 30.8972 23.9189C30.8481 23.8517 30.7334 23.7964 30.6553 23.7611C30.4542 23.6626 30.2289 23.6233 30.0071 23.5834C28.8259 23.3704 27.6648 23.0275 26.5659 22.5576C28.0345 22.7706 29.4984 22.9791 30.967 23.1881C31.0818 23.2081 31.2089 23.2274 31.2953 23.3026C31.426 23.4131 31.4302 23.6028 31.426 23.7691Z" fill="#C69C6D"/>
<path d="M1.21181 10.4405C1.14853 10.2087 1.15444 9.96378 1.16095 9.72342C1.1923 8.55522 1.22364 7.38703 1.29048 6.22054C1.35199 5.14918 1.3301 4.02086 1.78495 3.02467C2.53198 1.38829 4.22893 0.274775 6.08319 0.204148C13.0141 -0.0669687 19.978 -0.0658404 26.971 0.20015C29.2186 0.286156 31.1758 1.89691 31.5987 4.02541C31.73 4.68099 31.7756 5.38784 31.6448 6.0474C31.6123 6.21315 31.5709 6.37547 31.5059 6.53325C31.4692 6.62039 31.4077 6.80607 31.3213 6.8767C31.1776 5.80647 31.4473 4.62915 31.0492 3.62272C30.8109 3.01043 30.4702 2.41066 29.929 2.01196C28.1451 0.682009 25.5154 0.773146 23.3725 0.736124C17.4584 0.633601 11.578 0.454761 5.68157 0.970225C5.41068 0.994147 5.14452 0.899595 4.88191 0.942883C4.29931 1.038 3.73385 1.42132 3.3074 1.79667C2.72125 2.31441 2.26995 2.97796 1.99137 3.69677C1.9133 3.90637 1.84411 4.1194 1.78673 4.33641C1.21537 6.45123 1.46201 8.89982 1.73291 11.042C1.47976 10.9628 1.30291 10.7316 1.22542 10.4861C1.22069 10.4713 1.21595 10.4559 1.21181 10.4405Z" fill="#C69C6D"/>
<path d="M31.9991 10.0561C31.9956 10.8933 31.9873 11.7266 31.9837 12.5639C31.9796 12.9626 31.9802 13.3659 31.9761 13.7686C31.9642 15.688 31.9364 17.6075 31.8595 19.5229C31.8471 19.8624 31.8518 20.1745 31.7371 20.4946C31.6058 20.85 31.6182 21.2806 31.5733 21.652C31.5567 21.7705 31.5366 21.8969 31.4461 21.9801C31.3639 22.0593 31.2367 22.0752 31.122 22.0832C30.9291 22.1031 30.7322 22.123 30.5394 22.1424C30.65 22.0672 30.7405 21.9687 30.8061 21.8422C30.9002 21.6566 30.9209 21.447 30.9368 21.2419C31.2184 17.8569 31.2379 14.4686 31.1379 11.0796C31.1255 10.6336 31.1089 10.1831 31.0882 9.73711C31.0841 9.63459 31.1048 9.53548 31.0924 9.43694C31.0758 9.30252 31.006 9.18006 30.9161 9.07355C30.715 8.8406 30.4157 8.69478 30.12 8.59967C27.9706 7.90536 25.5675 8.41171 23.3938 7.78461H23.6564C25.7402 7.89852 27.8192 8.01984 29.9029 8.13376C30.4075 8.16509 30.9321 8.19641 31.3633 8.44531C31.9737 8.79218 32.0068 9.44378 31.9991 10.0561Z" fill="#C69C6D"/>
<path d="M26.5641 22.5599C26.7445 22.5872 26.9208 22.6111 27.1012 22.6385C26.9988 22.9779 26.8551 23.2901 26.6422 23.5549C25.7733 24.6331 24.1491 24.8273 22.8698 24.8991C20.6961 25.0187 18.5307 25.1417 16.3571 25.1309C14.0154 25.1201 11.7187 24.9076 9.38478 24.7504C10.0863 24.7305 10.7955 24.7186 11.4969 24.718C11.2385 24.6787 10.98 24.6468 10.7174 24.6194C9.52793 24.4816 8.32606 24.4383 7.12833 24.3956C7.11177 24.3956 7.09994 24.3916 7.08752 24.3916H7.07508C6.98045 24.3677 6.88228 24.3404 6.78409 24.313C6.58299 24.2538 6.38189 24.1906 6.20977 24.0761C5.81171 23.8038 5.65142 23.302 5.51597 22.8401C5.20781 21.7858 5.32256 20.735 5.38348 19.6607C5.44854 18.5113 5.45209 17.3579 5.43139 16.2091C5.40181 14.7675 5.33202 13.3066 5.28588 11.861C5.50709 11.8411 5.73304 11.8211 5.95425 11.8058C6.50787 11.7619 7.06149 11.726 7.61511 11.6947C7.62812 13.5942 7.74345 15.4977 7.82211 17.3938C7.83039 17.5989 7.79905 17.8022 7.82507 18.0061C7.83986 18.1235 7.82389 18.1947 7.9061 18.2909C8.0238 18.4282 8.35326 18.5706 8.55672 18.603C8.79036 18.6401 9.04469 18.6144 9.28069 18.615C9.80059 18.6167 10.3211 18.6184 10.8416 18.6201C10.3335 18.6993 9.8207 18.7517 9.30671 18.7773C9.08846 18.7881 8.81816 18.7506 8.61055 18.8178C8.40767 18.8833 8.20006 18.9146 7.99305 18.9664C7.9339 18.9812 7.87121 18.9995 7.8304 19.0433C7.79609 19.0803 7.78191 19.1305 7.77303 19.1795C7.73281 19.3896 7.76061 19.6055 7.81857 19.8105C7.86353 19.9695 7.92563 20.1113 7.90966 20.2787C7.87239 20.6763 7.93154 21.0807 7.99601 21.4743C8.02085 21.6246 8.025 21.7505 8.11904 21.8809C8.316 22.1458 8.66911 22.2916 8.98082 22.3742C11.3928 23.0132 13.9273 23.04 16.4292 23.0662C17.9055 23.0816 19.3824 23.097 20.8588 23.0525C21.8678 23.0207 23.7008 23.2172 24.5702 22.6208C24.6933 22.5377 24.7956 22.4351 24.882 22.3206C25.4439 22.3981 26.0022 22.4807 26.5641 22.5599ZM7.61925 10.4695C7.62753 10.064 7.66361 9.66472 7.70087 9.26146C7.70678 9.19425 7.70678 9.12877 7.69791 9.06213C7.68135 8.9334 7.68076 8.8286 7.71625 8.70101C7.79432 8.42135 7.9274 8.12574 8.20599 7.98335C8.39171 7.8888 8.60996 7.87969 8.81993 7.874C9.85442 7.84495 10.8901 7.8421 11.9246 7.86431C11.103 7.78059 10.2815 7.69628 9.45991 7.61255C8.99678 7.56528 8.52124 7.51857 8.06994 7.62964C8.0871 7.62565 8.13205 7.51459 8.14388 7.4958C8.17582 7.44454 8.21012 7.39497 8.24797 7.34713C8.32013 7.256 8.40295 7.17171 8.49404 7.09824C8.65492 6.96894 8.80218 6.82142 8.96957 6.69725C9.32445 6.43354 9.73553 6.24843 10.1549 6.10319C10.5529 5.96592 10.9628 5.8651 11.3739 5.77283C11.6525 5.7096 11.9441 5.70562 12.231 5.70163C15.4752 5.65321 18.7194 5.64013 21.963 5.61507C22.5042 5.61108 23.062 5.7922 23.5831 5.92662C23.9729 6.02914 24.3662 6.1909 24.6211 6.49505C24.8589 6.78325 24.9866 7.19391 25.0523 7.64388C25.8236 7.61995 26.5943 7.58009 27.3738 7.51289C27.304 6.62834 27.1438 5.76714 26.4991 5.09618C25.7893 4.362 24.5874 4.2122 23.6156 4.15752C22.5208 4.09885 21.4254 4.05956 20.3264 4.03621C19.4694 4.02083 18.6159 4.00943 17.7589 4.00544C16.0075 4.00202 14.2893 4.06582 12.5504 4.15354C10.676 4.24922 8.29707 3.6375 6.69832 4.88259C5.90693 5.49887 5.52189 6.2695 5.36633 7.26455C5.24745 8.02265 5.23561 8.79328 5.24034 9.55537C5.24034 10.2189 5.25749 10.8865 5.27819 11.562C6.05716 11.6132 6.83259 11.6406 7.61156 11.64C7.61096 11.2476 7.61096 10.8608 7.61925 10.4695ZM27.6713 13.0212C27.6341 11.5756 27.5595 10.1301 27.4484 8.68506C27.4318 8.46008 27.4194 8.22712 27.4028 7.99758C26.6315 7.95429 25.8567 7.9076 25.0813 7.86829C25.1594 8.65829 25.0902 9.53886 25.1274 10.1272C25.1848 11.0363 25.2735 11.943 25.3516 12.8504C25.3894 13.2901 25.4249 13.7298 25.4527 14.1706C25.4616 14.3124 25.4935 14.4264 25.4096 14.5443C25.2635 14.7487 24.9541 14.788 24.7181 14.8034C23.4535 14.8866 22.176 14.9156 20.9433 15.2016C22.5102 15.2562 24.0805 15.2295 25.6444 15.1207C25.6112 15.2562 25.5781 15.3918 25.545 15.5279C25.5166 15.6447 25.4693 15.7694 25.4705 15.8907C25.4711 15.9665 25.4994 16.0371 25.5107 16.1117C25.5302 16.2399 25.5213 16.3737 25.5225 16.503C25.5279 17.0595 25.5231 17.616 25.5125 18.1724C25.503 18.6401 25.4894 19.1077 25.4728 19.5753C25.4687 19.6266 25.4687 19.6818 25.4646 19.7331C25.4362 20.4952 25.4243 21.6286 24.8914 22.3081C25.6503 22.3827 26.4133 22.4021 27.1715 22.3861C27.3188 21.7778 27.3596 21.1223 27.4294 20.5612C27.679 18.5865 27.6495 16.5759 27.669 14.5898C27.6731 14.0727 27.6767 13.5589 27.6767 13.0417C27.6755 13.0332 27.6713 13.0292 27.6713 13.0212Z" fill="url(#paint3_linear_37_605)"/>
<path d="M19.541 24.984C20.5406 24.9709 21.5591 24.9504 22.5481 24.8057C22.7563 24.7755 22.9757 24.7807 23.1869 24.7659C23.6329 24.7357 24.0776 24.6913 24.5207 24.632C24.8111 24.5933 25.1021 24.5477 25.3795 24.4566C26.2276 24.1769 26.8972 23.4439 27.0776 22.5986C26.6121 22.5787 26.0839 22.5753 25.6184 22.5548C26.0088 22.4847 26.5819 22.6801 26.7535 23.0247C26.2501 23.4467 25.69 23.8312 25.0465 24.0004C24.7046 24.0903 24.3491 24.1171 23.9954 24.1433C21.5964 24.3222 19.1927 24.5016 16.7866 24.4646C15.632 24.4469 14.4774 24.3791 13.3241 24.4213C12.9899 24.4332 12.6569 24.4549 12.3227 24.4663C12.134 24.4725 11.94 24.4856 11.7543 24.4606C11.6248 24.4429 11.4887 24.4532 11.3574 24.452C11.0712 24.4492 10.7849 24.4423 10.4992 24.431C9.92724 24.4082 9.35589 24.3672 8.78689 24.3091C8.16644 24.2458 7.54835 24.1615 6.93381 24.0567C6.63867 24.006 6.32755 23.9434 6.10752 23.7469C5.96261 23.6176 5.87271 23.4422 5.79345 23.2679C5.54089 22.7097 5.37232 22.1168 5.29425 21.5125C5.07067 22.2546 5.30312 23.0702 5.81475 23.666C6.29798 24.2287 7.03082 24.5506 7.77548 24.6884C8.32851 24.7909 8.95251 24.8433 9.51381 24.7818C9.63684 24.7681 9.76045 24.7807 9.88525 24.7881C10.1745 24.8052 10.4637 24.82 10.7529 24.8342C11.3314 24.8615 11.9105 24.8832 12.4895 24.8991C13.065 24.9145 13.6399 24.9242 14.216 24.9282C14.4857 24.9299 14.775 24.9567 15.0411 24.9185C15.3014 24.8815 15.5906 24.9242 15.8544 24.9333C17.0137 24.972 18.1736 24.9982 19.334 24.9874C19.402 24.9857 19.4713 24.9851 19.541 24.984Z" fill="#C69C6D"/>
<path d="M28.2332 8.22147C28.2332 8.22261 27.2975 8.19356 27.2123 8.18957C26.8645 8.17534 26.5167 8.15653 26.1695 8.13489C25.9956 8.12407 25.8217 8.11211 25.6484 8.09901C25.5615 8.09275 25.4746 8.08591 25.3882 8.07908C25.3385 8.07509 25.2871 8.06598 25.2374 8.06769C25.2178 8.06826 25.2001 8.07396 25.1806 8.07225C25.1475 8.06883 25.1132 8.05686 25.0806 8.04889C24.944 8.01528 24.8074 7.98112 24.6708 7.94751C24.6678 7.92815 24.6648 7.90877 24.6619 7.88941C24.6607 7.88143 24.8517 7.88257 24.8689 7.88428C24.9257 7.88883 24.9825 7.90422 25.0398 7.89738C25.0842 7.89226 25.1256 7.88144 25.1705 7.8803C25.2421 7.87859 25.3143 7.87973 25.3858 7.8803C25.6739 7.88144 25.9619 7.88827 26.2494 7.90023C26.5374 7.9122 26.8255 7.92986 27.1129 7.95264C27.401 7.97542 27.6884 8.00332 27.9753 8.03693C28.077 8.04889 28.1794 8.06142 28.2811 8.07452C28.2811 8.14173 28.2332 8.15369 28.2332 8.22147Z" fill="#C69C6D"/>
<path d="M7.93336 11.6577C7.0154 11.7442 6.10276 11.8673 5.1984 12.0273C5.13925 11.9715 5.11145 11.9049 5.1292 11.8314C6.08383 11.7163 6.97045 11.6981 7.93336 11.6577Z" fill="#C69C6D"/>
<defs>
<linearGradient id="paint0_linear_37_605" x1="30.8353" y1="-15.6755" x2="22.324" y2="3.99451" gradientUnits="userSpaceOnUse">
<stop stop-color="#B7724B"/>
<stop offset="1" stop-color="#6F422E"/>
</linearGradient>
<linearGradient id="paint1_linear_37_605" x1="27.0113" y1="-8.76362" x2="-3.08447" y2="63.469" gradientUnits="userSpaceOnUse">
<stop stop-color="#C69C6D"/>
<stop offset="1" stop-color="#6F422E"/>
</linearGradient>
<linearGradient id="paint2_linear_37_605" x1="23.4863" y1="0.0572779" x2="-6.6093" y2="72.2894" gradientUnits="userSpaceOnUse">
<stop stop-color="#C69C6D"/>
<stop offset="1" stop-color="#6F422E"/>
</linearGradient>
<linearGradient id="paint3_linear_37_605" x1="17.4044" y1="44.675" x2="16.4866" y2="14.8251" gradientUnits="userSpaceOnUse">
<stop stop-color="#C69C6D"/>
<stop offset="1" stop-color="#6F422E"/>
</linearGradient>
</defs>
</svg>
