<svg width="32" height="32" viewBox="0 0 32 32" fill="none" xmlns="http://www.w3.org/2000/svg">
<path d="M0.329132 27.4414C0.513885 29.8297 2.5344 31.7036 5.00621 31.7987C11.9639 32.0664 18.8909 32.0681 25.7868 31.7976C26.2863 31.7782 26.7818 31.6842 27.2519 31.5191C27.4849 31.437 27.712 31.3379 27.9297 31.2217C29.0006 30.6522 29.7278 29.6639 30.2927 28.6421C30.8316 27.6675 31.3706 26.6372 31.5289 25.5287C31.5853 25.1335 31.6224 24.7359 31.6477 24.3377C31.653 24.25 31.6495 24.1578 31.6724 24.0723C31.6912 24.0017 31.7036 23.9464 31.7036 23.8718C31.7042 23.6793 31.7054 23.4868 31.7077 23.2943C31.7189 22.3351 31.7548 21.3759 31.8154 20.4184C31.8454 19.94 31.8819 19.4615 31.9248 18.9837C31.946 18.7444 31.969 18.5058 31.9931 18.2671C32.0019 18.1806 32.0066 18.1048 31.9796 18.0216C31.9372 17.8901 31.9243 17.7653 31.9172 17.6252C31.8748 16.7851 31.9896 15.7615 31.6695 14.9709C31.5483 14.6719 31.3218 14.3962 31.0093 14.288C31.4612 14.0158 31.6348 13.4655 31.7154 12.9563C31.8495 12.1116 31.8295 11.2527 31.7819 10.4018C31.7419 9.68749 31.8225 8.80976 31.5312 8.14449C31.3618 7.75831 30.9964 7.42169 30.5633 7.40745C30.8905 7.32315 31.247 7.21949 31.4341 6.94608C31.7089 6.5451 31.6571 5.69186 31.6189 5.23221C31.5142 3.97172 30.9693 2.6406 30.0461 1.7361C29.4901 1.19158 28.8005 0.778067 28.0474 0.543398C27.6602 0.422647 27.2284 0.321831 26.8194 0.322399C19.4952 -0.0842819 12.4416 -0.118462 5.70991 0.28993C5.68049 0.291639 5.6505 0.293919 5.62108 0.296196C4.80382 0.359989 4.00832 0.620287 3.32049 1.05203C2.64973 1.47295 2.08782 2.04994 1.6936 2.72319C1.2376 3.50124 1.02343 4.41771 0.795723 5.27721C0.730999 5.52042 0.673347 5.76591 0.622158 6.01197C0.462706 6.78148 0.124962 8.12284 0.529182 8.86216C0.600376 8.99203 0.736303 9.09797 0.888107 9.09512C0.688055 9.11221 0.522711 9.26486 0.437983 9.44086C0.253819 9.82476 0.280891 10.3448 0.243824 10.7583C0.170864 11.5819 0.142612 12.4078 0.113194 13.2337C0.0737705 14.329 0.0455399 15.4243 0.0284767 16.5196C0.012001 17.595 0.00729561 18.6698 0.0161228 19.7452C0.0249481 20.8599 -0.0680313 22.1221 0.113194 23.2453C0.15085 23.48 0.235575 23.7084 0.363842 23.9111C0.429153 24.0142 0.524481 24.1213 0.649218 24.1179C0.463289 24.3793 0.336788 24.6795 0.276773 24.9916C0.124969 25.7794 0.267941 26.6491 0.329132 27.4414Z" fill="url(#paint0_linear_13_5759)"/>
<path d="M0.0044117 21.9438C0.00794029 21.1065 0.0161781 20.2732 0.0197086 19.4359C0.0238285 19.0372 0.0232391 18.6339 0.027359 18.2312C0.027359 18.0142 0.0314884 17.8006 0.0314884 17.5836C0.0432568 16.4462 0.0591373 15.3087 0.0914974 14.1712C0.103266 13.6062 0.119734 13.0418 0.143858 12.4767C0.156214 12.1373 0.151506 11.8251 0.265654 11.505C0.396276 11.1496 0.383921 10.719 0.428049 10.3476C0.444525 10.2292 0.464527 10.1027 0.55455 10.0196C0.636335 9.94038 0.76284 9.92443 0.876987 9.91646C1.0688 9.89652 1.26474 9.87659 1.45656 9.85723C3.39882 9.663 5.35283 9.5001 7.29509 9.71312C6.66669 9.62256 6.03831 9.53199 5.40991 9.44143C3.94895 9.2284 2.49269 9.01994 1.03173 8.8109C0.917585 8.79097 0.791088 8.7716 0.705183 8.69641C0.574562 8.58591 0.570435 8.39625 0.574553 8.2305C0.586908 7.9776 0.615152 7.73268 0.65575 7.48377C0.724592 6.98994 0.822866 6.5001 0.842871 5.99887C0.846989 5.89635 0.830507 5.79325 0.846983 5.69073C0.899937 5.37859 1.14059 5.07443 1.32417 4.82552C2.17615 3.66813 3.54296 2.92881 5.00745 2.84167C11.6333 2.43612 18.5768 2.47315 25.7904 2.87357C26.8307 2.93223 27.8345 3.31898 28.6347 3.97058C29.1124 4.36131 29.5531 4.85913 29.8226 5.40764C29.945 5.66053 29.9779 5.94077 30.0962 6.19765C30.1209 6.2529 30.145 6.30417 30.1615 6.3634C30.2021 6.52915 30.1862 6.71882 30.035 6.82932C29.8762 6.95178 29.6514 6.96374 29.4478 6.97171C27.1549 7.04747 24.8619 7.18645 22.569 7.25081C21.847 7.27075 21.121 7.28271 20.3984 7.28327C20.6556 7.32258 20.9127 7.3539 21.1739 7.38181C22.3572 7.51965 23.5528 7.56238 24.7437 7.60566C24.7643 7.60566 24.7802 7.60964 24.7966 7.60964C26.2329 7.66034 27.665 7.71901 29.0848 7.93602C29.3543 7.97931 29.6355 8.03456 29.8803 8.14505C30.0597 8.22423 30.2192 8.33871 30.3333 8.49649C30.3416 8.50845 30.3498 8.52383 30.358 8.53579C30.521 8.7847 30.5869 9.15549 30.534 9.4363C30.4687 9.76039 30.5098 10.0759 30.5263 10.416C30.5593 11.0044 30.5922 11.5967 30.6211 12.1851C30.6416 12.5092 30.6581 12.8287 30.6746 13.1528C30.6828 13.3305 30.6911 13.5282 30.5728 13.666C30.4793 13.7725 30.3239 13.8124 30.1809 13.8477C29.732 13.9588 29.2837 14.0653 28.8265 14.1325C28.6223 14.1684 28.4187 14.1918 28.2146 14.2037C28.7412 14.3182 29.2631 14.4321 29.7897 14.5466C29.9491 14.5819 30.108 14.6178 30.251 14.6924C30.2833 14.7084 30.3163 14.7277 30.3486 14.7477C30.6099 14.9294 30.6711 15.1783 30.7123 15.4465C30.7246 15.5371 30.737 15.6282 30.7534 15.7188C30.7534 15.8259 30.7905 15.9432 30.8046 16.0503C30.8176 16.1466 30.827 16.2417 30.8576 16.3345C30.9082 16.4877 30.9376 16.6068 30.93 16.7714C30.8835 17.7323 30.844 18.6937 30.8111 19.6552C30.7946 20.1359 30.7799 20.6167 30.7664 21.098C30.7605 21.3019 30.7823 21.5251 30.7252 21.7234C30.6263 22.064 30.6752 22.4052 30.6817 22.76C30.6858 22.9998 30.6887 23.2402 30.6905 23.48C30.6911 23.5688 30.6864 23.6446 30.6593 23.7289C30.5922 23.9328 30.6169 24.1612 30.6058 24.3725C30.5734 25.3715 30.5251 26.3672 30.464 27.3622C30.3139 29.7795 28.2869 31.6996 25.7863 31.7953C18.8916 32.0664 11.9639 32.0653 5.00745 31.7993C2.77158 31.7133 0.824629 30.1025 0.403934 27.974C0.273312 27.3184 0.228004 26.6115 0.358038 25.9519C0.3904 25.7862 0.431578 25.6239 0.4963 25.4661C0.53278 25.3789 0.593979 25.1933 0.679884 25.1226C0.684002 25.1147 0.69223 25.1107 0.696348 25.1067C0.753422 25.0708 0.839329 25.0634 0.90464 25.0514C1.31239 24.9563 1.72073 24.8732 2.1326 24.802C2.95281 24.6596 3.78067 24.5605 4.61324 24.4893C6.2819 24.3463 7.95879 24.3218 9.63157 24.2939H9.68041C9.22324 24.2665 8.76253 24.2426 8.30535 24.2153C6.23247 24.1014 4.1643 23.98 2.09141 23.8661C1.58952 23.8348 1.06704 23.8035 0.631042 23.5506C0.0291252 23.1997 -0.00382614 22.5521 0.0044117 21.9438Z" fill="url(#paint1_linear_13_5759)"/>
<path d="M0.00430107 21.9438C0.00783157 21.1065 0.0160694 20.2732 0.0195999 19.4359C0.0237179 19.0372 0.0231304 18.6339 0.0272484 18.2313C0.0272484 18.0142 0.0313797 17.8006 0.0313797 17.5836C3.22161 17.3809 6.41653 17.1114 9.61911 16.9206C13.3442 16.6979 17.0728 16.4559 20.7978 16.2252C22.8048 16.1021 24.7959 15.9512 26.7953 15.7331C28.1333 15.5867 29.4106 15.3725 30.7121 15.4471C30.7245 15.5377 30.7369 15.6288 30.7533 15.7194C30.7904 15.9284 30.8186 16.138 30.8392 16.351C29.5177 16.6199 28.1956 16.5772 26.7964 16.621C24.9195 16.6808 23.0678 16.8079 21.1991 16.9747C17.4705 17.3119 13.7413 17.6645 10.0169 18.0769C7.79747 18.3264 5.57397 18.5445 3.35046 18.7866C3.42401 18.7906 3.49755 18.7946 3.57051 18.7986C7.21379 18.9905 10.7965 19.641 14.4274 19.9554C18.0301 20.2664 21.6369 20.5369 25.2519 20.7454C26.7129 20.832 28.3892 20.8075 30.042 20.9214C30.0502 20.9254 30.0585 20.9294 30.0667 20.9334C30.1485 20.9687 30.2261 21.0165 30.2991 21.0718C30.4621 21.1942 30.5886 21.3679 30.658 21.5536C30.7316 21.7553 30.6951 21.917 30.6662 22.1187C30.658 22.1938 30.6662 22.265 30.6662 22.3397C30.6827 22.7856 30.6462 23.2402 30.6339 23.6867C30.6257 23.9157 30.618 24.1447 30.6056 24.3736C28.7699 24.4733 26.8806 24.3554 25.2525 24.34C21.6375 24.3098 18.0354 24.1412 14.4286 23.9373C10.8094 23.7334 7.19085 23.8177 3.57169 23.6531C2.59262 23.6098 1.60942 23.5751 0.630341 23.5517C0.0290108 23.1997 -0.00393677 22.5521 0.00430107 21.9438ZM11.9715 13.7441C18.1278 13.4576 24.6153 13.7196 30.6198 12.1851C30.5909 11.5967 30.558 11.0044 30.525 10.416C30.5086 10.0765 30.4674 9.7604 30.5327 9.43631C30.5856 9.15607 30.5203 8.78471 30.3568 8.5358C28.541 8.07443 26.6805 7.79078 24.7953 7.60965C24.7789 7.60965 24.763 7.60567 24.7424 7.60567C23.5591 7.49175 22.3677 7.42511 21.1727 7.38182C18.0883 7.27246 14.9834 7.34081 11.9685 7.31404C8.19876 7.27986 4.42485 7.35619 0.655066 7.48435C0.614468 7.73326 0.585636 7.97817 0.57387 8.23107C0.56975 8.39682 0.57386 8.58649 0.704481 8.69699C0.790386 8.77218 0.916883 8.79154 1.03103 8.81147C2.4914 9.02051 3.94825 9.22898 5.40921 9.44201C6.03761 9.53257 6.66601 9.62313 7.2944 9.71369C5.35215 9.50124 3.39812 9.66357 1.45585 9.8578C1.26404 9.87774 1.0681 9.89767 0.876286 9.91704C0.762138 9.92501 0.635633 9.94096 0.553848 10.0201C0.464413 10.1033 0.443821 10.2292 0.427347 10.3482C0.382629 10.7196 0.394985 11.1502 0.264952 11.5056C0.150805 11.8257 0.154924 12.1378 0.143156 12.4773C0.119032 13.0423 0.102564 13.6068 0.0907955 14.1718C4.04828 14.0477 8.014 13.9275 11.9715 13.7441Z" fill="url(#paint2_linear_13_5759)"/>
<path d="M30.3327 8.49648C30.5122 8.74538 30.5898 9.1401 30.5328 9.43629C30.4674 9.76038 30.5086 10.0759 30.5251 10.416C30.5787 11.3284 30.624 12.2409 30.6728 13.1528C30.681 13.3305 30.6893 13.5282 30.571 13.666C30.4775 13.7725 30.3221 13.8124 30.1791 13.8477C29.7302 13.9588 29.2818 14.0653 28.8247 14.1325C29.0818 13.9388 29.3307 13.7845 29.6325 13.6387C29.7384 13.5874 29.8485 13.5362 29.9261 13.449C30.0079 13.3579 30.0403 13.2314 30.0685 13.1129C30.3251 11.9675 30.1856 10.7748 30.0426 9.61001C29.9814 9.12416 29.9238 8.63431 29.8791 8.14504C30.0591 8.22364 30.2186 8.3387 30.3327 8.49648Z" fill="#EB924D"/>
<path d="M30.7522 15.72C30.8651 16.3465 30.9193 16.9884 30.9369 17.6235C30.9658 18.6812 30.9728 19.7344 30.9058 20.7875C30.8757 21.262 30.8187 21.7347 30.7487 22.2052C30.6722 22.719 30.5792 23.2305 30.4862 23.7414C30.4303 23.2778 30.375 22.8141 30.3191 22.3505C30.2915 22.1209 30.2638 21.892 30.2362 21.6624C30.2144 21.4819 30.135 21.3258 30.0026 21.1982C29.8767 21.0769 29.7266 21.0433 29.5548 21.0199C29.2082 20.9732 28.8617 20.9259 28.5151 20.8792C29.0123 20.8838 29.5101 20.8371 29.9973 20.7408C30.0555 20.7294 30.1156 20.7163 30.1626 20.681C30.2115 20.644 30.2397 20.5876 30.2615 20.5312C30.3368 20.3324 30.3468 20.1171 30.355 19.9058C30.3662 19.617 30.375 19.3288 30.3827 19.0401C30.395 18.5588 30.4021 18.078 30.405 17.5967C30.4062 17.4116 30.4021 17.2345 30.4556 17.0551C30.5415 16.7663 30.4827 16.4741 30.4545 16.1779C30.405 15.6801 30.3356 15.1868 30.2497 14.693C30.2821 14.7089 30.315 14.7283 30.3474 14.7482C30.6945 14.9892 30.6863 15.3566 30.7522 15.72Z" fill="#EB924D"/>
<path d="M5.62109 9.53259C5.56814 9.50924 5.51517 9.48532 5.46163 9.46538C5.51929 9.47735 5.57226 9.49728 5.62109 9.53259Z" fill="#EB924D"/>
<path d="M0.573946 8.23106C0.606306 7.47693 0.814003 6.75015 0.842245 5.99943C0.846363 5.89691 0.829882 5.79381 0.846357 5.69129C0.899311 5.37916 1.13997 5.075 1.32354 4.82609C2.17552 3.6687 3.54235 2.92938 5.00684 2.84223C11.6326 2.43669 18.5762 2.47371 25.7898 2.87413C26.8301 2.9328 27.8338 3.31954 28.634 3.97114C29.1118 4.36188 29.5525 4.8597 29.822 5.40821C29.9444 5.66111 29.9773 5.94134 30.0956 6.19822C30.1203 6.25347 30.1444 6.30473 30.1609 6.36397C30.2015 6.52972 30.1856 6.71939 30.0344 6.82989C29.8755 6.95235 29.6508 6.96431 29.4472 6.97229C27.1543 7.04804 24.8613 7.18702 22.5684 7.25138C24.5836 7.14031 26.5912 6.86691 28.5776 6.52231C28.8512 6.47902 29.1448 6.4551 29.4095 6.37992C29.4501 6.36795 29.4954 6.36397 29.5278 6.32866C29.5766 6.27739 29.5643 6.2062 29.556 6.13899C29.5272 5.91002 29.3966 5.72034 29.2536 5.53865C28.7882 4.95027 28.3028 4.33853 27.625 3.99108C25.9887 3.15436 24.32 3.27739 22.4678 3.32182C22.0853 3.33093 21.7146 3.32524 21.3422 3.3896C21.1498 3.42321 20.9291 3.38846 20.7344 3.38334C20.3007 3.37194 19.8677 3.35999 19.434 3.3486C18.5674 3.32524 17.7007 3.30189 16.834 3.2791C15.213 3.23581 13.592 3.19196 11.9716 3.14867C10.4276 3.1071 8.87901 3.07234 7.33803 3.19423C5.81411 3.31499 4.29076 3.59522 2.88217 4.18474C2.76567 4.23315 2.63564 4.27645 2.53326 4.34992C2.45912 4.40346 2.4003 4.47011 2.32145 4.51966C2.08727 4.66718 1.8625 4.80957 1.65774 4.9964C1.51888 5.12284 1.32706 5.2812 1.2541 5.45891C1.2135 5.55346 1.19292 5.66452 1.15644 5.76306C1.05465 6.03589 1.00581 6.32011 0.985212 6.60832C0.965206 6.92444 0.981092 7.24398 1.01816 7.5601C1.03464 7.69851 1.01405 7.96279 1.09995 8.08126C1.14879 8.14847 1.26293 8.20373 1.3406 8.23904C1.54065 8.33758 1.76483 8.37688 1.98547 8.41675C3.16048 8.62977 4.31548 8.97266 5.4087 9.44257C3.94773 9.22954 2.49149 9.02108 1.03053 8.81204C0.916386 8.7921 0.789869 8.77274 0.703966 8.69755C0.573933 8.58648 0.569826 8.39681 0.573946 8.23106Z" fill="#EB924D"/>
<path d="M30.6304 21.5598C30.6933 21.7916 30.6875 22.0365 30.681 22.2769C30.6498 23.4451 30.6186 24.6133 30.5521 25.7798C30.4909 26.8512 30.5127 27.9796 30.0602 28.9758C29.3171 30.6122 27.629 31.7257 25.7845 31.7963C18.8898 32.0675 11.9621 32.0663 5.00562 31.8003C2.76975 31.7143 0.822783 30.1035 0.402086 27.975C0.271465 27.3194 0.226158 26.6126 0.35619 25.953C0.388552 25.7872 0.429749 25.6249 0.494471 25.4671C0.530951 25.38 0.59215 25.1943 0.678053 25.1237C0.821032 26.1939 0.552723 27.3707 0.948706 28.3783C1.18583 28.9906 1.52414 29.5903 2.0631 29.9891C3.83767 31.319 6.45364 31.2279 8.58536 31.2649C14.4686 31.3674 20.3189 31.5463 26.184 31.0308C26.4535 31.0069 26.7182 31.1015 26.9795 31.0582C27.5584 30.963 28.1215 30.5797 28.5457 30.2044C29.1288 29.6866 29.5772 29.023 29.8543 28.3042C29.932 28.0946 30.0008 27.8816 30.0579 27.6646C30.6263 25.5497 30.3809 23.1011 30.1114 20.9589C30.3633 21.0381 30.5392 21.2693 30.6163 21.5148C30.6216 21.529 30.6263 21.5444 30.6304 21.5598Z" fill="#EB924D"/>
<path d="M0.0043745 21.9438C0.00790501 21.1065 0.0161428 20.2732 0.0196733 19.4359C0.0237923 19.0372 0.0232038 18.6339 0.0273228 18.2312C0.0390902 16.3117 0.0667391 14.3922 0.143229 12.4767C0.155585 12.1373 0.150879 11.8251 0.265025 11.505C0.395647 11.1496 0.383291 10.719 0.427421 10.3476C0.443895 10.2291 0.463899 10.1027 0.553922 10.0195C0.635707 9.94037 0.762212 9.92442 0.876359 9.91644C1.06817 9.89651 1.26411 9.87658 1.45593 9.85721C1.3459 9.9324 1.25587 10.0309 1.19055 10.1574C1.097 10.3431 1.07642 10.5521 1.06053 10.7577C0.780463 14.1428 0.761637 17.5312 0.860486 20.9197C0.872842 21.3662 0.889307 21.8162 0.909901 22.2627C0.91402 22.3653 0.893433 22.4644 0.905789 22.5629C0.922264 22.6973 0.991696 22.8198 1.08113 22.9263C1.28118 23.1593 1.57889 23.3051 1.87308 23.4002C4.01128 24.0945 6.40189 23.5882 8.56421 24.2153H8.30297C6.23008 24.1014 4.16191 23.98 2.08902 23.8661C1.58713 23.8348 1.06465 23.8035 0.636304 23.5546C0.0290899 23.2077 -0.00386238 22.5561 0.0043745 21.9438Z" fill="#EB924D"/>
<path d="M5.89586 13.7503C5.89645 13.7378 5.89763 13.7252 5.89881 13.7133C6.07121 13.6973 6.24301 13.6711 6.41305 13.6353C6.60487 13.5942 6.79138 13.5299 6.9832 13.4934C7.17324 13.4575 7.39507 13.453 7.55393 13.3391C7.71515 13.2229 7.88874 13.1528 8.08879 13.1215C8.13468 13.1141 8.18409 13.1078 8.21881 13.0776C8.24117 13.0583 8.25412 13.0309 8.26589 13.0042C8.51242 12.4198 8.09644 11.6639 8.48653 11.1581C8.70718 11.3979 8.77895 11.734 8.79719 12.0547C8.81543 12.3753 8.78837 12.7006 8.84898 13.0167C8.86192 13.0856 8.88428 13.1608 8.94488 13.2001C9.03196 13.2565 9.12315 13.2069 9.20729 13.1739C9.32438 13.1283 9.45208 13.1289 9.57976 13.1164C9.7145 13.1033 9.84923 13.0913 9.98397 13.0805C10.0246 13.0771 10.2646 13.0879 10.2888 13.0583C11.5467 11.4925 13.0559 10.2793 14.6257 9.43742C14.7169 9.38843 14.8164 9.34458 14.8987 9.41293C14.9723 9.47672 14.9941 9.61343 15.0117 9.73076C15.0847 10.2485 15.2218 10.8141 15.1365 11.3347C15.1006 11.5563 15.1229 11.7534 15.1606 11.9743C15.2112 12.2688 15.2465 12.5656 15.2659 12.8635C15.2712 12.9461 15.2712 13.0395 15.21 13.097C15.1688 13.1357 15.11 13.1483 15.0541 13.1596C14.4328 13.2855 13.812 13.4114 13.1907 13.5367C13.6284 13.5897 14.0656 13.6518 14.501 13.723C14.7487 13.7634 15.0111 13.8141 15.1924 13.9827C15.3559 14.1348 15.4165 14.3518 15.4307 14.5648C15.4377 14.677 15.4324 14.7904 15.4224 14.902C15.3959 15.2022 15.4159 15.5029 15.4171 15.8048C15.4183 16.1312 15.3848 16.4712 15.4159 16.7959C15.4248 16.8899 15.4648 16.9764 15.4748 17.0698C15.4913 17.2231 15.4613 17.3871 15.4501 17.5397C15.4254 17.8775 15.4006 18.2153 15.3759 18.553C15.373 18.5929 15.3683 18.6362 15.3395 18.6641C15.3124 18.6903 15.2712 18.696 15.233 18.7006C14.2304 18.8156 13.2213 18.8749 12.2116 18.8771C12.9453 18.9916 13.6796 19.1055 14.4133 19.2195C14.6363 19.2542 14.8693 19.2929 15.0482 19.4256C15.2794 19.5971 15.2965 19.9081 15.2836 20.1684C15.2453 20.9612 15.1794 21.7541 15.1147 22.5458C15.077 23.0089 15.0364 23.472 14.9941 23.935C14.9729 24.1663 14.9511 24.397 14.9293 24.6276C14.9235 24.6886 14.8382 25.2024 14.8723 25.2206C14.1609 24.8441 13.4543 24.3446 12.8165 23.7676C11.9839 23.014 11.0095 21.8486 10.194 21.0558C8.80601 20.816 7.46274 20.6394 6.1024 20.5722C6.0718 20.5671 6.03767 20.5625 6.0112 20.5773C6.01237 20.5768 5.92941 20.3028 5.92235 20.2772C5.81585 19.8779 5.74582 19.4695 5.70522 19.0588C5.6964 18.9711 5.68581 18.8828 5.70052 18.7951C5.71758 18.6954 5.75819 18.6043 5.7676 18.5023C5.79938 18.156 5.80407 17.8103 5.84997 17.4651C5.86585 17.345 5.88645 17.2196 5.95882 17.12C6.10886 16.9132 6.42424 16.8881 6.60429 16.7053C6.32421 16.6643 6.04943 16.5885 5.78877 16.4803C5.81702 16.1329 5.86527 15.7814 5.87351 15.4329C5.87586 15.3269 5.84056 15.2352 5.82761 15.1321C5.8082 14.9721 5.83703 14.8006 5.8435 14.64C5.85763 14.3438 5.87468 14.0471 5.89586 13.7503Z" fill="#FCEBC5"/>
<path d="M21.0185 9.8931C21.0968 10.1021 21.2215 10.3009 21.3063 10.51C21.3951 10.7281 21.4722 10.9508 21.5422 11.1752C21.684 11.6298 21.7958 12.0923 21.9082 12.5542C22.2312 13.8802 22.3065 15.2637 22.3154 16.6364C22.3183 17.1462 22.2918 17.6559 22.2389 18.1629C22.1071 19.4308 21.814 20.6793 21.4269 21.8959C21.2345 22.5008 21.018 23.0989 20.7844 23.6901C20.7038 23.894 20.4749 24.2324 20.5943 24.4528C20.7114 24.6675 21.0892 24.5895 21.2568 24.4921C21.4557 24.377 21.5963 24.1902 21.7358 24.0114C22.0482 23.6098 22.3819 23.2231 22.7349 22.8534C22.6166 23.5369 22.1647 24.1162 21.7223 24.6613C21.6923 24.6977 21.6617 24.737 21.6534 24.7831C21.6369 24.8794 21.7234 24.9603 21.8029 25.0195C21.9812 25.1517 22.19 25.2536 22.3495 25.4074C22.6072 25.6558 22.9267 25.7708 23.2597 25.9183C24.4341 24.5365 25.0019 22.6586 25.3255 20.8001C25.8574 17.7454 25.8145 14.5711 25.1996 11.5352C25.0661 10.8768 24.8937 10.1995 24.5347 9.61799C24.3571 9.33035 24.097 8.97778 23.761 8.84279C23.5351 8.75222 23.2103 8.90658 23.0161 9.01366C23.0473 9.2489 23.1391 9.49154 23.2003 9.72222C23.2644 9.96543 23.3291 10.2092 23.3933 10.4524C23.5204 10.9326 23.6475 11.4127 23.7746 11.8929C23.4721 11.0716 23.0744 10.2833 22.5913 9.54736C22.4948 9.40041 22.3789 9.24662 22.1865 9.22441C22.0212 9.20504 21.8182 9.27624 21.6775 9.3594C21.5769 9.4192 21.501 9.5035 21.4198 9.58495C21.298 9.70457 21.1509 9.78545 21.0185 9.8931Z" fill="#FCEBC5"/>
<path d="M16.5256 11.7209C16.8669 12.3423 17.0358 13.0475 17.207 13.7492C17.4529 14.7591 17.5106 15.8134 17.5171 16.8591C17.5241 17.951 17.3494 19.0384 17.0669 20.0932C16.9022 20.7089 16.701 21.3156 16.4744 21.9125C16.4185 22.0606 16.3609 22.2081 16.302 22.355C16.2585 22.4638 16.1714 22.5937 16.2285 22.7105C16.2597 22.7743 16.7386 23.3051 16.7875 23.2351C17.3235 22.4678 17.8054 21.6641 18.2272 20.8325C18.3526 21.1071 18.2543 21.4255 18.1437 21.7063C18.0301 21.9956 17.9042 22.2804 17.7671 22.5601C17.6959 22.7059 17.6212 22.85 17.5435 22.9924C17.4794 23.1097 17.3752 23.2516 17.5006 23.3638C17.5829 23.4378 17.6859 23.4828 17.7654 23.5648C17.8348 23.6366 17.8936 23.7169 17.9595 23.7921C18.069 23.9168 18.1743 23.9846 18.3067 23.8456C18.5208 23.6212 18.6868 23.3268 18.835 23.059C19.001 22.7606 19.141 22.449 19.2616 22.1312C19.5187 21.4517 19.687 20.7431 19.8112 20.0306C20.2166 17.7033 20.1836 15.2848 19.7153 12.9717C19.5582 12.1942 19.3028 11.3558 18.6803 10.9503C18.5297 10.9634 18.3714 10.9759 18.2231 10.9993C18.1672 11.0084 18.0931 11.0596 18.0413 11.0112C18.0219 10.993 18.0154 10.9651 18.0113 10.9389C17.926 10.4359 18.0737 9.90224 17.9024 9.4198C17.7677 9.43176 17.7206 9.59694 17.7077 9.72737C17.6595 10.2053 17.6112 10.6826 17.563 11.1604C17.5653 11.1382 17.3352 11.2214 17.317 11.2333C17.2429 11.2818 17.1993 11.3416 17.1199 11.382C16.9157 11.4851 16.718 11.5979 16.5256 11.7209Z" fill="#FCEBC5"/>
<defs>
<linearGradient id="paint0_linear_13_5759" x1="1.16277" y1="47.6778" x2="9.70553" y2="28.0387" gradientUnits="userSpaceOnUse">
<stop stop-color="#C69C6D"/>
<stop offset="1" stop-color="#6F422E"/>
</linearGradient>
<linearGradient id="paint1_linear_13_5759" x1="4.96418" y1="40.7657" x2="35.1717" y2="-31.3555" gradientUnits="userSpaceOnUse">
<stop stop-color="#C69C6D"/>
<stop offset="1" stop-color="#A36841"/>
</linearGradient>
<linearGradient id="paint2_linear_13_5759" x1="8.47226" y1="31.943" x2="38.6797" y2="-40.1779" gradientUnits="userSpaceOnUse">
<stop stop-color="#C69C6D"/>
<stop offset="1" stop-color="#6F422E"/>
</linearGradient>
</defs>
</svg>
