<svg width="32" height="32" viewBox="0 0 32 32" fill="none" xmlns="http://www.w3.org/2000/svg">
<path d="M0.3309 27.4413C0.515646 29.8291 2.53607 31.7036 5.00779 31.7987C11.9652 32.0664 18.892 32.0681 25.7876 31.7976C26.2872 31.7776 26.7825 31.6842 27.2526 31.519C27.4856 31.437 27.7128 31.3379 27.9304 31.2217C29.0013 30.6521 29.7285 29.6639 30.2933 28.642C30.8323 27.6675 31.3712 26.6371 31.5295 25.5286C31.586 25.1333 31.623 24.7358 31.6483 24.3376C31.6536 24.2499 31.6501 24.1576 31.673 24.0722C31.6919 24.0015 31.7036 23.9463 31.7042 23.8717C31.7048 23.6792 31.706 23.4866 31.7077 23.2941C31.7189 22.3349 31.7548 21.3757 31.8154 20.4182C31.846 19.9398 31.8819 19.4613 31.9249 18.9834C31.946 18.7442 31.969 18.5055 31.9931 18.2669C32.0019 18.1803 32.0066 18.1046 31.9796 18.0214C31.9372 17.8898 31.9243 17.7651 31.9172 17.6249C31.8748 16.7848 31.9901 15.7612 31.6695 14.9706C31.5483 14.6716 31.3218 14.3959 31.0094 14.2877C31.4612 14.0154 31.6348 13.4652 31.7154 12.956C31.8495 12.1113 31.8295 11.2523 31.7819 10.4014C31.7419 9.6871 31.8225 8.80935 31.5306 8.14407C31.3612 7.75788 30.9958 7.42125 30.5628 7.40758C30.8899 7.32328 31.2465 7.21962 31.4336 6.94621C31.7083 6.54522 31.6571 5.69197 31.6183 5.23231C31.5136 3.97179 30.9688 2.64065 30.0456 1.73614C29.4896 1.19161 28.8 0.778076 28.0469 0.543404C27.6598 0.422649 27.2279 0.321833 26.819 0.322401C19.4951 -0.0842896 12.4418 -0.118458 5.71029 0.28994C5.68088 0.291649 5.65087 0.293928 5.62145 0.296206C4.8048 0.360001 4.00876 0.620302 3.32096 1.05205C2.65023 1.47241 2.08833 2.04999 1.69413 2.72325C1.23815 3.50131 1.02398 4.41778 0.796288 5.2773C0.731567 5.52052 0.673899 5.76602 0.622711 6.01208C0.463264 6.7816 0.125551 8.12299 0.529757 8.86233C0.600948 8.99219 0.736866 9.09813 0.888075 9.09529C0.688032 9.11238 0.522692 9.26502 0.437967 9.44103C0.253811 9.82493 0.280884 10.345 0.243816 10.7585C0.170858 11.5821 0.142609 12.408 0.11319 13.2339C0.0737705 14.3293 0.0449505 15.4246 0.0284767 16.5199C0.0120029 17.5953 0.00729752 18.6702 0.0161228 19.7455C0.0249481 20.8602 -0.0680275 22.1225 0.11319 23.2457C0.150845 23.4804 0.235584 23.7088 0.363848 23.9116C0.429157 24.0147 0.524462 24.1217 0.649197 24.1183C0.463272 24.3798 0.336777 24.6799 0.276764 24.9921C0.127319 25.7793 0.269711 26.649 0.3309 27.4413Z" fill="url(#paint0_linear_13_5755)"/>
<path d="M0.00616646 21.9438C0.00969696 21.1065 0.0179348 20.2731 0.0214653 19.4358C0.0255833 19.0371 0.0249958 18.6339 0.0291138 18.2312C0.0291138 18.0141 0.033226 17.8005 0.033226 17.5835C0.0449924 16.446 0.060873 15.3086 0.0932331 14.1711C0.105 13.6061 0.121487 13.0416 0.145609 12.4766C0.157965 12.1371 0.153257 11.8249 0.267401 11.5048C0.398018 11.1494 0.385662 10.7188 0.429789 10.3474C0.446264 10.2289 0.466267 10.1025 0.556286 10.0193C0.638067 9.94015 0.764568 9.92478 0.878712 9.9168C1.07052 9.89687 1.26643 9.87693 1.45824 9.85756C3.40043 9.66333 5.35439 9.50043 7.29658 9.71345C6.6682 9.62289 6.03983 9.53233 5.41145 9.44176C3.95055 9.22873 2.49436 9.02026 1.03345 8.81122C0.91931 8.79128 0.792797 8.77192 0.706896 8.69674C0.576279 8.58623 0.57217 8.39655 0.576288 8.2308C0.588644 7.9779 0.616886 7.73298 0.657482 7.48407C0.72632 6.99023 0.824574 6.50038 0.844578 5.99913C0.848696 5.89661 0.832216 5.79351 0.84869 5.69098C0.901642 5.37885 1.14229 5.07469 1.32586 4.82577C2.17839 3.66836 3.54458 2.92903 5.00902 2.84188C11.6346 2.43633 18.5779 2.47335 25.7912 2.87378C26.8314 2.93244 27.8352 3.31919 28.6354 3.97081C29.1131 4.36155 29.5538 4.85881 29.8232 5.4079C29.9456 5.6608 29.9786 5.94104 30.0968 6.19792C30.1215 6.25317 30.1457 6.30444 30.1622 6.36367C30.2028 6.52943 30.1869 6.71911 30.0357 6.82961C29.8768 6.95207 29.652 6.96403 29.4485 6.97201C27.1556 7.04776 24.8628 7.18674 22.5699 7.2511C21.848 7.27104 21.1219 7.283 20.3994 7.28357C20.6565 7.32287 20.9137 7.3542 21.1749 7.38211C22.3581 7.51995 23.5537 7.56267 24.7445 7.60596C24.7651 7.60596 24.781 7.60995 24.7975 7.60995C26.2336 7.66064 27.6657 7.71931 29.0854 7.93632C29.3549 7.97961 29.6362 8.03487 29.8809 8.14537C30.0604 8.22454 30.2198 8.33903 30.334 8.49681C30.3422 8.50877 30.3504 8.52415 30.3587 8.53611C30.5222 8.78502 30.5875 9.15582 30.5346 9.43663C30.4693 9.76073 30.5105 10.0763 30.5269 10.4163C30.5599 11.0047 30.5928 11.5971 30.6217 12.1855C30.6423 12.5096 30.6587 12.8291 30.6752 13.1532C30.6834 13.3309 30.6917 13.5286 30.5734 13.6664C30.4799 13.7729 30.3245 13.8128 30.1816 13.8481C29.7326 13.9592 29.2843 14.0657 28.8272 14.1329C28.623 14.1688 28.4194 14.1922 28.2153 14.2041C28.7418 14.3186 29.2637 14.4325 29.7903 14.547C29.9492 14.5823 30.1086 14.6182 30.2516 14.6928C30.2839 14.7088 30.3169 14.7282 30.3493 14.7481C30.6105 14.9298 30.6717 15.1787 30.7129 15.447C30.7252 15.5376 30.7376 15.6287 30.754 15.7193C30.754 15.8263 30.7911 15.9437 30.8052 16.0508C30.8182 16.147 30.8276 16.2421 30.8582 16.335C30.9088 16.4882 30.9382 16.6073 30.9306 16.7719C30.8841 17.7328 30.8447 18.6942 30.8117 19.6557C30.7952 20.1364 30.7805 20.6172 30.767 21.0985C30.7617 21.3024 30.7829 21.5257 30.7258 21.7239C30.627 22.0645 30.6758 22.4057 30.6823 22.7606C30.6864 23.0004 30.6893 23.2407 30.6911 23.4805C30.6917 23.5694 30.687 23.6451 30.6593 23.7294C30.5923 23.9334 30.617 24.1618 30.6058 24.3731C30.5734 25.3722 30.5252 26.3678 30.464 27.3629C30.314 29.7802 28.287 31.7003 25.7865 31.796C18.892 32.0672 11.9646 32.066 5.00842 31.8C2.77264 31.714 0.825745 30.1032 0.405066 27.9746C0.274448 27.319 0.229143 26.6122 0.359171 25.9526C0.391531 25.7868 0.432726 25.6245 0.497446 25.4667C0.533924 25.3796 0.595121 25.1939 0.681023 25.1232C0.685141 25.1153 0.693369 25.1113 0.697487 25.1073C0.754559 25.0714 0.840462 25.064 0.905769 25.052C1.31351 24.9569 1.72183 24.8738 2.13369 24.8026C2.95387 24.6602 3.7817 24.5611 4.61423 24.4899C6.28283 24.3469 7.95966 24.3224 9.63238 24.2945H9.68122C9.22406 24.2671 8.76337 24.2432 8.30621 24.2159C6.23341 24.102 4.1653 23.9806 2.0925 23.8667C1.59062 23.8354 1.06875 23.8041 0.632183 23.5512C0.0314636 23.1997 -0.00148201 22.5521 0.00616646 21.9438Z" fill="url(#paint1_linear_13_5755)"/>
<path d="M0.006073 21.9436C0.0096035 21.1063 0.0178413 20.273 0.0213718 19.4357C0.0254898 19.037 0.0249023 18.6337 0.0290203 18.231C0.0290203 18.014 0.0331326 17.8004 0.0331326 17.5834C3.22324 17.3806 6.41806 17.1112 9.62053 16.9204C13.3455 16.6977 17.0739 16.4556 20.7988 16.2249C22.8058 16.1019 24.7968 15.9509 26.796 15.7328C28.134 15.5864 29.4113 15.3722 30.7128 15.4468C30.7251 15.5374 30.7375 15.6285 30.7539 15.7191C30.791 15.9282 30.8193 16.1378 30.8398 16.3508C29.5184 16.6196 28.1963 16.5769 26.7972 16.6208C24.9203 16.6806 23.0688 16.8076 21.2001 16.9745C17.4711 17.3117 13.7426 17.6643 10.0177 18.0767C7.79836 18.3261 5.57492 18.5443 3.35149 18.7864C3.42504 18.7904 3.4986 18.7943 3.57156 18.7983C7.2147 18.9903 10.7972 19.6408 14.428 19.9552C18.0306 20.2662 21.6373 20.5367 25.2522 20.7452C26.7125 20.8318 28.3893 20.8073 30.042 20.9212C30.0503 20.9252 30.0585 20.9292 30.0667 20.9332C30.1485 20.9685 30.2262 21.0163 30.2992 21.0716C30.4621 21.194 30.5886 21.3678 30.6586 21.5535C30.7322 21.7551 30.6957 21.9169 30.6669 22.1185C30.6586 22.1937 30.6669 22.2649 30.6669 22.3395C30.6834 22.7861 30.6469 23.24 30.6351 23.6866C30.6269 23.9156 30.6186 24.1445 30.6069 24.3735C28.7712 24.4732 26.8819 24.3553 25.2545 24.3399C21.6396 24.3097 18.0371 24.1411 14.431 23.9372C10.812 23.7333 7.19353 23.8176 3.5745 23.653C2.59546 23.6097 1.61229 23.5749 0.633257 23.5516C0.0313606 23.1996 -0.00157547 22.552 0.006073 21.9436ZM11.9728 13.7438C18.1288 13.4573 24.6161 13.7193 30.6204 12.1848C30.5916 11.5964 30.5586 11.004 30.5257 10.4156C30.5092 10.0761 30.468 9.76002 30.5333 9.43592C30.5863 9.15568 30.521 8.78431 30.3574 8.53539C28.5417 8.07402 26.6813 7.79036 24.7962 7.60923C24.7797 7.60923 24.7632 7.60525 24.7432 7.60525C23.56 7.49133 22.3686 7.42469 21.1736 7.3814C18.0894 7.27204 14.9846 7.34038 11.9699 7.31361C8.2002 7.27944 4.42644 7.35577 0.656796 7.48393C0.616199 7.73284 0.587368 7.97776 0.575602 8.23066C0.571484 8.39641 0.575611 8.58609 0.706226 8.69659C0.792128 8.77178 0.918623 8.79114 1.03276 8.81107C2.49367 9.02011 3.94986 9.22859 5.41077 9.44162C6.03914 9.53219 6.66752 9.62274 7.29589 9.71331C5.3537 9.50085 3.39974 9.66319 1.45755 9.85742C1.26575 9.87736 1.06983 9.89729 0.878025 9.91666C0.763882 9.92463 0.637381 9.94058 0.555599 10.0192C0.466167 10.1023 0.445578 10.2288 0.429104 10.3473C0.384388 10.7186 0.396742 11.1493 0.266714 11.5047C0.152571 11.8248 0.156689 12.1369 0.144922 12.4764C0.1208 13.0415 0.104332 13.6059 0.0925636 14.171C4.05049 14.0474 8.01546 13.9272 11.9728 13.7438Z" fill="url(#paint2_linear_13_5755)"/>
<path d="M30.3339 8.49607C30.5134 8.74498 30.5911 9.13971 30.534 9.4359C30.4687 9.76 30.5099 10.0756 30.5263 10.4156C30.5799 11.3281 30.6252 12.2406 30.674 13.1525C30.6823 13.3302 30.6905 13.5279 30.5722 13.6657C30.4787 13.7722 30.3234 13.8121 30.1804 13.8474C29.7315 13.9585 29.2831 14.065 28.826 14.1322C29.0831 13.9385 29.332 13.7842 29.6338 13.6384C29.7397 13.5871 29.8497 13.5358 29.9274 13.4487C30.0092 13.3576 30.0415 13.2311 30.0698 13.1126C30.3263 11.9672 30.1868 10.7744 30.0439 9.60963C29.9827 9.12376 29.925 8.63391 29.8803 8.14463C30.0604 8.22323 30.2198 8.33829 30.3339 8.49607Z" fill="#EB924D"/>
<path d="M30.7528 15.7197C30.8658 16.3462 30.9199 16.9882 30.9375 17.6233C30.9664 18.681 30.9734 19.7342 30.9064 20.7874C30.8763 21.2618 30.8193 21.7346 30.7493 22.2051C30.6728 22.7188 30.5798 23.2303 30.4869 23.7413C30.431 23.2776 30.3751 22.814 30.3198 22.3503C30.2921 22.1208 30.2644 21.8918 30.2368 21.6623C30.215 21.4817 30.1356 21.3256 30.0032 21.198C29.8773 21.0767 29.7273 21.0431 29.5555 21.0198C29.2089 20.973 28.8624 20.9258 28.5158 20.8791C29.013 20.8836 29.5108 20.8369 29.9979 20.7406C30.0562 20.7293 30.1162 20.7162 30.1633 20.6808C30.2121 20.6438 30.2403 20.5874 30.2621 20.531C30.3374 20.3323 30.3474 20.117 30.3556 19.9056C30.3668 19.6168 30.3756 19.3286 30.3833 19.0398C30.3957 18.5585 30.4033 18.0778 30.4057 17.5965C30.4068 17.4114 30.4027 17.2342 30.4563 17.0548C30.5422 16.766 30.4833 16.4738 30.4551 16.1776C30.4057 15.6798 30.3362 15.1865 30.2503 14.6927C30.2827 14.7087 30.3156 14.728 30.348 14.748C30.6957 14.9889 30.6875 15.3563 30.7528 15.7197Z" fill="#EB924D"/>
<path d="M5.62317 9.53217C5.57022 9.50881 5.51725 9.48489 5.4643 9.46496C5.52137 9.47692 5.57433 9.49685 5.62317 9.53217Z" fill="#EB924D"/>
<path d="M0.576242 8.23067C0.608603 7.47653 0.816292 6.74973 0.844532 5.99901C0.848652 5.89648 0.83217 5.79338 0.848644 5.69086C0.901598 5.37872 1.14224 5.07456 1.32581 4.82564C2.17835 3.66823 3.54453 2.9289 5.00897 2.84175C11.6345 2.4362 18.5778 2.47322 25.7912 2.87365C26.8314 2.93231 27.8351 3.31907 28.6353 3.97068C29.1131 4.36142 29.5537 4.85868 29.8232 5.40777C29.9456 5.66067 29.9785 5.94091 30.0968 6.19779C30.1215 6.25304 30.1456 6.30431 30.1621 6.36355C30.2027 6.5293 30.1868 6.71898 30.0356 6.82948C29.8768 6.95194 29.652 6.9639 29.4484 6.97188C27.1556 7.04763 24.8627 7.18661 22.5699 7.25097C24.585 7.13933 26.5925 6.8665 28.5788 6.52189C28.8524 6.4786 29.146 6.45468 29.4108 6.37949C29.4514 6.36753 29.4967 6.36355 29.529 6.32823C29.5779 6.27697 29.5655 6.20578 29.5573 6.13856C29.5284 5.90959 29.3978 5.71991 29.2548 5.53821C28.7894 4.94982 28.3041 4.33807 27.6263 3.99062C25.99 3.15389 24.3214 3.27692 22.4693 3.32134C22.0868 3.33046 21.7161 3.32419 21.3437 3.38913C21.1513 3.42273 20.9307 3.38799 20.7359 3.38286C20.3023 3.37147 19.8693 3.35951 19.4356 3.34812C18.569 3.32477 17.7023 3.30141 16.8351 3.27863C15.2141 3.23534 13.5932 3.19148 11.9728 3.1482C10.429 3.10662 8.88041 3.07186 7.33948 3.19376C5.81562 3.31451 4.29235 3.59475 2.8838 4.18428C2.76731 4.23269 2.63727 4.27599 2.53489 4.34947C2.46076 4.40301 2.40193 4.46965 2.32309 4.51921C2.08892 4.66673 1.86417 4.80912 1.65942 4.99595C1.52057 5.1224 1.32935 5.28075 1.2558 5.45847C1.2152 5.55302 1.1946 5.66409 1.15812 5.76263C1.05634 6.03546 1.00751 6.31969 0.986919 6.6079C0.966915 6.92403 0.982801 7.24357 1.01987 7.5597C1.03634 7.69811 1.01575 7.9624 1.10165 8.08087C1.15049 8.14808 1.26463 8.20334 1.34229 8.23865C1.54234 8.33719 1.76649 8.37649 1.98713 8.41636C3.16209 8.62939 4.31706 8.97228 5.41024 9.4422C3.94933 9.22917 2.49313 9.0207 1.03222 8.81166C0.918077 8.79173 0.791584 8.77236 0.705683 8.69717C0.576242 8.5861 0.572124 8.39643 0.576242 8.23067Z" fill="#EB924D"/>
<path d="M30.6316 21.5596C30.6946 21.7914 30.6887 22.0364 30.6822 22.2767C30.651 23.445 30.6198 24.6132 30.5533 25.7797C30.4922 26.8511 30.5139 27.9795 30.0621 28.9757C29.319 30.6122 27.6309 31.7257 25.7864 31.7963C18.892 32.0675 11.9646 32.0663 5.00836 31.8003C2.77258 31.7143 0.825682 30.1035 0.405001 27.9749C0.274385 27.3193 0.229078 26.6125 0.359108 25.9529C0.391468 25.7871 0.432663 25.6248 0.497381 25.467C0.533861 25.3799 0.595057 25.1942 0.680958 25.1235C0.823931 26.1938 0.555632 27.3712 0.951601 28.3782C1.18871 28.9905 1.52701 29.5903 2.06595 29.989C3.84046 31.319 6.45633 31.2279 8.58798 31.2649C14.471 31.3674 20.3205 31.5463 26.1859 31.0308C26.4554 31.0069 26.7202 31.1014 26.9814 31.0581C27.5603 30.963 28.1234 30.5797 28.5476 30.2043C29.1307 29.6866 29.579 29.023 29.8561 28.3042C29.9338 28.0945 30.0026 27.8815 30.0597 27.6645C30.6281 25.5496 30.3827 23.1009 30.1133 20.9587C30.3651 21.0379 30.541 21.2691 30.6181 21.5146C30.6228 21.5288 30.6275 21.5442 30.6316 21.5596Z" fill="#EB924D"/>
<path d="M0.0061388 21.9436C0.0096693 21.1063 0.0179071 20.273 0.0214376 19.4357C0.0255556 19.037 0.0249681 18.6337 0.0290861 18.231C0.0408535 16.3115 0.0685015 14.392 0.144989 12.4764C0.157344 12.137 0.152637 11.8248 0.26678 11.5047C0.397397 11.1493 0.385042 10.7187 0.42917 10.3473C0.445643 10.2288 0.465646 10.1024 0.555665 10.0192C0.637448 9.94003 0.763948 9.92465 0.878091 9.91668C1.0699 9.89674 1.26581 9.8768 1.45762 9.85744C1.3476 9.93262 1.25758 10.0312 1.19228 10.1576C1.09873 10.3433 1.07813 10.5523 1.06224 10.758C0.782181 14.1431 0.763355 17.5316 0.8622 20.9201C0.874556 21.3666 0.891039 21.8166 0.911632 22.2632C0.915751 22.3657 0.895146 22.4648 0.907502 22.5634C0.923976 22.6978 0.993405 22.8203 1.08284 22.9268C1.28288 23.1597 1.58059 23.3055 1.87419 23.4007C4.0123 24.095 6.40283 23.5886 8.56506 24.2158H8.30383C6.23102 24.1018 4.16292 23.9805 2.09012 23.8666C1.58824 23.8353 1.06637 23.8039 0.637452 23.555C0.0314379 23.2076 -0.00150967 22.556 0.0061388 21.9436Z" fill="#EB924D"/>
<path d="M5.8973 13.75C5.89848 13.7375 5.89905 13.725 5.90023 13.713C6.07262 13.6971 6.24443 13.6709 6.41447 13.635C6.60628 13.594 6.79278 13.5296 6.98459 13.4932C7.17463 13.4573 7.39645 13.4527 7.5553 13.3388C7.71652 13.2226 7.89008 13.1525 8.09013 13.1212C8.13602 13.1138 8.18544 13.1075 8.22016 13.0774C8.24252 13.058 8.25545 13.0306 8.26722 13.0039C8.51374 12.4195 8.09777 11.6631 8.48786 11.1578C8.70849 11.3976 8.78028 11.7337 8.79852 12.0544C8.81676 12.375 8.78968 12.7003 8.85029 13.0164C8.86382 13.0853 8.88558 13.1605 8.94619 13.1998C9.03326 13.2562 9.12447 13.2067 9.20861 13.1736C9.32569 13.128 9.45336 13.1286 9.58104 13.1161C9.71577 13.103 9.85051 13.091 9.98525 13.0802C10.0258 13.0768 10.2659 13.0876 10.29 13.058C11.5479 11.4922 13.0571 10.2789 14.6268 9.43707C14.718 9.38809 14.8175 9.34423 14.8998 9.41258C14.9734 9.47638 14.9952 9.61309 15.0128 9.73042C15.0858 10.2482 15.2229 10.8138 15.1375 11.3344C15.1011 11.556 15.124 11.753 15.1617 11.9741C15.2123 12.2685 15.2476 12.5653 15.267 12.8632C15.2723 12.9458 15.2723 13.0392 15.2111 13.0967C15.1699 13.1354 15.1111 13.148 15.0552 13.1594C14.4339 13.2853 13.8131 13.4111 13.1918 13.5364C13.6296 13.5894 14.0667 13.6515 14.5015 13.7227C14.7492 13.7631 15.0116 13.8138 15.1928 13.9824C15.3564 14.1345 15.417 14.3515 15.4311 14.5646C15.4382 14.6768 15.4329 14.7901 15.4229 14.9018C15.3964 15.2019 15.4164 15.5027 15.4176 15.8046C15.4188 16.1309 15.3852 16.471 15.4164 16.7957C15.4253 16.8896 15.4653 16.9762 15.4753 17.0696C15.4917 17.2229 15.4617 17.3869 15.4506 17.5395C15.4258 17.8773 15.4011 18.2151 15.3764 18.5529C15.3735 18.5927 15.3688 18.636 15.3399 18.6639C15.3129 18.6901 15.2717 18.6958 15.234 18.7004C14.2315 18.8154 13.2224 18.8747 12.2128 18.877C12.9465 18.9914 13.6808 19.1054 14.4144 19.2193C14.6374 19.254 14.8704 19.2928 15.0493 19.4255C15.2805 19.5969 15.2976 19.9079 15.2846 20.1682C15.2464 20.9611 15.1805 21.7545 15.1158 22.5457C15.0781 23.0088 15.0375 23.4719 14.9952 23.9349C14.974 24.1662 14.9522 24.3969 14.9304 24.6276C14.9246 24.6885 14.8392 25.2023 14.8734 25.2205C14.162 24.844 13.4554 24.3445 12.8176 23.7675C11.9851 23.0139 11.0108 21.8485 10.1953 21.0557C8.80734 20.8159 7.4641 20.6393 6.1038 20.5721C6.07321 20.5669 6.0385 20.5624 6.01261 20.5772C6.01379 20.5766 5.93083 20.3026 5.92377 20.277C5.81727 19.8777 5.74726 19.4693 5.70667 19.0587C5.69784 18.9709 5.68725 18.8826 5.70196 18.7949C5.71902 18.6953 5.75961 18.6041 5.76903 18.5022C5.8008 18.1558 5.80551 17.8101 5.85141 17.4649C5.86729 17.3447 5.88788 17.2194 5.96025 17.1198C6.11028 16.913 6.42564 16.8879 6.60568 16.7051C6.32562 16.6641 6.05086 16.5883 5.79021 16.4801C5.81845 16.1327 5.86669 15.7812 5.87493 15.4326C5.87728 15.3267 5.84199 15.235 5.82905 15.1319C5.80963 14.9718 5.83845 14.8004 5.84492 14.6397C5.85963 14.3436 5.87671 14.0468 5.8973 13.75Z" fill="#FCEBC5"/>
<path d="M16.555 20.4918L18.7802 22.1527C19.6457 21.0659 20.5412 19.9951 21.4508 18.9345C22.3992 20.0019 23.3524 21.0648 24.3102 22.1145C24.402 22.0359 25.4716 21.2061 25.4787 21.218C25.211 20.7464 24.9774 20.2565 24.7797 19.7542C25.078 20.1164 25.4069 20.4553 25.7629 20.7652C25.9012 20.6906 26.0653 20.6268 26.1906 20.5339C26.2277 20.5066 26.2507 20.4758 26.2836 20.4456C26.3783 20.3579 26.4077 20.3363 26.326 20.2076C26.2242 20.0475 26.0394 19.8994 25.9106 19.7576C25.7758 19.6089 25.6411 19.4602 25.5064 19.311C25.2369 19.0125 24.968 18.7135 24.6997 18.4145C24.5779 18.2783 23.26 16.8743 23.2965 16.8338C24.2579 15.7647 25.2322 14.7081 26.2277 13.6806C26.1865 13.7227 25.2804 12.747 25.1981 12.5983C24.9804 12.759 24.7309 12.8792 24.4679 12.9509C24.6079 12.755 24.7474 12.559 24.8874 12.3631C24.6456 12.1831 24.4002 12.0208 24.1784 11.8197C24.2249 11.8624 23.6301 12.3386 23.5059 12.4651C23.3665 12.6069 23.2865 12.8324 23.1929 13.0045C23.1535 13.0768 23.0829 13.1617 23.0035 13.1332C22.9352 13.1081 22.9258 13.0204 22.9282 12.9498C22.9346 12.7544 22.9405 12.5596 22.947 12.3642C22.9517 12.215 22.9535 12.0544 22.8664 11.9308C22.7793 11.8072 22.5681 11.7582 22.4733 11.8767C22.4186 11.945 22.4222 12.0396 22.4286 12.1262C22.4539 12.477 22.4786 12.8279 22.5039 13.1782C22.5269 13.4994 22.4239 13.7034 22.2004 13.9306C21.9432 14.1921 21.7008 14.4678 21.4549 14.7394C21.4861 14.7053 19.9251 12.9794 19.7828 12.8131C19.6527 12.6616 19.5227 12.5101 19.3933 12.3586C19.2362 12.1746 19.0867 11.9393 18.9055 11.7793C18.7408 11.634 18.7408 11.7713 18.5878 11.8379C18.3125 11.9587 18.0271 12.0322 17.7576 12.1837C18.113 12.5699 18.3872 13.0261 18.5584 13.5165C18.3195 13.2824 18.0812 13.0489 17.8424 12.8148C17.6664 12.6422 17.4505 12.7977 17.2552 12.87C17.0904 12.931 16.9098 12.9771 16.758 13.0666C16.3673 13.2978 16.8674 13.6698 17.051 13.8851C17.7147 14.6631 18.3831 15.4372 19.0544 16.209C19.102 16.2637 19.6145 16.8185 19.6004 16.8356C18.5607 18.0374 17.5399 19.2552 16.555 20.4918Z" fill="#FCEBC5"/>
<defs>
<linearGradient id="paint0_linear_13_5755" x1="1.16484" y1="47.678" x2="9.70807" y2="28.039" gradientUnits="userSpaceOnUse">
<stop stop-color="#C69C6D"/>
<stop offset="1" stop-color="#63433B"/>
</linearGradient>
<linearGradient id="paint1_linear_13_5755" x1="4.9661" y1="40.7661" x2="35.1754" y2="-31.3553" gradientUnits="userSpaceOnUse">
<stop stop-color="#C69C6D"/>
<stop offset="1" stop-color="#87583E"/>
</linearGradient>
<linearGradient id="paint2_linear_13_5755" x1="8.47407" y1="31.9431" x2="38.6832" y2="-40.1779" gradientUnits="userSpaceOnUse">
<stop stop-color="#C69C6D"/>
<stop offset="1" stop-color="#A36841"/>
</linearGradient>
</defs>
</svg>
