<svg width="200" height="200" viewBox="0 0 200 200" fill="none" xmlns="http://www.w3.org/2000/svg">
<path d="M123.477 171.75C160.492 156.148 178.454 111.99 163.596 73.1206C148.737 34.251 106.685 15.3888 69.6697 30.9908C32.6542 46.5927 14.6923 90.7507 29.5507 129.62C44.4091 168.49 86.4611 187.352 123.477 171.75Z" fill="#D83E31"/>
<path d="M107.716 139.286C116.124 139.676 124.513 138.067 132.635 135.753C135.559 134.919 138.473 133.987 141.196 132.593C144.276 131.015 147.059 128.872 149.755 126.656C155.015 122.331 160.079 117.608 163.862 111.829C170.059 102.361 175.738 90.0513 173.679 78.7681C173.201 76.1483 174.69 73.4552 176.792 71.9558C178.893 70.4564 181.49 69.9492 184.021 69.7323C186.551 69.5171 188.015 69.9167 190.498 69.3549C192.061 69.0014 194.787 67.6898 195.743 66.3458C198.975 61.7997 199.554 58.9085 199.829 55.9728C200.5 48.8224 199.081 44.4112 197.568 37.4043C197.467 36.9346 197.292 36.3864 196.849 36.2584C196.106 36.0415 195.712 37.1396 195.63 37.9439C195.283 41.2706 194.135 44.5273 192.174 47.1658C190.214 49.8043 187.425 51.7922 184.318 52.5351C182.269 53.0252 180.09 52.9894 178.159 53.8603C177.123 54.3282 176.192 55.0506 175.461 55.9523C174.814 56.7533 174.329 57.6806 173.851 58.6028C173.537 59.2073 173.371 59.8084 173.046 60.4062C172.729 60.9902 172.386 61.5999 171.831 61.9346C171.275 62.2676 170.442 62.1925 170.14 61.6016C169.997 61.3232 169.995 60.9919 170.003 60.676C170.036 59.4037 170.172 58.1058 169.857 56.8762C169.081 53.8483 165.981 52.3113 163.321 50.8871C161.089 49.6933 158.947 48.3186 156.918 46.7799C155.283 45.5401 153.698 44.1653 152.579 42.4029C150.856 39.6893 150.344 36.2157 148.319 33.7428C148.163 33.5515 147.962 33.3517 147.722 33.3739C147.483 33.3961 147.199 33.929 147.145 34.1749C144.701 45.2805 144.036 50.4823 146.465 58.2732C147.16 60.5018 148.082 62.686 149.495 64.5031C150.908 66.3202 152.484 67.4558 154.652 68.0228C156.854 68.5983 159.104 69.196 160.997 70.5093C162.89 71.8209 164.394 74.0085 164.327 76.3891C164.283 77.9705 163.568 79.4426 162.773 80.7883C157.736 89.2999 148.604 94.9782 139.075 95.523C129.546 96.0677 119.881 91.4653 113.992 83.5806C111.151 79.7739 109.188 75.332 106.576 71.3478C103.636 66.8615 99.9113 63.0105 96.1561 59.2534C92.0171 55.1121 87.5951 50.9144 82.1013 49.2562C78.1981 48.0778 74.0525 48.2793 69.9981 48.5355C56.2539 49.4081 41.4005 51.3328 31.4734 61.3505C28.4142 64.4382 25.9926 68.156 23.8702 72.0138C18.3651 82.0214 14.7107 93.9313 17.4283 105.131C18.9993 106.217 21.0697 106.485 22.9221 106.823C26.0463 107.395 29.1851 107.967 32.3565 108C35.9913 108.037 39.5986 107.361 43.1472 106.541C50.2722 104.895 57.3907 102.6 63.4521 98.3391C62.0323 101.799 58.6072 104.149 55.322 105.664C47.7368 109.158 39.488 111.059 31.2066 111.217C28.9737 111.26 26.7082 111.181 24.5435 111.755C23.4051 112.056 22.2114 112.631 21.7235 113.752C21.2307 114.884 21.7365 116.844 22.3724 117.895C23.0099 118.945 24.2101 120.286 24.3565 120.395C35.0058 128.345 47.1805 133.919 59.827 137.368C62.2274 138.022 64.6474 138.603 67.0999 138.996C69.9444 139.452 72.8182 139.655 75.6887 139.857C79.3186 140.113 82.947 140.367 86.577 140.623C93.4255 141.103 100.903 140.19 107.716 139.286Z" fill="#0D1E6D"/>
<path d="M82.3437 54.581C81.8949 49.8453 82.3096 45.0704 82.7243 40.3313C82.8593 38.7807 82.9959 37.2301 83.1309 35.6777C83.57 30.6586 84.0351 25.5284 86.0436 20.9499C88.0505 16.3714 91.9326 12.3752 96.6978 11.7758C98.3908 11.564 100.209 11.8202 101.57 12.8961C102.933 13.9703 103.589 15.4509 102.93 17.1023C102.398 18.4344 100.699 19.7835 99.7033 18.7879C98.7226 17.8059 99.6398 17.0921 99.4544 16.59C99.0267 15.4372 97.7321 16.4602 97.5923 16.9777C97.0751 18.8938 97.5581 20.5298 99.0885 21.3273C100.619 22.1249 102.33 22.2768 103.906 21.5835C104.964 21.1173 106.526 20.0158 107.077 18.9587C107.671 17.8213 113.937 4.4956 98.1729 0.451609C94.2436 -0.555973 89.7728 0.214228 86.042 1.85368C84.7019 2.44115 83.409 3.19426 82.3486 4.236C80.4962 6.05818 79.1024 9.18682 78.1738 11.6682C77.6534 6.64737 73.8428 2.19181 69.1444 1.10909C66.6024 0.523326 63.0358 0.548938 60.4857 1.09372C56.1971 2.00908 53.0257 3.155 49.9975 6.47319C46.9676 9.79138 45.3657 15.9171 47.5319 19.9116C48.3191 21.3632 49.5779 22.5928 51.118 23.0095C52.6582 23.4262 54.4666 22.8933 55.3628 21.5135C56.2589 20.1336 56.2182 17.6147 54.1446 17.2304C53.8161 17.1689 53.2485 17.408 53.3477 17.7427C53.6584 17.9289 53.7608 18.3661 53.6892 18.7332C53.4973 19.7186 52.2694 20.2019 51.3961 19.7886C50.5228 19.3771 50.0414 18.3302 50.0023 17.326C49.9503 15.9513 51.8076 13.7192 52.9606 13.0686C57.7177 10.3789 59.627 10.4147 62.839 11.2754C68.5719 12.8124 71.6148 17.9664 73.0833 20.6254C75.0008 24.0956 76.0108 23.3152 78.3283 38.9395C78.5641 40.5312 79.5041 46.9882 79.6342 48.2246C80.1221 52.8988 80.249 54.8696 80.9369 55.2384C81.6249 55.6073 82.4202 55.3887 82.3437 54.581Z" fill="#7180AA"/>
<mask id="mask0_13_5784" style="mask-type:luminance" maskUnits="userSpaceOnUse" x="16" y="33" width="184" height="108">
<path d="M107.716 139.286C116.124 139.676 124.513 138.067 132.635 135.753C135.559 134.919 138.473 133.987 141.196 132.593C144.276 131.015 147.059 128.872 149.755 126.656C155.015 122.331 160.079 117.608 163.862 111.829C170.059 102.361 175.738 90.0513 173.679 78.7681C173.201 76.1483 174.69 73.4552 176.792 71.9558C178.893 70.4564 181.49 69.9492 184.021 69.7323C186.551 69.5171 188.015 69.9167 190.498 69.3549C192.061 69.0014 194.787 67.6898 195.743 66.3458C198.975 61.7997 199.554 58.9085 199.829 55.9728C200.5 48.8224 199.081 44.4112 197.568 37.4043C197.467 36.9346 197.292 36.3864 196.849 36.2584C196.106 36.0415 195.712 37.1396 195.63 37.9439C195.283 41.2706 194.135 44.5273 192.174 47.1658C190.214 49.8043 187.425 51.7922 184.318 52.5351C182.269 53.0252 180.09 52.9894 178.159 53.8603C177.123 54.3282 176.192 55.0506 175.461 55.9523C174.814 56.7533 174.329 57.6806 173.851 58.6028C173.537 59.2073 173.371 59.8084 173.046 60.4062C172.729 60.9902 172.386 61.5999 171.831 61.9346C171.275 62.2676 170.442 62.1925 170.14 61.6016C169.997 61.3232 169.995 60.9919 170.003 60.676C170.036 59.4037 170.172 58.1058 169.857 56.8762C169.081 53.8483 165.981 52.3113 163.321 50.8871C161.089 49.6933 158.947 48.3186 156.918 46.7799C155.283 45.5401 153.698 44.1653 152.579 42.4029C150.856 39.6893 150.344 36.2157 148.319 33.7428C148.163 33.5515 147.962 33.3517 147.722 33.3739C147.483 33.3961 147.199 33.929 147.145 34.1749C144.701 45.2805 144.036 50.4823 146.465 58.2732C147.16 60.5018 148.082 62.686 149.495 64.5031C150.908 66.3202 152.484 67.4558 154.652 68.0228C156.854 68.5983 159.104 69.196 160.997 70.5093C162.89 71.8209 164.394 74.0085 164.327 76.3891C164.283 77.9705 163.568 79.4426 162.773 80.7883C157.736 89.2999 148.604 94.9782 139.075 95.523C129.546 96.0677 119.881 91.4653 113.992 83.5806C111.151 79.7739 109.188 75.332 106.576 71.3478C103.636 66.8615 99.9113 63.0105 96.1561 59.2534C92.0171 55.1121 87.5951 50.9144 82.1013 49.2562C78.1981 48.0778 74.0525 48.2793 69.9981 48.5355C56.2539 49.4081 41.4005 51.3328 31.4734 61.3505C28.4142 64.4382 25.9926 68.156 23.8702 72.0138C18.3651 82.0214 14.7107 93.9313 17.4283 105.131C18.9993 106.217 21.0697 106.485 22.9221 106.823C26.0463 107.395 29.1851 107.967 32.3565 108C35.9913 108.037 39.5986 107.361 43.1472 106.541C50.2722 104.895 57.3907 102.6 63.4521 98.3391C62.0323 101.799 58.6072 104.149 55.322 105.664C47.7368 109.158 39.488 111.059 31.2066 111.217C28.9737 111.26 26.7082 111.181 24.5435 111.755C23.4051 112.056 22.2114 112.631 21.7235 113.752C21.2307 114.884 21.7365 116.844 22.3724 117.895C23.0099 118.945 24.2101 120.286 24.3565 120.395C35.0058 128.345 47.1805 133.919 59.827 137.368C62.2274 138.022 64.6474 138.603 67.0999 138.996C69.9444 139.452 72.8182 139.655 75.6887 139.857C79.3186 140.113 82.947 140.367 86.577 140.623C93.4255 141.103 100.903 140.19 107.716 139.286Z" fill="white"/>
</mask>
<g mask="url(#mask0_13_5784)">
<path d="M177.24 79.8832C168.46 91.2808 157.406 105.722 142.728 108.394C134.437 109.904 126.679 108.352 118.351 107.472C109.725 106.56 101.1 104.999 92.6562 102.953C88.5481 101.958 84.4643 100.832 80.4261 99.5549C75.765 98.0811 71.2178 96.3478 66.2867 97.5859C62.5657 98.52 59.5082 101.252 56.249 103.201C52.8385 105.24 49.3191 106.907 45.5883 108.188C38.2828 110.696 33.4152 109.877 25.7519 110.345C18.4756 110.789 8.32727 111.976 1.31775 114.245C0.257375 114.588 -0.386654 115.944 0.252498 116.996C6.91236 127.982 22.8684 129.919 34.2023 129.444C34.3633 129.437 34.5227 129.424 34.6821 129.417C32.8329 135.481 35.2334 142.79 42.3958 144.889C51.4545 147.543 60.6124 149.775 69.8761 151.485C79.5333 153.266 91.3844 156.917 98.8607 148.303C99.8625 147.15 100.555 145.753 100.871 144.283C113.859 148.453 126.182 154.349 140.298 151.392C154.262 148.467 168.019 138.892 177.766 128.22C187.982 117.034 194.333 103.449 196.088 88.0839C197.191 78.3923 183.035 72.3622 177.24 79.8832Z" fill="#0D1E6D"/>
</g>
<mask id="mask1_13_5784" style="mask-type:luminance" maskUnits="userSpaceOnUse" x="16" y="33" width="184" height="108">
<path d="M107.716 139.286C116.124 139.676 124.513 138.067 132.635 135.753C135.559 134.919 138.473 133.987 141.196 132.593C144.276 131.015 147.059 128.872 149.755 126.656C155.015 122.331 160.079 117.608 163.862 111.829C170.059 102.361 175.738 90.0513 173.679 78.7681C173.201 76.1483 174.69 73.4552 176.792 71.9558C178.893 70.4564 181.49 69.9492 184.021 69.7323C186.551 69.5171 188.015 69.9167 190.498 69.3549C192.061 69.0014 194.787 67.6898 195.743 66.3458C198.975 61.7997 199.554 58.9085 199.829 55.9728C200.5 48.8224 199.081 44.4112 197.568 37.4043C197.467 36.9346 197.292 36.3864 196.849 36.2584C196.106 36.0415 195.712 37.1396 195.63 37.9439C195.283 41.2706 194.135 44.5273 192.174 47.1658C190.214 49.8043 187.425 51.7922 184.318 52.5351C182.269 53.0252 180.09 52.9894 178.159 53.8603C177.123 54.3282 176.192 55.0506 175.461 55.9523C174.814 56.7533 174.329 57.6806 173.851 58.6028C173.537 59.2073 173.371 59.8084 173.046 60.4062C172.729 60.9902 172.386 61.5999 171.831 61.9346C171.275 62.2676 170.442 62.1925 170.14 61.6016C169.997 61.3232 169.995 60.9919 170.003 60.676C170.036 59.4037 170.172 58.1058 169.857 56.8762C169.081 53.8483 165.981 52.3113 163.321 50.8871C161.089 49.6933 158.947 48.3186 156.918 46.7799C155.283 45.5401 153.698 44.1653 152.579 42.4029C150.856 39.6893 150.344 36.2157 148.319 33.7428C148.163 33.5515 147.962 33.3517 147.722 33.3739C147.483 33.3961 147.199 33.929 147.145 34.1749C144.701 45.2805 144.036 50.4823 146.465 58.2732C147.16 60.5018 148.082 62.686 149.495 64.5031C150.908 66.3202 152.484 67.4558 154.652 68.0228C156.854 68.5983 159.104 69.196 160.997 70.5093C162.89 71.8209 164.394 74.0085 164.327 76.3891C164.283 77.9705 163.568 79.4426 162.773 80.7883C157.736 89.2999 148.604 94.9782 139.075 95.523C129.546 96.0677 119.881 91.4653 113.992 83.5806C111.151 79.7739 109.188 75.332 106.576 71.3478C103.636 66.8615 99.9113 63.0105 96.1561 59.2534C92.0171 55.1121 87.5951 50.9144 82.1013 49.2562C78.1981 48.0778 74.0525 48.2793 69.9981 48.5355C56.2539 49.4081 41.4005 51.3328 31.4734 61.3505C28.4142 64.4382 25.9926 68.156 23.8702 72.0138C18.3651 82.0214 14.7107 93.9313 17.4283 105.131C18.9993 106.217 21.0697 106.485 22.9221 106.823C26.0463 107.395 29.1851 107.967 32.3565 108C35.9913 108.037 39.5986 107.361 43.1472 106.541C50.2722 104.895 57.3907 102.6 63.4521 98.3391C62.0323 101.799 58.6072 104.149 55.322 105.664C47.7368 109.158 39.488 111.059 31.2066 111.217C28.9737 111.26 26.7082 111.181 24.5435 111.755C23.4051 112.056 22.2114 112.631 21.7235 113.752C21.2307 114.884 21.7365 116.844 22.3724 117.895C23.0099 118.945 24.2101 120.286 24.3565 120.395C35.0058 128.345 47.1805 133.919 59.827 137.368C62.2274 138.022 64.6474 138.603 67.0999 138.996C69.9444 139.452 72.8182 139.655 75.6887 139.857C79.3186 140.113 82.947 140.367 86.577 140.623C93.4255 141.103 100.903 140.19 107.716 139.286Z" fill="white"/>
</mask>
<g mask="url(#mask1_13_5784)">
<g opacity="0.19">
<path d="M16.5339 111.829C19.4353 108.811 20.6664 104.624 21.9447 100.68C23.2002 96.8038 25.116 93.3097 27.1164 89.8139C30.9334 83.1502 35.5588 76.8024 41.7079 72.3195C53.1655 63.9669 70.0485 59.3969 83.2707 65.9479C90.3339 69.4471 94.5022 77.2943 99.9016 82.9111C106.179 89.4416 113.604 94.734 122.017 97.6918C137.916 103.283 161.088 96.7235 166.336 78.044C169.828 65.6166 158.598 60.6265 154.643 50.9656C153.254 47.5723 152.844 44.1909 153.215 41.6908C153.885 37.172 156.963 33.9119 157.655 28.9491C158.78 20.8782 153.468 14.7405 145.558 16.2468C132.762 18.6855 128.989 36.8288 130.342 48.252C131.059 54.3129 132.854 59.998 135.738 65.3297C137.224 68.0775 139.051 70.6015 140.942 73.0522C141.739 74.0837 142.556 75.093 143.418 76.0664C143.769 76.4455 144.122 76.8246 144.473 77.2038C145.834 78.7783 145.751 78.4914 144.226 76.3413C144.226 74.1844 144.226 72.0292 144.226 69.8723C144.044 71.1753 143.014 72.3281 142.494 72.7363C140.469 74.3211 138.721 75.0503 135.583 75.455C136.72 75.3081 133.798 75.4055 133.393 75.3953C131.697 75.3543 132.871 75.5677 131.072 75.0708C128.242 74.2886 125.97 73.3169 123.477 71.7253C112.14 64.486 106.522 50.759 94.3005 44.5223C67.2041 30.6945 33.7421 44.0202 17.2901 69.0219C13.1218 75.356 10.3668 82.795 9.21695 90.3792C8.16959 97.2956 6.6197 108.318 13.9756 112.17C14.8327 112.618 15.8394 112.551 16.5339 111.829Z" fill="#0D1E6D"/>
</g>
</g>
<mask id="mask2_13_5784" style="mask-type:luminance" maskUnits="userSpaceOnUse" x="16" y="33" width="184" height="108">
<path d="M107.716 139.286C116.124 139.676 124.513 138.067 132.635 135.753C135.559 134.919 138.473 133.987 141.196 132.593C144.276 131.015 147.059 128.872 149.755 126.656C155.015 122.331 160.079 117.608 163.862 111.829C170.059 102.361 175.738 90.0513 173.679 78.7681C173.201 76.1483 174.69 73.4552 176.792 71.9558C178.893 70.4564 181.49 69.9492 184.021 69.7323C186.551 69.5171 188.015 69.9167 190.498 69.3549C192.061 69.0014 194.787 67.6898 195.743 66.3458C198.975 61.7997 199.554 58.9085 199.829 55.9728C200.5 48.8224 199.081 44.4112 197.568 37.4043C197.467 36.9346 197.292 36.3864 196.849 36.2584C196.106 36.0415 195.712 37.1396 195.63 37.9439C195.283 41.2706 194.135 44.5273 192.174 47.1658C190.214 49.8043 187.425 51.7922 184.318 52.5351C182.269 53.0252 180.09 52.9894 178.159 53.8603C177.123 54.3282 176.192 55.0506 175.461 55.9523C174.814 56.7533 174.329 57.6806 173.851 58.6028C173.537 59.2073 173.371 59.8084 173.046 60.4062C172.729 60.9902 172.386 61.5999 171.831 61.9346C171.275 62.2676 170.442 62.1925 170.14 61.6016C169.997 61.3232 169.995 60.9919 170.003 60.676C170.036 59.4037 170.172 58.1058 169.857 56.8762C169.081 53.8483 165.981 52.3113 163.321 50.8871C161.089 49.6933 158.947 48.3186 156.918 46.7799C155.283 45.5401 153.698 44.1653 152.579 42.4029C150.856 39.6893 150.344 36.2157 148.319 33.7428C148.163 33.5515 147.962 33.3517 147.722 33.3739C147.483 33.3961 147.199 33.929 147.145 34.1749C144.701 45.2805 144.036 50.4823 146.465 58.2732C147.16 60.5018 148.082 62.686 149.495 64.5031C150.908 66.3202 152.484 67.4558 154.652 68.0228C156.854 68.5983 159.104 69.196 160.997 70.5093C162.89 71.8209 164.394 74.0085 164.327 76.3891C164.283 77.9705 163.568 79.4426 162.773 80.7883C157.736 89.2999 148.604 94.9782 139.075 95.523C129.546 96.0677 119.881 91.4653 113.992 83.5806C111.151 79.7739 109.188 75.332 106.576 71.3478C103.636 66.8615 99.9113 63.0105 96.1561 59.2534C92.0171 55.1121 87.5951 50.9144 82.1013 49.2562C78.1981 48.0778 74.0525 48.2793 69.9981 48.5355C56.2539 49.4081 41.4005 51.3328 31.4734 61.3505C28.4142 64.4382 25.9926 68.156 23.8702 72.0138C18.3651 82.0214 14.7107 93.9313 17.4283 105.131C18.9993 106.217 21.0697 106.485 22.9221 106.823C26.0463 107.395 29.1851 107.967 32.3565 108C35.9913 108.037 39.5986 107.361 43.1472 106.541C50.2722 104.895 57.3907 102.6 63.4521 98.3391C62.0323 101.799 58.6072 104.149 55.322 105.664C47.7368 109.158 39.488 111.059 31.2066 111.217C28.9737 111.26 26.7082 111.181 24.5435 111.755C23.4051 112.056 22.2114 112.631 21.7235 113.752C21.2307 114.884 21.7365 116.844 22.3724 117.895C23.0099 118.945 24.2101 120.286 24.3565 120.395C35.0058 128.345 47.1805 133.919 59.827 137.368C62.2274 138.022 64.6474 138.603 67.0999 138.996C69.9444 139.452 72.8182 139.655 75.6887 139.857C79.3186 140.113 82.947 140.367 86.577 140.623C93.4255 141.103 100.903 140.19 107.716 139.286Z" fill="white"/>
</mask>
<g mask="url(#mask2_13_5784)">
<g opacity="0.31">
<path d="M18.2544 120.439C22.6488 129.579 27.5278 137.03 35.91 142.761C43.9116 148.233 53.7867 152.566 63.1804 154.371C84.2171 158.411 105.68 156.876 126.273 150.966C145.341 145.492 168.788 137.689 178.59 118.057C183.334 108.557 186.315 97.8506 188.677 87.4674C188.862 86.6545 189.666 84.6188 189.009 85.5359C189.428 84.9501 190.111 84.3183 190.671 83.8469C189.396 84.9262 191.007 83.7359 191.207 83.613C194.424 81.6439 197.871 80.1735 201.148 78.3309C211.171 72.6935 216.774 63.5399 217.746 51.688C218.502 42.4712 216.63 33.7001 218.34 26.0305C219.241 21.9882 218.432 17.4746 215.446 14.539C214.022 13.1386 212.436 11.9261 210.483 11.5009C205.365 10.3891 200.627 12.295 197.781 16.9281C193.262 24.2835 193.87 33.5447 194.38 41.8957C194.476 43.4549 196.812 51.6692 192.699 57.8428C189.238 63.0361 179.581 66.3526 176.356 67.3192C170.379 69.1123 170.094 77.6358 167.574 86.1456C165.358 93.6273 159.717 106.459 154.135 112.03C148.752 117.403 140.536 120.197 133.669 122.815C116.332 129.424 98.1305 133.28 79.6341 132.194C70.0826 131.632 60.4043 129.69 51.1683 127.123C46.6422 125.865 42.1714 124.328 37.6989 122.875C33.6477 121.558 26.5325 120.931 23.7824 117.048C21.3591 113.622 16.3581 116.498 18.2544 120.439Z" fill="#0D1E6D"/>
</g>
</g>
<mask id="mask3_13_5784" style="mask-type:luminance" maskUnits="userSpaceOnUse" x="46" y="0" width="63" height="56">
<path d="M82.3437 54.581C81.8949 49.8453 82.3096 45.0704 82.7243 40.3313C82.8593 38.7807 82.9959 37.2301 83.1309 35.6777C83.57 30.6586 84.0351 25.5284 86.0436 20.9499C88.0505 16.3714 91.9326 12.3752 96.6978 11.7758C98.3908 11.564 100.209 11.8202 101.57 12.8961C102.933 13.9703 103.589 15.4509 102.93 17.1023C102.398 18.4344 100.699 19.7835 99.7033 18.7879C98.7226 17.8059 99.6398 17.0921 99.4544 16.59C99.0267 15.4372 97.7321 16.4602 97.5923 16.9777C97.0751 18.8938 97.5581 20.5298 99.0885 21.3273C100.619 22.1249 102.33 22.2768 103.906 21.5835C104.964 21.1173 106.526 20.0158 107.077 18.9587C107.671 17.8213 113.937 4.4956 98.1729 0.451609C94.2436 -0.555973 89.7728 0.214228 86.042 1.85368C84.7019 2.44115 83.409 3.19426 82.3486 4.236C80.4962 6.05818 79.1024 9.18682 78.1738 11.6682C77.6534 6.64737 73.8428 2.19181 69.1444 1.10909C66.6024 0.523326 63.0358 0.548938 60.4857 1.09372C56.1971 2.00908 53.0257 3.155 49.9975 6.47319C46.9676 9.79138 45.3657 15.9171 47.5319 19.9116C48.3191 21.3632 49.5779 22.5928 51.118 23.0095C52.6582 23.4262 54.4666 22.8933 55.3628 21.5135C56.2589 20.1336 56.2182 17.6147 54.1446 17.2304C53.8161 17.1689 53.2485 17.408 53.3477 17.7427C53.6584 17.9289 53.7608 18.3661 53.6892 18.7332C53.4973 19.7186 52.2694 20.2019 51.3961 19.7886C50.5228 19.3771 50.0414 18.3302 50.0023 17.326C49.9503 15.9513 51.8076 13.7192 52.9606 13.0686C57.7177 10.3789 59.627 10.4147 62.839 11.2754C68.5719 12.8124 71.6148 17.9664 73.0833 20.6254C75.0008 24.0956 76.0108 23.3152 78.3283 38.9395C78.5641 40.5312 79.5041 46.9882 79.6342 48.2246C80.1221 52.8988 80.249 54.8696 80.9369 55.2384C81.6249 55.6073 82.4202 55.3887 82.3437 54.581Z" fill="white"/>
</mask>
<g mask="url(#mask3_13_5784)">
<path d="M77.9348 5.39559C76.1263 1.29353 73.0313 -2.35937 69.2062 -4.44114C60.5882 -9.13408 50.8139 -6.14376 43.7654 0.205709C37.5365 5.81572 33.0966 15.2067 34.2578 23.9453C35.6077 34.1048 45.6747 40.1982 54.8586 38.6065C56.5923 38.306 58.5455 36.2771 58.8204 34.4464C58.9912 33.309 58.996 32.4176 58.8204 31.2802C58.5114 29.2821 56.6053 27.6444 54.8586 27.1201C50.5505 25.829 45.2096 25.7043 46.1528 19.459C46.792 15.2221 48.7241 10.1978 52.4842 8.55324C65.9974 2.63754 73.7843 11.3113 78.4373 20.4393C78.9561 21.452 79.8506 9.74185 77.9348 5.39559Z" fill="#8293BC"/>
</g>
<mask id="mask4_13_5784" style="mask-type:luminance" maskUnits="userSpaceOnUse" x="46" y="0" width="63" height="56">
<path d="M82.3437 54.581C81.8949 49.8453 82.3096 45.0704 82.7243 40.3313C82.8593 38.7807 82.9959 37.2301 83.1309 35.6777C83.57 30.6586 84.0351 25.5284 86.0436 20.9499C88.0505 16.3714 91.9326 12.3752 96.6978 11.7758C98.3908 11.564 100.209 11.8202 101.57 12.8961C102.933 13.9703 103.589 15.4509 102.93 17.1023C102.398 18.4344 100.699 19.7835 99.7033 18.7879C98.7226 17.8059 99.6398 17.0921 99.4544 16.59C99.0267 15.4372 97.7321 16.4602 97.5923 16.9777C97.0751 18.8938 97.5581 20.5298 99.0885 21.3273C100.619 22.1249 102.33 22.2768 103.906 21.5835C104.964 21.1173 106.526 20.0158 107.077 18.9587C107.671 17.8213 113.937 4.4956 98.1729 0.451609C94.2436 -0.555973 89.7728 0.214228 86.042 1.85368C84.7019 2.44115 83.409 3.19426 82.3486 4.236C80.4962 6.05818 79.1024 9.18682 78.1738 11.6682C77.6534 6.64737 73.8428 2.19181 69.1444 1.10909C66.6024 0.523326 63.0358 0.548938 60.4857 1.09372C56.1971 2.00908 53.0257 3.155 49.9975 6.47319C46.9676 9.79138 45.3657 15.9171 47.5319 19.9116C48.3191 21.3632 49.5779 22.5928 51.118 23.0095C52.6582 23.4262 54.4666 22.8933 55.3628 21.5135C56.2589 20.1336 56.2182 17.6147 54.1446 17.2304C53.8161 17.1689 53.2485 17.408 53.3477 17.7427C53.6584 17.9289 53.7608 18.3661 53.6892 18.7332C53.4973 19.7186 52.2694 20.2019 51.3961 19.7886C50.5228 19.3771 50.0414 18.3302 50.0023 17.326C49.9503 15.9513 51.8076 13.7192 52.9606 13.0686C57.7177 10.3789 59.627 10.4147 62.839 11.2754C68.5719 12.8124 71.6148 17.9664 73.0833 20.6254C75.0008 24.0956 76.0108 23.3152 78.3283 38.9395C78.5641 40.5312 79.5041 46.9882 79.6342 48.2246C80.1221 52.8988 80.249 54.8696 80.9369 55.2384C81.6249 55.6073 82.4202 55.3887 82.3437 54.581Z" fill="white"/>
</mask>
<g mask="url(#mask4_13_5784)">
<path d="M78.439 20.4376C84.5377 13.7773 99.0788 3.90131 103.79 10.4438C105.529 12.8568 105.89 14.7473 105.044 16.6293C101.491 24.5362 94.8422 19.4403 97.8314 21.5903C104.911 26.6846 116.05 32.8035 121.231 26.5241C127.65 18.7435 125.873 6.63714 120.468 -1.17418C115.02 -9.05211 106.095 -14.1788 96.6816 -13.5708C88.2864 -13.0278 79.9352 -7.92667 79.0277 1.53777C78.7024 4.94647 78.439 20.4376 78.439 20.4376Z" fill="#8293BC"/>
</g>
<path d="M56.9403 83.7615C57.0883 82.6258 55.7758 82.2109 55.0472 82.9247C54.6878 83.2782 54.4715 83.782 54.3593 84.2773C54.291 84.5847 54.2487 84.9091 54.2454 85.2251C54.2454 85.3019 54.2471 85.3753 54.2519 85.4505C54.2633 85.64 54.2893 85.8262 54.3284 86.0106C54.3609 86.1831 54.3528 86.0858 54.3007 85.7169C54.2682 86.9311 55.2554 87.7423 56.319 87.8362C57.3485 87.9268 58.1925 87.1122 58.7325 86.2873C58.9341 85.9799 59.0838 85.6264 59.1879 85.2695C59.2497 85.0543 59.2724 84.8408 59.3017 84.6171C59.3521 84.1936 59.3603 84.1458 59.3261 84.4719C59.2936 84.7247 59.2968 84.7503 59.3326 84.5454C59.5326 83.5429 59.3521 82.5473 58.643 81.8027C57.9665 81.0923 56.9549 80.8105 56.0311 81.0769C54.691 81.4663 53.5819 82.6668 53.3087 84.1048C53.1005 85.2063 53.2908 86.4717 54.1218 87.2727C54.8553 87.9797 55.8539 88.3093 56.8346 88.0036C56.3987 88.0036 55.9644 88.0036 55.5286 88.0036C55.5579 88.0087 55.5855 88.0139 55.6148 88.019C56.6833 88.2188 57.7632 87.8858 58.3389 86.8543C58.848 85.9423 58.6951 85.1311 58.3031 84.2141C58.3861 84.8767 58.4674 85.5393 58.5503 86.2019C58.4771 86.3863 58.4023 86.5708 58.3291 86.7552C58.4349 86.5298 58.5276 86.2975 58.6056 86.0619C58.6723 85.775 58.7097 85.4403 58.7162 85.1431C58.6837 85.3976 58.6512 85.6503 58.6186 85.9048C58.6626 85.5632 58.7243 85.2199 58.739 84.8767C58.7065 85.1328 58.6739 85.3907 58.6398 85.6486C58.7 85.3617 58.6447 85.4642 58.4755 85.956C58.5178 85.874 58.565 85.7938 58.6186 85.7169C58.3113 86.1012 58.2543 86.1865 58.4479 85.9748C58.5162 85.9167 58.5829 85.8552 58.6447 85.7903C57.3794 85.7903 56.1125 85.7903 54.8472 85.7903C54.5349 85.5051 54.3706 85.167 54.3528 84.7759C54.33 84.5283 54.3251 84.5146 54.3381 84.7366C54.3381 84.8511 54.2861 85.2524 54.3772 84.8716C54.4731 84.4617 54.3625 84.933 54.3528 84.9997C54.2877 85.4522 54.2535 85.8194 54.3755 86.2822C54.8455 85.4129 55.3155 84.5454 55.7856 83.6761C55.7612 83.6847 55.7368 83.6932 55.7124 83.7035C56.0523 83.7035 56.3905 83.7035 56.7305 83.7035C56.8898 83.7547 57.0281 83.8418 57.1419 83.9682C57.2753 84.1594 57.2916 84.1748 57.1924 84.0109C57.0313 83.7359 57.2704 84.238 57.1403 83.8964C57.0671 83.7052 56.9907 83.5224 56.898 83.3414C56.8622 83.2834 56.8297 83.2236 56.8004 83.1604C56.7223 82.9862 56.7386 83.0596 56.8476 83.3807C56.8134 83.5156 56.7776 83.6505 56.7435 83.7854C56.6914 83.8384 56.6394 83.8913 56.5873 83.9443C56.4296 83.9665 56.2735 83.9869 56.1157 84.0091C56.0409 83.9255 55.9661 83.8418 55.8913 83.7581C56.0263 84.2568 56.8622 84.3524 56.9403 83.7615Z" fill="#000A30"/>
<path d="M56.1206 84.5062C57.4151 84.5062 57.4184 82.392 56.1206 82.392C54.826 82.392 54.8228 84.5062 56.1206 84.5062Z" fill="white"/>
<g opacity="0.29">
<mask id="mask5_13_5784" style="mask-type:luminance" maskUnits="userSpaceOnUse" x="0" y="84" width="175" height="70">
<path d="M171.755 86.6221C165.679 94.4044 160.127 100.37 153.582 104.168C150.593 105.903 147.557 106.757 143.886 107.882C135.808 110.357 126.679 108.352 118.351 107.472C109.725 106.56 101.1 104.999 92.6563 102.953C88.5482 101.958 84.4644 100.832 80.4262 99.555C75.7651 98.0812 71.5529 96.399 66.6235 97.6372C62.9024 98.5713 61.224 102.347 57.9648 104.297C54.5544 106.337 49.864 107.756 46.1348 109.037C38.8293 111.545 33.0656 111.002 25.4007 111.47C18.1244 111.914 8.32898 111.977 1.31946 114.247C0.259084 114.59 -0.384945 115.946 0.254207 116.998C6.91406 127.984 22.8701 129.921 34.204 129.446C34.365 129.439 34.5244 129.426 34.6838 129.419C32.8347 135.483 35.2351 142.792 42.3975 144.891C51.4562 147.545 60.6141 149.777 69.8778 151.486C79.535 153.268 91.3861 156.919 98.8624 148.305C99.8642 147.152 100.557 145.755 100.873 144.285C113.861 148.455 126.183 154.35 140.3 151.394C154.264 148.469 133.91 138.962 145.234 130.172C158.102 120.181 167.299 110.556 171.883 95.8491C173.378 91.0554 174.139 84.0673 174.139 84.0673C174.139 84.0673 173.352 84.5779 171.755 86.6221Z" fill="white"/>
</mask>
<g mask="url(#mask5_13_5784)">
<path d="M28.6355 116.423C40.4005 128.44 59.2188 133.295 75.0643 135.493C84.3198 136.778 93.3573 136.277 102.476 134.286C107.585 133.171 112.647 131.81 117.809 130.978C122.773 130.179 127.819 130.148 132.76 129.28C133.012 129.236 132.915 128.879 132.705 128.852C124.5 127.788 115.601 130.068 107.625 131.939C98.2916 134.13 89.1955 135.784 79.5871 134.901C62.5626 133.338 42.2691 127.88 28.9445 116.095C28.7347 115.905 28.429 116.211 28.6355 116.423Z" fill="white"/>
<path d="M32.9144 109.436C34.3163 120.144 49.6332 124.926 57.8121 127.791C63.5921 129.815 69.4518 131.41 75.5001 132.247C80.9597 133.002 87.3399 133.917 92.4628 131.379C92.8597 131.183 92.7621 130.474 92.3392 130.384C87.7725 129.402 82.9813 130.063 78.3316 129.468C72.8167 128.763 67.3879 127.328 62.0763 125.639C52.0353 122.446 40.1712 118.713 34.4074 108.777C33.8919 107.887 32.7957 108.523 32.9144 109.436Z" fill="white"/>
<path d="M97.2182 130.653C102.868 130.744 108.445 129.284 113.802 127.513C120.171 125.407 126.13 124.767 132.705 123.868C142.11 122.584 152.845 118.854 159.992 112.049C161.015 111.076 159.707 109.399 158.546 110.082C153.909 112.812 149.684 115.828 144.649 117.804C139.378 119.874 133.92 120.958 128.322 121.431C123.249 121.86 118.796 122.729 113.981 124.517C108.43 126.579 102.694 127.89 97.1059 129.798C96.6685 129.948 96.7384 130.647 97.2182 130.653Z" fill="white"/>
<path d="M137.068 127.091C140.271 127.776 143.353 126.476 146.313 125.235C148.776 124.201 152.128 123.16 153.483 120.641C153.706 120.226 153.428 119.637 152.946 119.657C150.73 119.756 148.931 121.338 146.963 122.335C144.023 123.827 140.506 125.498 137.223 125.887C136.626 125.959 136.366 126.941 137.068 127.091Z" fill="white"/>
<path d="M104.587 136.871C115.508 138.284 128.337 135.997 138.051 130.447C138.225 130.348 138.153 130.025 137.947 130.04C132.599 130.471 127.384 132.727 122.165 133.961C116.341 135.34 110.377 135.261 104.504 136.229C104.127 136.292 104.273 136.83 104.587 136.871Z" fill="white"/>
<path d="M46.3951 115.678C49.3372 121.23 57.7275 122.542 63.1025 124.031C70.8813 126.186 78.9805 127.663 87.026 128.071C94.9056 128.471 102.4 126.019 109.926 123.848C114.129 122.635 118.152 121.076 122.47 120.337C126.676 119.616 131.046 119.912 135.166 118.82C135.693 118.68 135.65 117.905 135.166 117.744C128.87 115.652 120.855 118.173 114.513 119.246C106.731 120.561 99.2203 124.061 91.3195 124.519C76.5117 125.38 60.7134 120.448 47.1433 114.659C46.5773 114.418 46.1398 115.196 46.3951 115.678Z" fill="white"/>
<path d="M139.789 116.19C147.046 115.736 152.143 110.562 158.562 107.74C163.609 105.522 168.605 103.719 169.434 97.2854C169.462 97.0702 169.22 96.8431 169.044 97.0463C167.296 99.0905 165.464 101.475 163.233 102.957C160.789 104.581 157.83 105.098 155.282 106.555C150.04 109.551 144.914 112.498 139.547 115.251C139.122 115.47 139.323 116.221 139.789 116.19Z" fill="white"/>
<path d="M157.565 118.17C159.473 118.602 161.405 116.687 162.771 115.488C164.446 114.018 166.751 112.032 167.637 109.897C168.125 108.726 167.008 106.958 165.739 107.904C163.989 109.209 162.678 111.255 161.088 112.795C159.819 114.023 157.445 115.476 157.131 117.364C157.076 117.697 157.212 118.089 157.565 118.17Z" fill="white"/>
<path d="M149.445 105.582C151.64 105.93 153.402 105.297 155.339 104.21C158.2 102.605 161.361 100.757 164.097 98.9453C166.712 97.2154 167.847 94.5291 169.95 92.2116C172.554 89.3426 176.076 87.6638 178.039 84.2159C178.441 83.5106 177.758 82.3732 176.941 82.7164C171.923 84.8238 168.494 89.8413 165.181 94.0987C162.947 96.9712 159.4 98.3254 156.477 100.308C154.135 101.898 151.673 103.307 149.364 104.934C149.152 105.085 149.134 105.532 149.445 105.582Z" fill="white"/>
<path d="M171.732 95.7535C173.287 94.9731 175.74 93.7981 176.101 91.8376C176.244 91.0606 175.609 90.1247 174.77 90.4407C173.796 90.8078 173.256 91.5302 172.632 92.3619C172.067 93.1116 171.449 93.8118 170.789 94.471C170.117 95.1422 170.97 96.1361 171.732 95.7535Z" fill="white"/>
<path d="M40.9827 108.552C41.0185 109.392 41.3422 110.136 41.8057 110.813C42.4302 111.721 43.1685 112.838 44.2419 113.157C45.6292 113.571 46.8766 111.895 46.1252 110.585C45.878 110.157 45.4893 109.981 45.1543 109.791C44.873 109.633 44.4355 109.332 44.0679 109.148C43.6695 108.949 43.2629 108.753 42.8449 108.604C42.4643 108.47 42.0724 108.476 41.7 108.352C41.8041 108.435 41.9082 108.519 42.0122 108.604C41.9748 108.543 41.9374 108.482 41.9 108.422C41.726 107.937 40.9584 107.961 40.9827 108.552Z" fill="white"/>
<path d="M47.6882 106.446C49.3909 117.558 65.2299 118.253 73.3453 119.739C78.6634 120.713 84.5378 122.113 89.9649 121.503C92.8272 121.182 95.6018 120.267 98.4153 119.667C101.575 118.995 104.752 119.126 107.889 118.532C108.466 118.422 108.559 117.485 108.053 117.213C104.329 115.214 100.021 116.6 96.1026 117.367C89.9957 118.562 84.6792 118.262 78.5707 117.271C73.0119 116.37 67.4921 115.231 62.0178 113.875C59.3783 113.221 56.4411 112.749 54.0797 111.255C51.8971 109.875 50.4822 107.672 48.7046 105.822C48.2411 105.339 47.5955 105.848 47.6882 106.446Z" fill="white"/>
<path d="M53.6861 103.953C53.8732 104.842 53.8488 105.754 54.2131 106.6C54.5497 107.383 55.0994 108.092 55.7207 108.644C56.9388 109.725 58.718 110.944 60.3151 110.126C60.9234 109.814 60.9331 108.924 60.52 108.458C59.6987 107.534 58.3407 107.421 57.3535 106.711C56.407 106.029 54.8636 104.883 54.4375 103.734C54.257 103.252 53.5755 103.428 53.6861 103.953Z" fill="white"/>
<path d="M62.5999 110.085C69.2695 116.168 77.8013 113.273 85.7379 115.021C89.2979 115.804 92.331 116.363 96.0212 115.881C100.877 115.248 105.774 114.79 110.596 114.143C111.174 114.066 111.587 113.192 110.93 112.848C108.11 111.374 105.194 111.815 102.139 112.314C97.1352 113.133 92.7035 114.211 87.6586 113.033C79.4033 111.106 70.8585 113.135 62.8634 109.605C62.6129 109.496 62.4031 109.906 62.5999 110.085Z" fill="white"/>
<path d="M112.628 116.896C115.399 117.97 117.909 117.072 120.694 116.315C124.435 115.299 128.059 115.395 131.815 114.783C133.965 114.433 135.81 113.622 137.589 112.329C138.799 111.45 139.784 110.328 140.886 109.32C142.691 107.669 144.673 106.888 146.607 105.522C147.113 105.165 147.01 104.414 146.443 104.204C141.279 102.287 137.184 110.423 132.627 111.832C129.591 112.77 126.279 112.514 123.188 113.277C119.735 114.129 115.952 114.947 112.628 116.16C112.278 116.288 112.29 116.764 112.628 116.896Z" fill="white"/>
<path d="M59.3538 102.889C63.5384 108.152 70.3837 108.972 76.5442 109.24C81.516 109.457 86.2584 109.762 91.1943 110.435C95.439 111.012 98.3372 109.327 102.47 109.037C104.805 108.873 104.366 105.18 102.039 105.694C97.4313 106.709 94.0599 107.87 89.2476 107.259C86.2827 106.883 83.344 106.734 80.3564 106.673C72.9354 106.521 66.4186 105.768 59.5734 102.59C59.3847 102.503 59.2172 102.716 59.3538 102.889Z" fill="white"/>
<path d="M106.924 108.647C111.743 109.957 116.242 112.341 121.293 111.04C124.05 110.329 126.478 108.76 129.147 107.792C132.368 106.625 135.826 106.958 138.971 105.72C139.941 105.339 139.965 103.994 138.971 103.62C133.5 101.562 127.639 104.979 122.545 106.811C118.541 108.251 115.876 107.38 111.932 106.765C109.845 106.441 108.526 106.372 106.81 107.725C106.498 107.971 106.49 108.529 106.924 108.647Z" fill="white"/>
<path d="M62.3349 97.808C66.9716 105.182 74.9651 101.587 82.0348 102.974C86.4779 103.845 90.3616 103.99 94.8959 103.401C99.2902 102.829 104.215 102.796 108.289 100.865C108.977 100.539 108.821 99.2545 108.072 99.123C99.9684 97.7004 91.8822 101.772 83.5847 100.084C77.0517 98.7558 68.3052 101.78 62.5659 97.5672C62.4276 97.4647 62.2438 97.6628 62.3349 97.808Z" fill="white"/>
</g>
</g>
<path d="M123.934 152.701C119.958 146.761 116.684 140.224 114.973 133.188C114.573 131.543 109.738 114.839 110.099 107.653C110.141 106.821 109.787 105.997 109.16 105.486C108.534 104.975 107.747 104.736 106.968 104.576C105.01 104.173 101.468 103.978 99.4919 103.698C95.0959 103.075 92.3978 101.563 87.9611 101.577C85.1606 101.585 86.247 104.677 86.4746 105.865C87.3789 110.601 88.4263 115.326 90.0738 119.836C92.388 126.17 95.8424 131.962 99.2739 137.708C100.513 139.781 101.759 141.868 103.327 143.68C104.901 145.501 106.771 147.012 108.699 148.409C112.631 151.263 116.962 153.73 121.693 154.458C122.249 154.543 122.854 154.596 123.342 154.302C123.83 154.009 124.258 153.184 123.934 152.701Z" fill="#1C307F"/>
<mask id="mask6_13_5784" style="mask-type:luminance" maskUnits="userSpaceOnUse" x="86" y="101" width="39" height="54">
<path d="M123.934 152.701C119.958 146.761 116.684 140.224 114.973 133.188C114.573 131.543 109.738 114.839 110.099 107.653C110.141 106.821 109.787 105.997 109.16 105.486C108.534 104.975 107.747 104.736 106.968 104.576C105.01 104.173 101.468 103.978 99.4919 103.698C95.0959 103.075 92.3978 101.563 87.9611 101.577C85.1606 101.585 86.247 104.677 86.4746 105.865C87.3789 110.601 88.4263 115.326 90.0738 119.836C92.388 126.17 95.8424 131.962 99.2739 137.708C100.513 139.781 101.759 141.868 103.327 143.68C104.901 145.501 106.771 147.012 108.699 148.409C112.631 151.263 116.962 153.73 121.693 154.458C122.249 154.543 122.854 154.596 123.342 154.302C123.83 154.009 124.258 153.184 123.934 152.701Z" fill="white"/>
</mask>
<g mask="url(#mask6_13_5784)">
<g opacity="0.19">
<path d="M130.493 151.584C130.267 147.451 127.974 144.208 126.513 140.482C124.739 135.956 123.337 131.27 121.989 126.589C120.74 122.251 118.91 117.85 118.427 113.32C117.826 107.67 120.276 102.774 119.418 97.0582C118.276 89.4655 109.388 89.3613 104.895 93.0313C99.4984 97.4408 99.0072 106.692 99.7017 113.32C100.396 119.937 102.535 126.157 105.21 132.16C108.728 140.055 115.466 157.537 125.972 156.331C128.291 156.065 130.646 154.371 130.493 151.584Z" fill="#1C307F"/>
</g>
</g>
<path d="M29.351 79.2735C31.7758 76.4608 35.2871 74.2903 38.2243 72.0377C41.2493 69.7169 44.393 67.5702 47.8018 65.9171C51.1569 64.2896 54.634 62.8089 58.212 61.8252C61.4939 60.9235 64.6376 60.6367 67.6415 58.8896C68.3294 58.49 68.3197 57.3851 67.6415 56.982C61.2321 53.1771 51.261 56.3024 45.0598 59.4361C41.4558 61.2583 37.9657 63.5416 34.9667 66.3269C31.3595 69.6776 29.7998 73.4381 27.4107 77.7006C26.7147 78.9473 28.3914 80.387 29.351 79.2735Z" fill="white"/>
<path d="M71.1837 59.7435C71.2341 59.7674 71.2862 59.7914 71.3366 59.8153C72.327 60.2815 73.5647 60.3208 74.3648 59.4054C75.1747 58.4781 75.2301 57.339 74.7552 56.2255C74.7324 56.1726 74.7096 56.118 74.6868 56.065C73.9989 54.4529 71.7367 54.3948 70.6649 55.5202C69.5883 56.6508 69.6517 59.0246 71.1837 59.7435Z" fill="white"/>
<path d="M83.4023 12.2949C87.7577 7.21776 94.546 8.1724 100.245 6.40316C100.655 6.27508 100.746 5.66882 100.365 5.43827C93.7702 1.44551 85.4174 4.5195 82.5615 11.7809C82.3664 12.2745 83.0819 12.6672 83.4023 12.2949Z" fill="white"/>
<path d="M57.0898 6.18458C59.7066 5.58003 62.1428 5.52879 64.7677 6.10943C66.734 6.54491 68.4807 7.82574 70.5168 7.85135C70.8974 7.85648 71.1983 7.44833 71.0909 7.06066C70.3282 4.34532 67.1877 3.36335 64.7466 3.1772C61.9249 2.96202 59.056 4.05158 57.0459 6.10432C57.0117 6.14018 57.0475 6.19483 57.0898 6.18458Z" fill="white"/>
<path d="M64.6411 156.617C64.6411 157.614 63.8702 158.423 62.9204 158.423C61.9706 158.423 61.1997 157.614 61.1997 156.617C61.1997 155.619 61.9706 154.81 62.9204 154.81C63.8702 154.81 64.6411 155.619 64.6411 156.617Z" fill="white"/>
<path d="M132.002 159.725C132.953 159.725 133.723 158.916 133.723 157.918C133.723 156.92 132.953 156.111 132.002 156.111C131.052 156.111 130.282 156.92 130.282 157.918C130.282 158.916 131.052 159.725 132.002 159.725Z" fill="white"/>
<path d="M119.145 37.8466C122.488 38.5741 125.543 40.9069 126.987 44.1568C127.606 45.5503 127.928 47.0753 128.075 48.6055C128.207 49.9905 128.195 51.4062 127.87 52.7554C126.998 56.3639 119.136 63.0515 110.179 57.8701C113.835 57.2143 117.156 54.7449 118.959 51.3413C119.501 50.3184 120.376 45.5674 116.593 41.7164C114.261 39.3426 112.257 40.2204 110.133 39.3562C112.571 37.587 116.307 37.2301 119.145 37.8466Z" fill="white"/>
</svg>
